<?xml version="1.0" encoding="UTF-8" standalone="no"?>
<svg
   viewBox="0 0 795.53711 145.80666"
   height="145.80666"
   width="795.53711"
   xml:space="preserve"
   id="svg2"
   version="1.1"
   sodipodi:docname="logo-dark.svg"
   inkscape:version="1.2.2 (b0a8486541, 2022-12-01)"
   xmlns:inkscape="http://www.inkscape.org/namespaces/inkscape"
   xmlns:sodipodi="http://sodipodi.sourceforge.net/DTD/sodipodi-0.dtd"
   xmlns="http://www.w3.org/2000/svg"
   xmlns:svg="http://www.w3.org/2000/svg"
   xmlns:rdf="http://www.w3.org/1999/02/22-rdf-syntax-ns#"
   xmlns:cc="http://creativecommons.org/ns#"
   xmlns:dc="http://purl.org/dc/elements/1.1/"><sodipodi:namedview
     id="namedview23"
     pagecolor="#ffffff"
     bordercolor="#000000"
     borderopacity="0.25"
     inkscape:showpageshadow="2"
     inkscape:pageopacity="0.0"
     inkscape:pagecheckerboard="0"
     inkscape:deskcolor="#d1d1d1"
     showgrid="false"
     inkscape:zoom="0.98768474"
     inkscape:cx="488.00997"
     inkscape:cy="56.192019"
     inkscape:window-width="1854"
     inkscape:window-height="1011"
     inkscape:window-x="0"
     inkscape:window-y="0"
     inkscape:window-maximized="1"
     inkscape:current-layer="g12" /><metadata
     id="metadata8"><rdf:RDF><cc:Work
         rdf:about=""><dc:format>image/svg+xml</dc:format><dc:type
           rdf:resource="http://purl.org/dc/dcmitype/StillImage" /></cc:Work></rdf:RDF></metadata><defs
     id="defs6"><clipPath
       id="clipPath30"
       clipPathUnits="userSpaceOnUse"><path
         id="path28"
         d="m 2316.56,4534.75 v -862.23 h -44.95 v 794.25 l -500.23,-561.55 -498.33,559.41 v 45 l 498.33,-559.42 520.71,584.54 z m -444.12,-208 c -100.56,-40.86 -202.84,-81.61 -295.38,-135.91 l -19.15,21.5 c 114.4,62.8 243.61,114.2 361.13,166.73 z m -346.73,-168.26 c -74.84,-50.72 -141.16,-113.02 -191.98,-195.23 -56.39,-91.24 -67.37,-191.68 12.87,-290.64 l -118.92,0.14 c -0.6,28.39 -0.63,55.56 0.41,81.73 v 1011.58 h 26.78 3.19 v -0.12 l 2.25,-0.09 422.68,-474.49 c -9.47,-4.36 -18.91,-8.76 -28.31,-13.21 l -396.62,445.23 v -803.76 c 9.14,23.97 20.8,47.35 35.62,70.37 49.35,76.71 124.29,138.49 211.33,191.74 z m 196.31,89.08 49.96,-56.09 511.85,574.59 H 2317 c 8.33,-164.68 -77.67,-258.37 -205.41,-330.06 -35.42,-19.88 -72.58,-37.97 -110.77,-55.13 l 59.29,66.56 c 10.82,5.87 21.41,11.8 31.7,17.83 111.25,65.21 188.21,142.05 189.71,253.21 l -509.54,-572 -78.45,88.06 c 9.45,4.41 18.95,8.75 28.49,13.03 z" /></clipPath><linearGradient
       id="linearGradient42"
       spreadMethod="pad"
       gradientTransform="matrix(10,0,0,10,10,10)"
       gradientUnits="userSpaceOnUse"
       y2="487.08401"
       x2="226.44701"
       y1="350.49399"
       x1="127.761"><stop
         id="stop32"
         offset="0"
         style="stop-opacity:1;stop-color:#6d5437" /><stop
         id="stop34"
         offset="0.273438"
         style="stop-opacity:1;stop-color:#8f785d" /><stop
         id="stop36"
         offset="0.492188"
         style="stop-opacity:1;stop-color:#c2b499" /><stop
         id="stop38"
         offset="0.75"
         style="stop-opacity:1;stop-color:#8f785d" /><stop
         id="stop40"
         offset="1"
         style="stop-opacity:1;stop-color:#6d5437" /></linearGradient></defs><g
     transform="matrix(0.13333333,0,0,-0.13333333,-163.63488,635.47598)"
     id="g12"><g
       id="g199"><path
         id="path16"
         style="fill:#897257;fill-opacity:1;fill-rule:nonzero;stroke:none"
         d="m 2731.71,4061.98 c 1.24,-3.02 2.38,-6 3.43,-8.94 h 14.95 c 0.8,2.94 1.69,5.89 2.66,8.8 1.21,3.62 2.55,7.23 3.98,10.79 l 12.07,29.84 84.04,198.33 h 4.99 l 8.76,-200.96 c 0.3,-5.28 0.32,-9.86 0.05,-13.75 -0.28,-4.03 -0.87,-7.36 -1.77,-9.98 -0.96,-2.77 -2.31,-5.08 -4.05,-6.91 -1.77,-1.87 -3.94,-3.21 -6.46,-4.02 -2.25,-0.72 -4.88,-1.35 -7.86,-1.86 -2.34,-0.39 -4.91,-0.73 -7.68,-1.01 v -5.62 h 100.58 v 5.56 c -4.07,0.29 -7.79,0.64 -11.15,1.06 -4,0.51 -7.47,1.12 -10.36,1.82 -3.18,0.77 -5.89,2.06 -8.11,3.84 -2.25,1.81 -4.01,4.14 -5.23,6.94 -1.13,2.6 -2.07,5.91 -2.78,9.91 -0.71,3.91 -1.22,8.49 -1.52,13.73 l -9.57,211.82 c -0.15,5.43 -0.05,10.11 0.3,14.04 0.36,4.06 0.99,7.38 1.89,9.91 0.97,2.72 2.42,5.01 4.34,6.85 1.92,1.82 4.3,3.19 7.09,4.06 2.54,0.79 5.58,1.43 9.08,1.91 2.75,0.37 5.81,0.65 9.17,0.82 v 5.52 h -67.51 l -2.85,-9.54 c -1.14,-3.64 -2.39,-7.41 -3.73,-11.29 -1.32,-3.79 -2.71,-7.61 -4.19,-11.42 -1.46,-3.78 -3.04,-7.69 -4.75,-11.73 l -85.36,-203.78 h -4.22 l -92.68,203.7 c -3.93,8.47 -7.36,16.26 -10.28,23.32 -1.48,3.59 -2.89,7.25 -4.2,10.93 -1.12,3.12 -2.22,6.39 -3.29,9.81 h -73.03 v -5.49 c 4.84,-0.16 9.12,-0.45 12.86,-0.84 4.46,-0.47 8.2,-1.1 11.21,-1.9 3.24,-0.85 5.97,-2.17 8.18,-3.94 2.26,-1.83 3.98,-4.11 5.13,-6.86 1.08,-2.57 1.81,-5.93 2.17,-10.04 0.35,-3.96 0.37,-8.66 0.07,-14.07 l -10.48,-211.76 c -0.15,-5.83 -0.9,-10.98 -2.2,-15.4 -1.34,-4.57 -3.31,-8.44 -5.88,-11.58 -2.63,-3.23 -6.23,-5.74 -10.78,-7.49 -3.81,-1.47 -8.3,-2.42 -13.46,-2.85 v -5.57 h 91.93 v 5.51 c -8.36,0.39 -15.37,1.33 -21,2.83 -6.45,1.71 -11.22,4.19 -14.27,7.42 -3.01,3.17 -5.23,7.09 -6.62,11.7 -1.37,4.51 -1.98,9.72 -1.82,15.6 l 9.22,197.86 h 4.96 l 87.66,-195.06 13.64,-29.8 c 1.74,-3.7 3.32,-7.3 4.73,-10.77 z m 284.45,0.23 v -5.52 h 108.79 v 5.48 c -4.98,0.17 -9.44,0.46 -13.36,0.85 -4.63,0.47 -8.57,1.1 -11.8,1.88 -3.44,0.85 -6.38,2.16 -8.78,3.97 -2.46,1.84 -4.36,4.18 -5.66,6.99 -1.25,2.66 -2.18,6.01 -2.78,10.03 -0.59,3.93 -0.89,8.54 -0.89,13.81 v 211.77 c 0,5.37 0.27,10.06 0.77,14.05 0.52,4.05 1.33,7.37 2.41,9.93 1.1,2.67 2.62,4.91 4.5,6.72 1.9,1.81 4.18,3.16 6.81,4.03 2.42,0.82 5.32,1.46 8.66,1.94 2.6,0.37 5.51,0.65 8.73,0.82 v 5.52 H 3004.78 V 4349 c 5.11,-0.17 9.67,-0.46 13.64,-0.85 4.69,-0.47 8.62,-1.1 11.76,-1.88 3.36,-0.84 6.23,-2.15 8.58,-3.9 2.42,-1.8 4.29,-4.07 5.61,-6.8 1.25,-2.57 2.19,-5.93 2.79,-10.01 0.59,-3.97 0.88,-8.67 0.88,-14.09 V 4099.7 c 0,-5.25 -0.24,-9.84 -0.7,-13.74 -0.47,-3.98 -1.21,-7.29 -2.2,-9.92 -1.03,-2.79 -2.51,-5.11 -4.41,-6.96 -1.92,-1.87 -4.25,-3.25 -6.98,-4.13 -2.48,-0.8 -5.42,-1.44 -8.8,-1.92 -2.63,-0.37 -5.57,-0.65 -8.79,-0.82 z m 426.39,-7.05 c 4.99,-0.8 10.55,-1.21 16.67,-1.21 3.6,0 7.35,0.16 11.2,0.45 3.16,0.24 6.33,0.8 9.49,1.65 v 6.08 c -2.5,0.1 -4.9,0.32 -7.19,0.68 -3.06,0.48 -5.89,1.22 -8.46,2.18 -2.63,0.98 -5.31,2.44 -8.03,4.34 -2.68,1.89 -5.39,4.21 -8.13,6.94 -5.31,5.3 -12.28,13.03 -20.87,23.16 l -94.87,116.42 v 3.97 l 2.16,0.34 c 11.62,1.79 22.23,4.73 31.77,8.82 9.53,4.07 18.03,9.3 25.49,15.65 14.73,12.53 22.1,28.45 22.1,47.71 0,9.33 -1.94,17.81 -5.82,25.45 -3.88,7.67 -9.75,14.54 -17.56,20.6 -7.84,6.08 -17.96,10.67 -30.31,13.73 -12.49,3.09 -27.31,4.64 -44.43,4.64 -10.32,0 -21.51,-0.38 -33.55,-1.13 -6.03,-0.37 -13.24,-0.66 -21.62,-0.86 -8.56,-0.19 -17.97,-0.29 -28.18,-0.29 h -40.72 V 4349 c 5.11,-0.17 9.67,-0.46 13.64,-0.85 4.69,-0.47 8.62,-1.1 11.76,-1.88 3.36,-0.84 6.23,-2.15 8.58,-3.9 2.41,-1.8 4.29,-4.07 5.61,-6.8 1.25,-2.57 2.18,-5.93 2.79,-10.01 0.58,-3.97 0.88,-8.67 0.88,-14.09 V 4099.7 c 0,-5.25 -0.24,-9.84 -0.7,-13.74 -0.48,-3.98 -1.21,-7.29 -2.2,-9.92 -1.04,-2.78 -2.51,-5.1 -4.41,-6.95 -1.9,-1.88 -4.24,-3.26 -6.98,-4.14 -2.48,-0.8 -5.42,-1.44 -8.8,-1.92 -2.63,-0.37 -5.56,-0.65 -8.79,-0.82 v -5.52 h 108.33 v 5.48 c -4.97,0.17 -9.42,0.46 -13.3,0.85 -4.62,0.47 -8.51,1.1 -11.64,1.88 -3.37,0.85 -6.25,2.17 -8.62,3.98 -2.39,1.84 -4.27,4.17 -5.58,6.98 -1.25,2.65 -2.18,6 -2.78,10.03 -0.59,3.92 -0.89,8.53 -0.89,13.81 v 211.77 c 0,7.22 0.71,13.14 2.11,17.76 1.51,4.95 3.85,8.47 7.01,10.55 5.75,3.76 14.34,5.65 25.76,5.65 12.01,0 23.46,-1.4 34.32,-4.18 5.56,-1.43 10.62,-3.53 15.14,-6.26 4.55,-2.74 8.59,-6.17 12.11,-10.25 7.09,-8.22 10.65,-20.1 10.65,-35.58 0,-11.32 -2.15,-21.24 -6.44,-29.73 -4.29,-8.51 -10.74,-15.57 -19.32,-21.13 -8.48,-5.48 -18.59,-9.3 -30.31,-11.41 -10.9,-1.95 -23.19,-2.46 -36.85,-1.5 v -8.71 c 0.97,-0.17 1.88,-0.38 2.72,-0.64 1.56,-0.49 2.95,-1.17 4.15,-2 1.13,-0.78 2.5,-2.02 4.1,-3.7 1.51,-1.58 3.29,-3.64 5.31,-6.13 l 93.82,-115.22 c 2.53,-3.11 5.15,-6.16 7.87,-9.1 2.7,-2.92 5.48,-5.73 8.31,-8.42 2.76,-2.61 5.82,-4.99 9.16,-7.09 3.35,-2.11 7.02,-3.98 11,-5.6 3.94,-1.6 8.4,-2.82 13.34,-3.62 z m 89.99,7.05 v -5.52 h 231.43 l 3.38,65.97 h -5.54 c -0.5,-4.19 -1.28,-8.26 -2.33,-12.18 -1.25,-4.65 -2.91,-9.15 -4.94,-13.46 -2.09,-4.41 -4.78,-8.39 -8.07,-11.92 -3.27,-3.51 -7.15,-6.59 -11.61,-9.21 -4.48,-2.66 -9.78,-4.63 -15.9,-5.94 -6.03,-1.29 -12.85,-1.94 -20.45,-1.94 h -63.3 c -6.97,0 -12.82,0.42 -17.57,1.24 -4.93,0.85 -8.75,2.2 -11.4,3.98 -5.45,3.69 -8.19,12.52 -8.19,26.47 v 94.27 c 0,4.2 0.46,7.75 1.37,10.66 0.99,3.13 2.52,5.55 4.58,7.24 3.8,3.12 10.12,4.68 18.91,4.68 h 63.3 c 5.53,0 10.24,-0.55 14.12,-1.64 4.08,-1.15 7.28,-2.92 9.56,-5.29 2.28,-2.37 4.01,-5.84 5.19,-10.41 0.96,-3.76 1.57,-8.31 1.81,-13.64 h 5.5 v 72.36 h -5.56 c -0.79,-9.45 -3.55,-16.71 -8.28,-21.75 -5.21,-5.54 -12.66,-8.31 -22.34,-8.31 H 3622 c -2.41,0 -4.61,-0.08 -6.6,-0.22 -2,-0.14 -3.84,-0.36 -5.5,-0.65 -1.58,-0.28 -3.02,-0.69 -4.31,-1.21 -1.26,-0.52 -2.43,-1.18 -3.47,-1.96 l -4.07,-3.06 v 90.7 c 0,6.84 0.47,12.41 1.37,16.7 0.99,4.65 2.58,7.92 4.76,9.81 2,1.75 4.42,3.06 7.23,3.92 2.72,0.84 5.8,1.26 9.22,1.26 H 3673 c 7.28,0 13.69,-0.49 19.23,-1.47 5.64,-0.99 10.41,-2.5 14.28,-4.51 7.86,-4.1 13.28,-10.02 16.23,-17.74 1.4,-3.67 2.51,-7.73 3.31,-12.13 0.65,-3.62 1.08,-7.47 1.3,-11.52 h 5.51 v 58.69 H 3521.15 V 4349 c 5.12,-0.17 9.67,-0.46 13.64,-0.85 4.69,-0.47 8.62,-1.1 11.76,-1.88 3.36,-0.84 6.23,-2.15 8.58,-3.9 2.41,-1.8 4.29,-4.07 5.61,-6.8 1.25,-2.57 2.19,-5.93 2.79,-10.01 0.59,-3.97 0.88,-8.67 0.88,-14.09 V 4099.7 c 0,-5.22 -0.26,-9.81 -0.77,-13.76 -0.52,-4.03 -1.32,-7.36 -2.37,-9.97 -1.12,-2.74 -2.63,-5.04 -4.5,-6.88 -1.92,-1.88 -4.2,-3.25 -6.84,-4.13 -2.43,-0.81 -5.32,-1.45 -8.65,-1.93 -2.6,-0.37 -5.53,-0.65 -8.74,-0.82 z m 306.23,0 v -5.52 h 209.12 l 3.38,65.97 h -5.54 c -0.49,-4.17 -1.25,-8.23 -2.27,-12.16 -1.22,-4.67 -2.81,-9.16 -4.75,-13.44 -2.01,-4.42 -4.62,-8.4 -7.84,-11.93 -3.2,-3.53 -7.01,-6.61 -11.39,-9.24 -4.41,-2.65 -9.71,-4.63 -15.85,-5.94 -6.08,-1.29 -13,-1.94 -20.75,-1.94 h -41.43 c -6.97,0 -12.82,0.42 -17.57,1.24 -4.93,0.85 -8.75,2.2 -11.4,3.98 -5.46,3.69 -8.19,12.52 -8.19,26.47 v 211.77 c 0,5.37 0.26,10.06 0.77,14.05 0.52,4.05 1.33,7.37 2.4,9.93 1.11,2.67 2.63,4.91 4.51,6.72 1.9,1.81 4.18,3.16 6.8,4.03 2.43,0.82 5.33,1.46 8.66,1.94 2.61,0.37 5.52,0.65 8.74,0.82 v 5.52 H 3827.39 V 4349 c 5.11,-0.17 9.67,-0.46 13.64,-0.85 4.68,-0.47 8.62,-1.1 11.76,-1.88 3.35,-0.84 6.23,-2.15 8.57,-3.9 2.42,-1.8 4.3,-4.07 5.62,-6.8 1.25,-2.57 2.18,-5.93 2.79,-10.01 0.58,-3.97 0.88,-8.67 0.88,-14.09 V 4099.7 c 0,-5.22 -0.26,-9.81 -0.77,-13.76 -0.52,-4.03 -1.32,-7.36 -2.38,-9.97 -1.11,-2.74 -2.62,-5.04 -4.5,-6.88 -1.91,-1.88 -4.2,-3.25 -6.84,-4.13 -2.42,-0.81 -5.31,-1.45 -8.64,-1.93 -2.61,-0.37 -5.53,-0.65 -8.75,-0.82 z m 276.64,0 v -5.52 h 209.11 l 3.39,65.97 h -5.55 c -0.48,-4.17 -1.25,-8.23 -2.27,-12.16 -1.22,-4.67 -2.8,-9.16 -4.75,-13.44 -2,-4.42 -4.63,-8.4 -7.84,-11.93 -3.2,-3.53 -7,-6.61 -11.39,-9.24 -4.41,-2.65 -9.7,-4.63 -15.86,-5.94 -6.07,-1.29 -12.98,-1.94 -20.73,-1.94 h -41.45 c -6.96,0 -12.81,0.42 -17.56,1.24 -4.93,0.85 -8.74,2.2 -11.4,3.98 -5.45,3.69 -8.19,12.52 -8.19,26.47 v 211.77 c 0,5.37 0.26,10.06 0.77,14.05 0.52,4.05 1.33,7.37 2.4,9.93 1.11,2.67 2.62,4.91 4.51,6.72 1.9,1.81 4.18,3.16 6.81,4.03 2.43,0.82 5.32,1.46 8.66,1.94 2.6,0.37 5.52,0.65 8.73,0.82 v 5.52 H 4104.02 V 4349 c 5.11,-0.17 9.67,-0.46 13.64,-0.85 4.69,-0.47 8.62,-1.1 11.76,-1.88 3.36,-0.84 6.23,-2.15 8.58,-3.9 2.41,-1.8 4.29,-4.07 5.61,-6.8 1.25,-2.57 2.19,-5.93 2.79,-10.01 0.58,-3.97 0.88,-8.67 0.88,-14.09 V 4099.7 c 0,-5.22 -0.26,-9.81 -0.77,-13.76 -0.52,-4.03 -1.32,-7.36 -2.37,-9.97 -1.12,-2.74 -2.63,-5.04 -4.5,-6.88 -1.92,-1.88 -4.2,-3.25 -6.84,-4.13 -2.43,-0.81 -5.32,-1.45 -8.65,-1.93 -2.6,-0.37 -5.52,-0.65 -8.74,-0.82 z m 276.63,0 v -5.52 h 231.43 l 3.38,65.97 h -5.54 c -0.49,-4.19 -1.28,-8.26 -2.33,-12.18 -1.25,-4.65 -2.91,-9.15 -4.94,-13.46 -2.08,-4.41 -4.78,-8.39 -8.07,-11.92 -3.27,-3.51 -7.14,-6.59 -11.61,-9.21 -4.47,-2.66 -9.78,-4.63 -15.9,-5.94 -6.02,-1.29 -12.85,-1.94 -20.45,-1.94 h -63.3 c -6.96,0 -12.82,0.42 -17.56,1.24 -4.94,0.85 -8.76,2.2 -11.41,3.98 -5.45,3.69 -8.19,12.52 -8.19,26.47 v 94.27 c 0,4.2 0.46,7.75 1.37,10.66 0.99,3.13 2.52,5.55 4.58,7.24 3.81,3.12 10.12,4.68 18.91,4.68 h 63.3 c 5.53,0 10.24,-0.55 14.12,-1.64 4.08,-1.15 7.28,-2.92 9.57,-5.29 2.27,-2.37 4,-5.84 5.18,-10.41 0.96,-3.76 1.57,-8.31 1.81,-13.64 h 5.5 v 72.36 h -5.56 c -0.78,-9.45 -3.55,-16.71 -8.28,-21.75 -5.2,-5.54 -12.66,-8.31 -22.34,-8.31 h -64.21 c -2.41,0 -4.61,-0.08 -6.6,-0.22 -2,-0.14 -3.84,-0.36 -5.5,-0.65 -1.58,-0.28 -3.02,-0.69 -4.31,-1.21 -1.26,-0.52 -2.43,-1.18 -3.47,-1.96 l -4.07,-3.06 v 90.7 c 0,6.84 0.47,12.41 1.37,16.7 0.99,4.65 2.58,7.92 4.76,9.81 2.01,1.75 4.43,3.06 7.23,3.92 2.72,0.84 5.8,1.26 9.22,1.26 h 52.38 c 7.27,0 13.68,-0.49 19.22,-1.47 5.64,-0.99 10.41,-2.5 14.28,-4.51 7.87,-4.1 13.28,-10.02 16.23,-17.74 1.41,-3.67 2.52,-7.73 3.31,-12.13 0.65,-3.62 1.09,-7.47 1.3,-11.52 h 5.51 v 58.69 H 4380.65 V 4349 c 5.12,-0.17 9.67,-0.46 13.64,-0.85 4.69,-0.47 8.62,-1.1 11.76,-1.88 3.36,-0.84 6.23,-2.15 8.58,-3.9 2.42,-1.8 4.29,-4.07 5.61,-6.8 1.25,-2.57 2.19,-5.93 2.8,-10.01 0.58,-3.97 0.87,-8.67 0.87,-14.09 V 4099.7 c 0,-5.22 -0.26,-9.81 -0.77,-13.76 -0.52,-4.03 -1.32,-7.36 -2.37,-9.97 -1.11,-2.74 -2.63,-5.04 -4.5,-6.88 -1.92,-1.88 -4.2,-3.25 -6.84,-4.13 -2.43,-0.81 -5.32,-1.45 -8.65,-1.93 -2.6,-0.37 -5.52,-0.65 -8.74,-0.82" /><path
         id="path18"
         style="fill:#897257;fill-opacity:1;fill-rule:nonzero;stroke:none"
         d="m 5015.82,4061.98 c 1.23,-3.02 2.38,-6 3.43,-8.94 h 14.94 c 0.8,2.94 1.7,5.89 2.67,8.8 1.21,3.62 2.54,7.23 3.98,10.79 l 12.07,29.84 84.03,198.33 h 5 l 8.75,-200.96 c 0.31,-5.28 0.33,-9.86 0.06,-13.75 -0.28,-4.03 -0.87,-7.36 -1.78,-9.98 -0.95,-2.77 -2.3,-5.08 -4.04,-6.91 -1.77,-1.87 -3.94,-3.21 -6.47,-4.02 -2.24,-0.72 -4.87,-1.35 -7.86,-1.86 -2.33,-0.39 -4.9,-0.73 -7.68,-1.01 v -5.62 h 100.59 v 5.56 c -4.07,0.29 -7.8,0.64 -11.15,1.06 -4.01,0.51 -7.47,1.12 -10.36,1.82 -3.18,0.77 -5.89,2.06 -8.11,3.84 -2.25,1.81 -4.01,4.14 -5.23,6.94 -1.14,2.6 -2.07,5.91 -2.78,9.91 -0.71,3.91 -1.23,8.49 -1.53,13.73 l -9.56,211.82 c -0.15,5.43 -0.06,10.11 0.3,14.04 0.36,4.06 0.98,7.38 1.88,9.91 0.97,2.72 2.43,5.01 4.35,6.85 1.92,1.82 4.3,3.19 7.09,4.06 2.54,0.79 5.57,1.43 9.08,1.91 2.74,0.37 5.81,0.65 9.17,0.82 v 5.52 h -67.51 l -2.85,-9.54 c -1.14,-3.64 -2.39,-7.41 -3.73,-11.29 -1.32,-3.79 -2.72,-7.61 -4.19,-11.42 -1.46,-3.78 -3.04,-7.69 -4.75,-11.73 l -85.36,-203.78 h -4.23 l -92.67,203.7 c -3.93,8.47 -7.37,16.26 -10.28,23.32 -1.48,3.59 -2.9,7.25 -4.2,10.93 -1.12,3.12 -2.22,6.39 -3.3,9.81 h -73.02 v -5.49 c 4.83,-0.16 9.12,-0.45 12.85,-0.84 4.47,-0.47 8.21,-1.1 11.22,-1.9 3.24,-0.85 5.97,-2.17 8.17,-3.94 2.27,-1.83 3.99,-4.11 5.14,-6.86 1.07,-2.57 1.8,-5.93 2.16,-10.04 0.36,-3.96 0.38,-8.66 0.08,-14.07 l -10.48,-211.76 c -0.16,-5.83 -0.9,-10.98 -2.2,-15.4 -1.35,-4.57 -3.31,-8.44 -5.88,-11.58 -2.63,-3.23 -6.24,-5.74 -10.78,-7.49 -3.81,-1.47 -8.31,-2.42 -13.46,-2.85 v -5.57 h 91.93 v 5.51 c -8.36,0.39 -15.37,1.33 -21,2.83 -6.46,1.71 -11.23,4.19 -14.28,7.42 -3,3.17 -5.22,7.09 -6.62,11.7 -1.37,4.51 -1.97,9.72 -1.81,15.6 l 9.22,197.86 h 4.96 l 87.65,-195.06 13.65,-29.8 c 1.74,-3.7 3.32,-7.3 4.73,-10.77 z m 498.11,22.94 c -1.79,3.91 -3.61,8.56 -5.45,13.95 l -74.24,221.36 -4.36,11.68 -4.06,11.54 c -1.27,3.75 -2.52,7.61 -3.73,11.58 l -2.86,9.92 h -18.45 c -0.93,-3.37 -1.91,-6.68 -2.93,-9.94 -1.2,-3.8 -2.5,-7.67 -3.91,-11.6 l -4.23,-11.52 -4.44,-11.72 -80.6,-221.34 c -2.16,-5.88 -4.53,-11.05 -7.08,-15.48 -2.58,-4.49 -5.36,-8.22 -8.3,-11.17 -3.07,-3.06 -6.67,-5.43 -10.81,-7.11 -3.44,-1.4 -7.26,-2.32 -11.45,-2.77 v -5.61 h 89.19 v 5.5 c -8.78,0.38 -15.95,1.31 -21.5,2.78 -6.45,1.7 -10.89,4.21 -13.29,7.5 -2.36,3.23 -3.58,7.29 -3.62,12.12 -0.04,4.57 0.97,9.89 3.03,15.91 l 21.41,60.16 c 1.3,3.56 2.75,6.47 4.31,8.69 1.7,2.42 3.61,4.12 5.69,5.07 1.89,0.85 4.21,1.49 6.94,1.9 2.63,0.4 5.69,0.6 9.13,0.6 h 59.67 c 1.64,0 3.22,0.06 4.72,0.17 1.51,0.1 3.02,0.27 4.47,0.48 2.48,0.38 4.28,1.13 5.41,2.26 l 2.91,2.9 27.26,-82.25 c 3.75,-10.36 5.31,-18.18 4.65,-23.41 -0.36,-2.94 -1.43,-5.42 -3.16,-7.4 -1.74,-1.95 -4.09,-3.38 -7.04,-4.28 -2.64,-0.79 -5.94,-1.47 -9.9,-2.02 -3.29,-0.45 -7.06,-0.83 -11.3,-1.12 v -5.56 h 103.78 v 5.61 c -3.05,0.27 -5.89,0.62 -8.5,1.02 -3.27,0.51 -6.15,1.13 -8.57,1.84 -2.65,0.77 -5.11,2.01 -7.37,3.71 -2.22,1.67 -4.24,3.8 -6.06,6.36 -1.75,2.48 -3.56,5.72 -5.36,9.69 z m -79.54,103.78 c -1.53,-0.3 -3.37,-0.45 -5.49,-0.45 l -64.82,-0.05 -3.32,-0.17 c -0.96,-0.07 -1.85,-0.19 -2.62,-0.35 -0.75,-0.16 -1.45,-0.36 -2.08,-0.61 l -5.24,-2.1 c 15.4,42.56 30.79,85.14 46.25,127.67 h 4.5 l 37.89,-112.3 c 0.87,-2.11 1.31,-3.91 1.31,-5.4 0,-2.05 -0.74,-3.6 -2.22,-4.64 -1.06,-0.74 -2.45,-1.27 -4.16,-1.6 z m 421.33,-126.18 c 2.23,-3.16 4.4,-6.32 6.48,-9.48 h 12.43 l -0.61,22.24 c -0.16,8.08 -0.24,16.23 -0.24,24.42 v 211.77 c 0,5.83 0.6,10.99 1.8,15.46 1.23,4.58 3.1,8.46 5.59,11.62 2.57,3.25 6.17,5.76 10.76,7.52 3.84,1.46 8.42,2.41 13.73,2.84 v 5.57 h -91.02 v -5.52 c 8.07,-0.38 14.88,-1.33 20.37,-2.82 6.33,-1.71 11.07,-4.19 14.2,-7.39 3.09,-3.18 5.4,-7.08 6.92,-11.69 1.49,-4.5 2.23,-9.7 2.23,-15.59 v -188.81 h -4.56 l -168.81,188.93 c -3.24,3.55 -6.33,7.12 -9.26,10.69 -2.87,3.51 -5.69,7.15 -8.44,10.93 -2.73,3.75 -5.34,7.48 -7.77,11.16 -2.22,3.34 -4.36,6.71 -6.42,10.11 h -57.98 v -5.53 c 6.75,-0.4 12.69,-1.31 17.77,-2.7 5.85,-1.61 10.62,-3.9 14.3,-6.84 3.77,-3.02 6.59,-6.91 8.46,-11.64 1.83,-4.62 2.74,-10.06 2.74,-16.3 V 4099.7 c 0,-5.81 -0.59,-10.96 -1.75,-15.44 -1.18,-4.58 -2.99,-8.46 -5.39,-11.61 -2.48,-3.26 -6.07,-5.79 -10.73,-7.55 -3.89,-1.47 -8.57,-2.42 -14.01,-2.85 v -5.56 h 91.02 v 5.51 c -8.07,0.39 -14.87,1.34 -20.38,2.83 -6.33,1.7 -11.06,4.18 -14.19,7.4 -3.09,3.16 -5.4,7.07 -6.92,11.67 -1.49,4.51 -2.23,9.7 -2.23,15.6 v 188.8 h 4.58 l 166.97,-188.93 c 4.6,-5.04 8.84,-9.83 12.69,-14.35 3.75,-4.39 7,-8.4 9.77,-12 2.72,-3.56 5.37,-7.14 7.9,-10.7 z m 124.43,-0.31 v -5.52 h 108.33 v 5.48 c -4.98,0.17 -9.42,0.46 -13.31,0.85 -4.61,0.47 -8.5,1.1 -11.64,1.88 -3.37,0.85 -6.25,2.17 -8.61,3.98 -2.4,1.84 -4.28,4.17 -5.58,6.98 -1.25,2.65 -2.19,6 -2.79,10.03 -0.59,3.92 -0.89,8.53 -0.89,13.81 v 100.19 c 0,4.21 0.46,7.77 1.38,10.67 0.99,3.13 2.51,5.55 4.57,7.23 1.98,1.61 4.6,2.82 7.85,3.58 3.08,0.73 6.77,1.1 11.06,1.1 h 120.23 c 2.25,0 4.36,0.07 6.32,0.22 1.97,0.14 3.84,0.36 5.57,0.65 1.6,0.26 3.07,0.7 4.38,1.28 1.29,0.59 2.46,1.34 3.48,2.22 l 4.2,3.68 V 4099.7 c 0,-5.25 -0.24,-9.84 -0.7,-13.74 -0.48,-3.98 -1.22,-7.29 -2.2,-9.92 -1.04,-2.78 -2.52,-5.1 -4.41,-6.95 -1.91,-1.88 -4.25,-3.26 -6.98,-4.14 -2.49,-0.8 -5.43,-1.44 -8.8,-1.92 -2.63,-0.37 -5.57,-0.65 -8.79,-0.82 v -5.52 h 108.33 v 5.48 c -4.98,0.17 -9.45,0.46 -13.36,0.85 -4.62,0.47 -8.57,1.1 -11.8,1.88 -3.46,0.85 -6.38,2.17 -8.74,3.98 -2.43,1.85 -4.27,4.2 -5.51,7.03 -1.15,2.64 -2.02,5.98 -2.58,10.01 -0.55,3.94 -0.83,8.53 -0.83,13.78 v 211.77 c 0,5.37 0.27,10.06 0.78,14.05 0.51,4.05 1.32,7.37 2.39,9.93 1.12,2.68 2.64,4.92 4.52,6.72 1.89,1.81 4.17,3.16 6.81,4.03 2.42,0.82 5.31,1.46 8.65,1.94 2.6,0.37 5.52,0.65 8.74,0.82 v 5.52 H 6171.43 V 4349 c 5.12,-0.17 9.67,-0.46 13.64,-0.85 4.69,-0.47 8.62,-1.1 11.77,-1.88 3.35,-0.84 6.22,-2.15 8.57,-3.9 2.43,-1.8 4.3,-4.07 5.61,-6.8 1.25,-2.57 2.19,-5.93 2.79,-10.01 0.58,-3.97 0.89,-8.67 0.89,-14.09 v -54.65 c 0,-4.33 -0.46,-8 -1.38,-10.98 -0.97,-3.23 -2.51,-5.7 -4.57,-7.38 -1.96,-1.6 -4.59,-2.8 -7.85,-3.58 -3.08,-0.73 -6.77,-1.09 -11.05,-1.09 h -120.24 c -2.4,0 -4.6,-0.08 -6.59,-0.22 -2,-0.14 -3.84,-0.36 -5.51,-0.65 -1.58,-0.27 -3.02,-0.69 -4.31,-1.21 -1.26,-0.51 -2.43,-1.17 -3.47,-1.96 l -4.07,-3.06 v 84.78 c 0,5.37 0.27,10.06 0.77,14.05 0.52,4.05 1.33,7.37 2.41,9.93 1.1,2.67 2.62,4.91 4.51,6.72 1.9,1.81 4.17,3.16 6.8,4.03 2.43,0.82 5.33,1.46 8.66,1.94 2.6,0.37 5.52,0.65 8.74,0.82 v 5.52 H 5968.76 V 4349 c 5.12,-0.17 9.67,-0.46 13.64,-0.85 4.69,-0.47 8.62,-1.1 11.76,-1.88 3.36,-0.84 6.23,-2.15 8.58,-3.9 2.42,-1.8 4.3,-4.07 5.62,-6.8 1.24,-2.57 2.18,-5.93 2.78,-10.01 0.59,-3.97 0.89,-8.67 0.89,-14.09 V 4099.7 c 0,-5.25 -0.24,-9.84 -0.7,-13.74 -0.48,-3.98 -1.22,-7.29 -2.2,-9.92 -1.04,-2.78 -2.52,-5.1 -4.41,-6.95 -1.91,-1.88 -4.24,-3.26 -6.98,-4.14 -2.49,-0.8 -5.43,-1.44 -8.8,-1.92 -2.64,-0.37 -5.57,-0.65 -8.79,-0.82 z m 385.03,0 v -5.52 h 231.43 l 3.38,65.97 h -5.54 c -0.5,-4.19 -1.28,-8.26 -2.33,-12.18 -1.25,-4.65 -2.91,-9.15 -4.94,-13.46 -2.09,-4.41 -4.78,-8.39 -8.07,-11.92 -3.27,-3.51 -7.15,-6.59 -11.61,-9.21 -4.48,-2.66 -9.78,-4.63 -15.9,-5.94 -6.03,-1.29 -12.86,-1.94 -20.45,-1.94 h -63.31 c -6.96,0 -12.81,0.42 -17.56,1.24 -4.93,0.85 -8.74,2.2 -11.4,3.98 -5.45,3.69 -8.19,12.52 -8.19,26.47 v 94.27 c 0,4.2 0.46,7.75 1.37,10.66 0.98,3.13 2.52,5.55 4.58,7.24 3.8,3.12 10.11,4.68 18.91,4.68 h 63.3 c 5.53,0 10.24,-0.55 14.12,-1.64 4.07,-1.15 7.28,-2.92 9.57,-5.29 2.27,-2.37 4,-5.84 5.17,-10.41 0.97,-3.76 1.58,-8.31 1.82,-13.64 h 5.5 v 72.36 h -5.57 c -0.78,-9.45 -3.54,-16.71 -8.27,-21.75 -5.21,-5.54 -12.66,-8.31 -22.34,-8.31 h -64.21 c -2.41,0 -4.61,-0.08 -6.6,-0.22 -2,-0.14 -3.84,-0.36 -5.5,-0.65 -1.58,-0.28 -3.02,-0.69 -4.31,-1.21 -1.26,-0.52 -2.43,-1.18 -3.47,-1.96 l -4.07,-3.06 v 90.7 c 0,6.84 0.46,12.41 1.37,16.7 0.99,4.65 2.58,7.92 4.75,9.81 2.01,1.75 4.43,3.06 7.24,3.92 2.72,0.84 5.79,1.26 9.22,1.26 h 52.37 c 7.27,0 13.69,-0.49 19.23,-1.47 5.64,-0.99 10.41,-2.5 14.28,-4.51 7.86,-4.1 13.28,-10.02 16.23,-17.74 1.4,-3.67 2.51,-7.73 3.31,-12.13 0.65,-3.62 1.08,-7.47 1.3,-11.52 h 5.51 v 58.69 H 6353.79 V 4349 c 5.11,-0.17 9.67,-0.46 13.64,-0.85 4.69,-0.47 8.62,-1.1 11.76,-1.88 3.35,-0.84 6.22,-2.15 8.58,-3.9 2.41,-1.8 4.29,-4.07 5.61,-6.8 1.25,-2.57 2.19,-5.93 2.79,-10.01 0.58,-3.97 0.88,-8.67 0.88,-14.09 V 4099.7 c 0,-5.22 -0.26,-9.81 -0.77,-13.76 -0.52,-4.03 -1.32,-7.36 -2.37,-9.97 -1.12,-2.74 -2.62,-5.04 -4.5,-6.88 -1.92,-1.88 -4.21,-3.25 -6.85,-4.13 -2.42,-0.81 -5.31,-1.45 -8.64,-1.93 -2.6,-0.37 -5.53,-0.65 -8.74,-0.82 z m 293.02,1.52 v -7.04 h 222.33 l 3.38,65.97 h -5.49 c -0.39,-3.72 -1.08,-7.36 -2.05,-10.89 -1.19,-4.28 -2.81,-8.39 -4.86,-12.33 -2.09,-4.03 -4.82,-7.69 -8.17,-10.95 -3.3,-3.23 -7.23,-6.08 -11.77,-8.55 -4.52,-2.46 -9.89,-4.39 -16.09,-5.77 -6.12,-1.35 -13.05,-2.2 -20.76,-2.51 l -110.58,-3.73 v 4.23 l 156.14,252.02 c 2.37,3.88 4.9,7.86 7.55,11.91 l 4.09,5.98 3.92,5.32 v 7.09 H 6674.6 v -65.98 h 5.64 c 0.43,4.26 0.98,8.27 1.62,12.02 0.77,4.46 1.7,8.66 2.8,12.55 1.14,4.08 2.84,7.74 5.07,10.95 2.25,3.23 5.07,6.05 8.43,8.43 3.35,2.36 7.49,4.18 12.39,5.44 4.78,1.22 10.3,1.92 16.54,2.07 l 102.81,3.27 V 4339 l -155.69,-252.02 -3.78,-6.02 -4,-6.12 c -1.41,-2.12 -2.84,-4.15 -4.29,-6.08 z m 300.78,-1.52 v -5.52 h 231.43 l 3.38,65.97 h -5.54 c -0.5,-4.19 -1.28,-8.26 -2.33,-12.18 -1.25,-4.65 -2.91,-9.15 -4.94,-13.46 -2.09,-4.41 -4.78,-8.39 -8.07,-11.92 -3.27,-3.51 -7.14,-6.59 -11.61,-9.21 -4.48,-2.66 -9.78,-4.63 -15.9,-5.94 -6.03,-1.29 -12.86,-1.94 -20.45,-1.94 h -63.31 c -6.96,0 -12.82,0.42 -17.56,1.24 -4.93,0.85 -8.75,2.2 -11.4,3.98 -5.45,3.69 -8.19,12.52 -8.19,26.47 v 94.27 c 0,4.2 0.46,7.75 1.37,10.66 0.98,3.13 2.52,5.55 4.58,7.24 3.8,3.12 10.11,4.68 18.9,4.68 h 63.31 c 5.53,0 10.24,-0.55 14.12,-1.64 4.07,-1.15 7.28,-2.92 9.56,-5.29 2.28,-2.37 4.01,-5.84 5.19,-10.41 0.95,-3.76 1.57,-8.31 1.81,-13.64 h 5.49 v 72.36 h -5.55 c -0.79,-9.45 -3.55,-16.71 -8.28,-21.75 -5.21,-5.54 -12.66,-8.31 -22.34,-8.31 h -64.22 c -2.4,0 -4.6,-0.08 -6.59,-0.22 -2,-0.14 -3.84,-0.36 -5.5,-0.65 -1.58,-0.28 -3.03,-0.69 -4.31,-1.21 -1.26,-0.52 -2.44,-1.18 -3.48,-1.96 l -4.06,-3.06 v 90.7 c 0,6.84 0.46,12.41 1.37,16.7 0.99,4.65 2.58,7.92 4.76,9.81 2,1.75 4.42,3.06 7.23,3.92 2.72,0.84 5.8,1.26 9.22,1.26 h 52.38 c 7.26,0 13.68,-0.49 19.22,-1.47 5.63,-0.99 10.41,-2.5 14.28,-4.51 7.86,-4.1 13.27,-10.02 16.23,-17.74 1.4,-3.67 2.52,-7.73 3.3,-12.13 0.65,-3.62 1.09,-7.47 1.31,-11.52 h 5.51 v 58.69 H 6947.59 V 4349 c 5.11,-0.17 9.67,-0.46 13.64,-0.85 4.69,-0.47 8.62,-1.1 11.76,-1.88 3.35,-0.84 6.23,-2.15 8.58,-3.9 2.41,-1.8 4.29,-4.07 5.61,-6.8 1.25,-2.57 2.19,-5.93 2.79,-10.01 0.58,-3.97 0.88,-8.67 0.88,-14.09 V 4099.7 c 0,-5.22 -0.26,-9.81 -0.77,-13.76 -0.52,-4.03 -1.32,-7.36 -2.38,-9.97 -1.11,-2.74 -2.62,-5.04 -4.49,-6.88 -1.92,-1.88 -4.21,-3.25 -6.85,-4.13 -2.42,-0.81 -5.31,-1.45 -8.64,-1.93 -2.61,-0.37 -5.53,-0.65 -8.74,-0.82" /><path
         id="path20"
         style="fill:#897257;fill-opacity:1;fill-rule:nonzero;stroke:none"
         d="m 2581.4,4493.77 h 30.5 c 7.83,0 15.1,1.34 21.79,4.06 6.69,2.72 12.57,6.53 17.58,11.44 5.05,4.91 8.95,10.66 11.7,17.25 2.8,6.55 4.17,13.71 4.17,21.41 0,7.78 -1.37,14.93 -4.17,21.52 -2.75,6.59 -6.65,12.35 -11.7,17.25 -5.01,4.92 -10.89,8.75 -17.58,11.47 -6.69,2.72 -13.96,4.07 -21.79,4.07 h -30.5 z m -18.12,-16.38 v 141.23 h 48.04 c 10.73,0 20.59,-1.75 29.6,-5.28 9.01,-3.5 16.85,-8.45 23.54,-14.77 6.65,-6.35 11.86,-13.81 15.59,-22.42 3.71,-8.61 5.55,-18.02 5.55,-28.22 0,-10.15 -1.81,-19.53 -5.48,-28.11 -3.66,-8.61 -8.81,-16.07 -15.49,-22.39 -6.66,-6.32 -14.57,-11.26 -23.61,-14.76 -9.08,-3.53 -18.97,-5.28 -29.7,-5.28 z m 167.62,0 v 141.23 h 62.1 c 9.35,0 17.49,-1.72 24.41,-5.15 6.97,-3.43 12.38,-8.2 16.28,-14.36 3.9,-6.15 5.82,-13.38 5.82,-21.65 0,-9.22 -2.66,-17.18 -8.04,-23.91 -5.38,-6.69 -12.54,-11.43 -21.52,-14.26 l 31.57,-61.9 h -20.11 l -29.75,59.45 h -42.64 v -59.45 z m 18.12,74.65 h 42.67 c 8.98,0 16.17,2.28 21.55,6.86 5.38,4.6 8.07,10.76 8.07,18.49 0,7.6 -2.69,13.68 -8.07,18.3 -5.38,4.57 -12.57,6.85 -21.55,6.85 h -42.67 z m 122.49,-74.65 58.45,141.23 h 21.62 l 57.93,-141.23 h -19.74 l -17.08,42.97 h -65.03 l -17.28,-42.97 z m 42.31,58.24 h 52.75 l -26.36,65.94 z m 145.12,-59.58 c -3.13,0 -5.81,1.11 -8.07,3.36 -2.25,2.25 -3.36,4.94 -3.36,8.07 0,3.13 1.11,5.82 3.36,8.07 2.22,2.25 4.91,3.4 8.07,3.4 3.13,0 5.82,-1.15 8.07,-3.4 2.26,-2.22 3.37,-4.91 3.37,-8.07 0,-3.13 -1.11,-5.82 -3.37,-8.07 -2.22,-2.25 -4.91,-3.36 -8.07,-3.36" /><path
         id="path22"
         style="fill:#73061b;fill-opacity:1;fill-rule:nonzero;stroke:none"
         d="m 2753.7,3757.35 58.44,141.23 h 21.62 l 57.94,-141.23 h -19.74 l -17.08,42.97 h -65.04 l -17.28,-42.97 z m 42.3,58.24 h 52.76 l -26.37,65.94 z m 151.04,-41.87 h 30.5 c 7.84,0 15.1,1.35 21.8,4.07 6.68,2.73 12.57,6.53 17.58,11.44 5.04,4.9 8.94,10.66 11.7,17.25 2.79,6.56 4.17,13.72 4.17,21.42 0,7.76 -1.38,14.93 -4.17,21.52 -2.76,6.59 -6.66,12.34 -11.7,17.24 -5.01,4.91 -10.9,8.75 -17.58,11.48 -6.7,2.72 -13.96,4.06 -21.8,4.06 h -30.5 z m -18.12,-16.37 v 141.23 h 48.05 c 10.73,0 20.58,-1.75 29.59,-5.28 9.01,-3.5 16.85,-8.44 23.54,-14.76 6.65,-6.36 11.87,-13.83 15.6,-22.43 3.7,-8.61 5.55,-18.02 5.55,-28.21 0,-10.16 -1.82,-19.54 -5.48,-28.11 -3.67,-8.61 -8.81,-16.08 -15.5,-22.4 -6.66,-6.32 -14.56,-11.26 -23.61,-14.76 -9.08,-3.53 -18.96,-5.28 -29.69,-5.28 z m 203.7,0 -57.8,141.23 h 19.57 l 49.57,-123.78 50.37,123.78 h 18.49 l -58.58,-141.23 z m 176.97,-2.22 c -10.29,0 -19.83,1.85 -28.71,5.55 -8.84,3.7 -16.61,8.87 -23.3,15.53 -6.7,6.66 -11.9,14.4 -15.61,23.2 -3.73,8.81 -5.58,18.33 -5.58,28.55 0,10.22 1.85,19.74 5.58,28.55 3.71,8.81 8.91,16.54 15.61,23.2 6.69,6.66 14.46,11.84 23.3,15.54 8.88,3.7 18.42,5.55 28.71,5.55 10.16,0 19.68,-1.85 28.52,-5.55 8.84,-3.7 16.61,-8.88 23.3,-15.54 6.7,-6.66 11.91,-14.39 15.61,-23.2 3.73,-8.81 5.57,-18.33 5.57,-28.55 0,-10.22 -1.84,-19.74 -5.57,-28.55 -3.7,-8.8 -8.91,-16.54 -15.61,-23.2 -6.69,-6.66 -14.46,-11.83 -23.3,-15.53 -8.84,-3.7 -18.36,-5.55 -28.52,-5.55 z m 0,16.71 c 7.73,0 14.9,1.41 21.49,4.27 6.59,2.83 12.35,6.8 17.31,11.87 4.95,5.08 8.82,11.07 11.61,17.89 2.76,6.86 4.13,14.22 4.13,22.09 0,8 -1.37,15.4 -4.13,22.19 -2.79,6.76 -6.66,12.71 -11.61,17.8 -4.96,5.07 -10.72,9.04 -17.31,11.86 -6.59,2.86 -13.76,4.28 -21.49,4.28 -7.77,0 -14.93,-1.42 -21.58,-4.28 -6.66,-2.82 -12.45,-6.79 -17.42,-11.86 -4.95,-5.09 -8.81,-11.04 -11.57,-17.8 -2.79,-6.79 -4.17,-14.19 -4.17,-22.19 0,-7.87 1.38,-15.23 4.17,-22.09 2.76,-6.82 6.62,-12.81 11.57,-17.89 4.97,-5.07 10.76,-9.04 17.42,-11.87 6.65,-2.86 13.85,-4.27 21.58,-4.27 z m 185.45,-16.68 c -10.33,0 -19.91,1.85 -28.85,5.55 -8.92,3.7 -16.75,8.88 -23.51,15.5 -6.72,6.66 -11.97,14.4 -15.67,23.2 -3.73,8.81 -5.58,18.33 -5.58,28.55 0,10.26 1.85,19.77 5.58,28.58 3.7,8.82 8.95,16.55 15.7,23.17 6.76,6.66 14.6,11.84 23.51,15.54 8.91,3.7 18.53,5.55 28.82,5.55 7.43,0 14.62,-0.94 21.52,-2.83 6.89,-1.88 13.28,-4.57 19.2,-8.11 5.95,-3.52 11.16,-7.79 15.7,-12.87 l -12.07,-12.54 c -5.44,6.32 -12.07,11.16 -19.87,14.55 -7.8,3.4 -15.97,5.09 -24.48,5.09 -7.87,0 -15.17,-1.42 -21.86,-4.28 -6.72,-2.82 -12.54,-6.79 -17.52,-11.86 -4.98,-5.09 -8.84,-11.04 -11.6,-17.8 -2.79,-6.79 -4.17,-14.19 -4.17,-22.19 0,-7.87 1.38,-15.23 4.17,-22.06 2.8,-6.82 6.69,-12.77 11.74,-17.88 5.01,-5.08 10.93,-9.05 17.72,-11.87 6.79,-2.83 14.12,-4.24 22.02,-4.24 8.48,0 16.54,1.68 24.22,5.04 7.63,3.36 14.12,8.04 19.4,14.06 l 11.8,-12.11 c -4.64,-4.94 -9.92,-9.18 -15.84,-12.77 -5.92,-3.57 -12.28,-6.29 -19.1,-8.17 -6.82,-1.85 -13.82,-2.8 -20.98,-2.8 z m 85.51,2.19 58.44,141.23 h 21.62 l 57.94,-141.23 h -19.74 l -17.08,42.97 h -65.03 l -17.29,-42.97 z m 42.3,58.24 h 52.76 l -26.36,65.94 z m 192.88,-60.43 c -10.33,0 -19.91,1.85 -28.85,5.55 -8.92,3.7 -16.75,8.88 -23.5,15.5 -6.73,6.66 -11.98,14.4 -15.68,23.2 -3.73,8.81 -5.58,18.33 -5.58,28.55 0,10.26 1.85,19.77 5.58,28.58 3.7,8.82 8.95,16.55 15.71,23.17 6.75,6.66 14.59,11.84 23.5,15.54 8.91,3.7 18.53,5.55 28.82,5.55 7.43,0 14.63,-0.94 21.52,-2.83 6.89,-1.88 13.28,-4.57 19.2,-8.11 5.95,-3.52 11.16,-7.79 15.7,-12.87 l -12.07,-12.54 c -5.45,6.32 -12.07,11.16 -19.88,14.55 -7.79,3.4 -15.96,5.09 -24.47,5.09 -7.87,0 -15.17,-1.42 -21.86,-4.28 -6.73,-2.82 -12.54,-6.79 -17.52,-11.86 -4.97,-5.09 -8.84,-11.04 -11.6,-17.8 -2.79,-6.79 -4.17,-14.19 -4.17,-22.19 0,-7.87 1.38,-15.23 4.17,-22.06 2.79,-6.82 6.69,-12.77 11.74,-17.88 5.01,-5.08 10.92,-9.05 17.72,-11.87 6.79,-2.83 14.12,-4.24 22.02,-4.24 8.47,0 16.54,1.68 24.22,5.04 7.63,3.36 14.12,8.04 19.4,14.06 l 11.8,-12.11 c -4.64,-4.94 -9.92,-9.18 -15.84,-12.77 -5.92,-3.57 -12.28,-6.29 -19.1,-8.17 -6.82,-1.85 -13.82,-2.8 -20.98,-2.8 z m 100.04,2.19 v 141.23 h 18.12 v -141.23 z m 55.34,0 58.44,141.23 h 21.63 l 57.93,-141.23 h -19.73 l -17.09,42.97 h -65.03 l -17.28,-42.97 z m 42.3,58.24 h 52.76 l -26.37,65.94 z m 197.46,-58.24 v 141.23 h 102.45 v -15.94 h -84.33 v -46.17 h 55.18 v -15.64 h -55.18 v -47.54 h 85.14 v -15.94 z m 197.07,0 58.45,141.23 h 21.62 l 57.94,-141.23 h -19.74 l -17.08,42.97 h -65.04 l -17.28,-42.97 z m 42.31,58.24 H 4503 l -26.36,65.94 z m 182.58,-60.26 c -11.2,0 -21.99,2.22 -32.35,6.69 -10.32,4.48 -19.47,10.86 -27.4,19.17 l 11.53,12.68 c 7.43,-7.7 15.23,-13.42 23.37,-17.22 8.14,-3.77 16.71,-5.65 25.72,-5.65 7.13,0 13.43,1.08 18.87,3.26 5.45,2.19 9.72,5.25 12.78,9.18 3.06,3.94 4.57,8.44 4.57,13.49 0,6.79 -2.35,12.03 -7.13,15.7 -4.77,3.63 -12.61,6.39 -23.57,8.17 l -21.86,3.53 c -13.28,2.26 -23.13,6.32 -29.55,12.24 -6.42,5.92 -9.62,13.86 -9.62,23.88 0,8 2.12,14.99 6.35,20.98 4.2,6.02 10.16,10.7 17.79,14.02 7.63,3.3 16.47,4.97 26.6,4.97 10.02,0 19.91,-1.64 29.65,-4.9 9.8,-3.3 18.6,-7.97 26.54,-14.06 l -10.19,-13.95 c -15.34,11.63 -30.94,17.45 -46.84,17.45 -6.46,0 -12.14,-0.98 -17.02,-2.89 -4.87,-1.96 -8.64,-4.64 -11.32,-8.07 -2.7,-3.47 -4.04,-7.5 -4.04,-12.14 0,-6.19 2.08,-10.9 6.29,-14.2 4.16,-3.25 11.09,-5.68 20.71,-7.22 l 21.42,-3.43 c 15.23,-2.49 26.33,-6.86 33.32,-13.08 7,-6.22 10.53,-14.83 10.53,-25.86 0,-8.37 -2.32,-15.8 -6.96,-22.26 -4.61,-6.46 -11.1,-11.5 -19.38,-15.1 -8.3,-3.59 -17.88,-5.38 -28.81,-5.38 z m 145.97,0 c -11.2,0 -21.99,2.22 -32.35,6.69 -10.32,4.48 -19.47,10.86 -27.4,19.17 l 11.53,12.68 c 7.43,-7.7 15.24,-13.42 23.37,-17.22 8.14,-3.77 16.71,-5.65 25.72,-5.65 7.13,0 13.42,1.08 18.87,3.26 5.44,2.19 9.72,5.25 12.78,9.18 3.06,3.94 4.57,8.44 4.57,13.49 0,6.79 -2.35,12.03 -7.13,15.7 -4.78,3.63 -12.61,6.39 -23.57,8.17 l -21.86,3.53 c -13.28,2.26 -23.13,6.32 -29.55,12.24 -6.42,5.92 -9.62,13.86 -9.62,23.88 0,8 2.12,14.99 6.35,20.98 4.2,6.02 10.16,10.7 17.79,14.02 7.63,3.3 16.47,4.97 26.6,4.97 10.02,0 19.9,-1.64 29.65,-4.9 9.79,-3.3 18.6,-7.97 26.54,-14.06 l -10.19,-13.95 c -15.34,11.63 -30.94,17.45 -46.84,17.45 -6.46,0 -12.14,-0.98 -17.02,-2.89 -4.87,-1.96 -8.64,-4.64 -11.33,-8.07 -2.69,-3.47 -4.03,-7.5 -4.03,-12.14 0,-6.19 2.08,-10.9 6.28,-14.2 4.18,-3.25 11.1,-5.68 20.72,-7.22 l 21.42,-3.43 c 15.23,-2.49 26.33,-6.86 33.32,-13.08 7,-6.22 10.53,-14.83 10.53,-25.86 0,-8.37 -2.32,-15.8 -6.97,-22.26 -4.6,-6.46 -11.09,-11.5 -19.36,-15.1 -8.31,-3.59 -17.89,-5.38 -28.82,-5.38 z m 97.31,2.02 v 141.23 h 102.46 v -15.94 h -84.33 v -46.17 h 55.17 v -15.64 h -55.17 v -47.54 h 85.14 v -15.94 z m 193.71,-2.02 c -11.19,0 -21.98,2.22 -32.34,6.69 -10.32,4.48 -19.47,10.86 -27.4,19.17 l 11.53,12.68 c 7.43,-7.7 15.23,-13.42 23.37,-17.22 8.14,-3.77 16.71,-5.65 25.72,-5.65 7.13,0 13.42,1.08 18.87,3.26 5.45,2.19 9.72,5.25 12.78,9.18 3.06,3.94 4.57,8.44 4.57,13.49 0,6.79 -2.35,12.03 -7.13,15.7 -4.77,3.63 -12.61,6.39 -23.58,8.17 l -21.85,3.53 c -13.28,2.26 -23.14,6.32 -29.56,12.24 -6.42,5.92 -9.61,13.86 -9.61,23.88 0,8 2.12,14.99 6.35,20.98 4.21,6.02 10.16,10.7 17.79,14.02 7.63,3.3 16.47,4.97 26.6,4.97 10.02,0 19.9,-1.64 29.66,-4.9 9.78,-3.3 18.59,-7.97 26.53,-14.06 l -10.19,-13.95 c -15.34,11.63 -30.93,17.45 -46.84,17.45 -6.46,0 -12.14,-0.98 -17.02,-2.89 -4.87,-1.96 -8.64,-4.64 -11.33,-8.07 -2.69,-3.47 -4.03,-7.5 -4.03,-12.14 0,-6.19 2.08,-10.9 6.29,-14.2 4.16,-3.25 11.09,-5.68 20.71,-7.22 l 21.42,-3.43 c 15.23,-2.49 26.33,-6.86 33.32,-13.08 7,-6.22 10.53,-14.83 10.53,-25.86 0,-8.37 -2.32,-15.8 -6.97,-22.26 -4.6,-6.46 -11.09,-11.5 -19.37,-15.1 -8.3,-3.59 -17.88,-5.38 -28.82,-5.38 z m 145.98,0 c -11.2,0 -21.99,2.22 -32.35,6.69 -10.32,4.48 -19.47,10.86 -27.4,19.17 l 11.53,12.68 c 7.43,-7.7 15.23,-13.42 23.37,-17.22 8.14,-3.77 16.71,-5.65 25.72,-5.65 7.13,0 13.42,1.08 18.87,3.26 5.44,2.19 9.71,5.25 12.78,9.18 3.06,3.94 4.57,8.44 4.57,13.49 0,6.79 -2.35,12.03 -7.13,15.7 -4.78,3.63 -12.61,6.39 -23.58,8.17 l -21.85,3.53 c -13.28,2.26 -23.13,6.32 -29.55,12.24 -6.43,5.92 -9.62,13.86 -9.62,23.88 0,8 2.12,14.99 6.35,20.98 4.2,6.02 10.16,10.7 17.79,14.02 7.63,3.3 16.48,4.97 26.6,4.97 10.02,0 19.9,-1.64 29.65,-4.9 9.79,-3.3 18.6,-7.97 26.54,-14.06 l -10.19,-13.95 c -15.34,11.63 -30.94,17.45 -46.85,17.45 -6.45,0 -12.13,-0.98 -17.01,-2.89 -4.87,-1.96 -8.64,-4.64 -11.33,-8.07 -2.69,-3.47 -4.03,-7.5 -4.03,-12.14 0,-6.19 2.08,-10.9 6.28,-14.2 4.18,-3.25 11.1,-5.68 20.72,-7.22 l 21.42,-3.43 c 15.23,-2.49 26.33,-6.86 33.32,-13.08 6.99,-6.22 10.53,-14.83 10.53,-25.86 0,-8.37 -2.32,-15.8 -6.97,-22.26 -4.6,-6.46 -11.09,-11.5 -19.37,-15.1 -8.3,-3.59 -17.88,-5.38 -28.81,-5.38 z m 164.06,-0.2 c -10.29,0 -19.84,1.85 -28.72,5.55 -8.84,3.7 -16.61,8.87 -23.3,15.53 -6.7,6.66 -11.91,14.4 -15.61,23.2 -3.73,8.81 -5.57,18.33 -5.57,28.55 0,10.22 1.84,19.74 5.57,28.55 3.7,8.81 8.91,16.54 15.61,23.2 6.69,6.66 14.46,11.84 23.3,15.54 8.88,3.7 18.43,5.55 28.72,5.55 10.15,0 19.67,-1.85 28.52,-5.55 8.83,-3.7 16.6,-8.88 23.29,-15.54 6.7,-6.66 11.91,-14.39 15.61,-23.2 3.73,-8.81 5.58,-18.33 5.58,-28.55 0,-10.22 -1.85,-19.74 -5.58,-28.55 -3.7,-8.8 -8.91,-16.54 -15.61,-23.2 -6.69,-6.66 -14.46,-11.83 -23.29,-15.53 -8.85,-3.7 -18.37,-5.55 -28.52,-5.55 z m 0,16.71 c 7.73,0 14.89,1.41 21.48,4.27 6.59,2.83 12.35,6.8 17.32,11.87 4.95,5.08 8.81,11.07 11.6,17.89 2.76,6.86 4.14,14.22 4.14,22.09 0,8 -1.38,15.4 -4.14,22.19 -2.79,6.76 -6.65,12.71 -11.6,17.8 -4.97,5.07 -10.73,9.04 -17.32,11.86 -6.59,2.86 -13.75,4.28 -21.48,4.28 -7.77,0 -14.93,-1.42 -21.59,-4.28 -6.66,-2.82 -12.44,-6.79 -17.42,-11.86 -4.94,-5.09 -8.8,-11.04 -11.56,-17.8 -2.8,-6.79 -4.18,-14.19 -4.18,-22.19 0,-7.87 1.38,-15.23 4.18,-22.09 2.76,-6.82 6.62,-12.81 11.56,-17.89 4.98,-5.07 10.76,-9.04 17.42,-11.87 6.66,-2.86 13.86,-4.27 21.59,-4.27 z m 118.29,-14.49 v 141.23 h 62.11 c 9.35,0 17.48,-1.72 24.41,-5.15 6.96,-3.43 12.37,-8.2 16.28,-14.36 3.89,-6.15 5.81,-13.38 5.81,-21.65 0,-9.21 -2.65,-17.19 -8.03,-23.91 -5.39,-6.69 -12.55,-11.43 -21.52,-14.25 l 31.57,-61.91 h -20.11 l -29.76,59.45 h -42.63 v -59.45 z m 18.13,74.65 h 42.67 c 8.98,0 16.17,2.29 21.55,6.86 5.38,4.6 8.07,10.76 8.07,18.49 0,7.6 -2.69,13.69 -8.07,18.29 -5.38,4.57 -12.57,6.87 -21.55,6.87 h -42.67 z m 135,-74.65 v 141.23 h 18.13 v -141.23 z m 55.35,0 58.44,141.23 h 21.62 l 57.94,-141.23 h -19.74 l -17.09,42.97 h -65.03 l -17.28,-42.97 z m 42.3,58.24 h 52.76 l -26.37,65.94 z m 238.2,-60.43 c -12.51,0 -23.3,3.23 -32.41,9.72 -9.11,6.46 -15.74,15.6 -19.94,27.41 l 16.58,6.69 c 3.49,-9.15 8.23,-15.98 14.25,-20.44 6.02,-4.48 13.25,-6.74 21.72,-6.74 11,0 19.81,3.58 26.37,10.7 6.55,7.13 9.85,16.71 9.85,28.72 v 87.36 h 18.16 v -87.67 c 0,-11.33 -2.25,-21.15 -6.69,-29.52 -4.48,-8.4 -10.8,-14.86 -18.93,-19.4 -8.14,-4.54 -17.8,-6.83 -28.96,-6.83 z m 159.92,0 c -12.1,0 -22.59,2.52 -31.44,7.6 -8.88,5.05 -15.7,12.24 -20.48,21.56 -4.77,9.31 -7.16,20.31 -7.16,32.98 v 81.28 h 18.13 v -81.28 c 0,-9.21 1.68,-17.21 5.04,-24.04 3.33,-6.79 8.11,-12.07 14.29,-15.77 6.22,-3.73 13.42,-5.58 21.66,-5.58 8.37,0 15.63,1.85 21.75,5.58 6.09,3.7 10.83,8.98 14.2,15.77 3.35,6.83 5.01,14.83 5.01,24.04 v 81.28 h 18.15 v -81.28 c 0,-12.64 -2.42,-23.64 -7.26,-32.95 -4.88,-9.32 -11.7,-16.51 -20.48,-21.59 -8.81,-5.08 -19.26,-7.6 -31.41,-7.6 z m 108.18,2.19 v 141.23 h 62.1 c 9.35,0 17.49,-1.72 24.42,-5.15 6.95,-3.43 12.37,-8.2 16.27,-14.36 3.9,-6.15 5.82,-13.38 5.82,-21.65 0,-9.21 -2.66,-17.19 -8.04,-23.91 -5.38,-6.69 -12.54,-11.43 -21.52,-14.25 l 31.58,-61.91 h -20.11 l -29.76,59.45 h -42.64 v -59.45 z m 18.12,74.65 h 42.67 c 8.98,0 16.18,2.29 21.56,6.86 5.38,4.6 8.06,10.76 8.06,18.49 0,7.6 -2.68,13.69 -8.06,18.29 -5.38,4.57 -12.58,6.87 -21.56,6.87 h -42.67 z m 134.9,-74.65 v 141.23 h 18.16 v -141.23 z m -4.23,160.6 18.76,24 h 21.59 l -25.62,-24 z m 92.33,-144.23 h 30.5 c 7.84,0 15.1,1.35 21.79,4.07 6.69,2.73 12.57,6.53 17.59,11.44 5.04,4.9 8.94,10.66 11.7,17.25 2.79,6.56 4.17,13.72 4.17,21.42 0,7.76 -1.38,14.93 -4.17,21.52 -2.76,6.59 -6.66,12.34 -11.7,17.24 -5.02,4.91 -10.9,8.75 -17.59,11.48 -6.69,2.72 -13.95,4.06 -21.79,4.06 h -30.5 z m -18.12,-16.37 v 141.23 h 48.05 c 10.73,0 20.58,-1.75 29.59,-5.28 9.01,-3.5 16.85,-8.44 23.54,-14.76 6.65,-6.36 11.87,-13.83 15.6,-22.43 3.7,-8.61 5.55,-18.02 5.55,-28.21 0,-10.16 -1.82,-19.54 -5.48,-28.11 -3.67,-8.61 -8.81,-16.08 -15.51,-22.4 -6.65,-6.32 -14.55,-11.26 -23.6,-14.76 -9.08,-3.53 -18.96,-5.28 -29.69,-5.28 z m 167.62,0 v 141.23 h 18.13 v -141.23 z m 137.03,-2.19 c -10.33,0 -19.91,1.85 -28.85,5.55 -8.92,3.7 -16.75,8.88 -23.51,15.5 -6.72,6.66 -11.97,14.4 -15.67,23.2 -3.73,8.81 -5.58,18.33 -5.58,28.55 0,10.26 1.85,19.77 5.58,28.58 3.7,8.82 8.95,16.55 15.71,23.17 6.75,6.66 14.59,11.84 23.5,15.54 8.91,3.7 18.53,5.55 28.82,5.55 7.43,0 14.62,-0.94 21.52,-2.83 6.89,-1.88 13.28,-4.57 19.2,-8.11 5.95,-3.52 11.16,-7.79 15.7,-12.87 l -12.07,-12.54 c -5.45,6.32 -12.07,11.16 -19.88,14.55 -7.8,3.4 -15.96,5.09 -24.47,5.09 -7.87,0 -15.17,-1.42 -21.86,-4.28 -6.73,-2.82 -12.54,-6.79 -17.52,-11.86 -4.98,-5.09 -8.84,-11.04 -11.6,-17.8 -2.79,-6.79 -4.17,-14.19 -4.17,-22.19 0,-7.87 1.38,-15.23 4.17,-22.06 2.79,-6.82 6.69,-12.77 11.74,-17.88 5.01,-5.08 10.92,-9.05 17.72,-11.87 6.79,-2.83 14.12,-4.24 22.02,-4.24 8.47,0 16.54,1.68 24.21,5.04 7.64,3.36 14.12,8.04 19.41,14.06 l 11.8,-12.11 c -4.64,-4.94 -9.92,-9.18 -15.84,-12.77 -5.92,-3.57 -12.28,-6.29 -19.1,-8.17 -6.82,-1.85 -13.82,-2.8 -20.98,-2.8 z m 85.51,2.19 58.44,141.23 h 21.62 l 57.94,-141.23 h -19.74 l -17.08,42.97 h -65.03 l -17.29,-42.97 z m 42.3,58.24 h 52.76 l -26.37,65.94 z" /><g
         id="g24"><g
           clip-path="url(#clipPath30)"
           id="g26"><path
             id="path44"
             style="fill:url(#linearGradient42);fill-opacity:1;fill-rule:nonzero;stroke:none"
             d="m 2316.56,4534.75 v -862.23 h -44.95 v 794.25 l -500.23,-561.55 -498.33,559.41 v 45 l 498.33,-559.42 520.71,584.54 z m -444.12,-208 c -100.56,-40.86 -202.84,-81.61 -295.38,-135.91 l -19.15,21.5 c 114.4,62.8 243.61,114.2 361.13,166.73 z m -346.73,-168.26 c -74.84,-50.72 -141.16,-113.02 -191.98,-195.23 -56.39,-91.24 -67.37,-191.68 12.87,-290.64 l -118.92,0.14 c -0.6,28.39 -0.63,55.56 0.41,81.73 v 1011.58 h 26.78 3.19 v -0.12 l 2.25,-0.09 422.68,-474.49 c -9.47,-4.36 -18.91,-8.76 -28.31,-13.21 l -396.62,445.23 v -803.76 c 9.14,23.97 20.8,47.35 35.62,70.37 49.35,76.71 124.29,138.49 211.33,191.74 z m 196.31,89.08 49.96,-56.09 511.85,574.59 H 2317 c 8.33,-164.68 -77.67,-258.37 -205.41,-330.06 -35.42,-19.88 -72.58,-37.97 -110.77,-55.13 l 59.29,66.56 c 10.82,5.87 21.41,11.8 31.7,17.83 111.25,65.21 188.21,142.05 189.71,253.21 l -509.54,-572 -78.45,88.06 c 9.45,4.41 18.95,8.75 28.49,13.03" /></g></g></g></g></svg>
