<?xml version="1.0" encoding="UTF-8" standalone="no"?>
<svg
   viewBox="0 0 795.53711 145.80666"
   height="145.80666"
   width="795.53711"
   xml:space="preserve"
   id="svg2"
   version="1.1"
   sodipodi:docname="logo-light.svg"
   inkscape:version="1.2.2 (b0a8486541, 2022-12-01)"
   xmlns:inkscape="http://www.inkscape.org/namespaces/inkscape"
   xmlns:sodipodi="http://sodipodi.sourceforge.net/DTD/sodipodi-0.dtd"
   xmlns="http://www.w3.org/2000/svg"
   xmlns:svg="http://www.w3.org/2000/svg"
   xmlns:rdf="http://www.w3.org/1999/02/22-rdf-syntax-ns#"
   xmlns:cc="http://creativecommons.org/ns#"
   xmlns:dc="http://purl.org/dc/elements/1.1/"><sodipodi:namedview
     id="namedview23"
     pagecolor="#ffffff"
     bordercolor="#000000"
     borderopacity="0.25"
     inkscape:showpageshadow="2"
     inkscape:pageopacity="0.0"
     inkscape:pagecheckerboard="0"
     inkscape:deskcolor="#d1d1d1"
     showgrid="false"
     inkscape:zoom="0.69839858"
     inkscape:cx="398.0535"
     inkscape:cy="75.171975"
     inkscape:window-width="1854"
     inkscape:window-height="1011"
     inkscape:window-x="0"
     inkscape:window-y="0"
     inkscape:window-maximized="1"
     inkscape:current-layer="svg2" /><metadata
     id="metadata8"><rdf:RDF><cc:Work
         rdf:about=""><dc:format>image/svg+xml</dc:format><dc:type
           rdf:resource="http://purl.org/dc/dcmitype/StillImage" /></cc:Work></rdf:RDF></metadata><defs
     id="defs6"><clipPath
       id="clipPath30"
       clipPathUnits="userSpaceOnUse"><path
         id="path28"
         d="m 2316.56,4534.75 v -862.23 h -44.95 v 794.25 l -500.23,-561.55 -498.33,559.41 v 45 l 498.33,-559.42 520.71,584.54 z m -444.12,-208 c -100.56,-40.86 -202.84,-81.61 -295.38,-135.91 l -19.15,21.5 c 114.4,62.8 243.61,114.2 361.13,166.73 z m -346.73,-168.26 c -74.84,-50.72 -141.16,-113.02 -191.98,-195.23 -56.39,-91.24 -67.37,-191.68 12.87,-290.64 l -118.92,0.14 c -0.6,28.39 -0.63,55.56 0.41,81.73 v 1011.58 h 26.78 3.19 v -0.12 l 2.25,-0.09 422.68,-474.49 c -9.47,-4.36 -18.91,-8.76 -28.31,-13.21 l -396.62,445.23 v -803.76 c 9.14,23.97 20.8,47.35 35.62,70.37 49.35,76.71 124.29,138.49 211.33,191.74 z m 196.31,89.08 49.96,-56.09 511.85,574.59 H 2317 c 8.33,-164.68 -77.67,-258.37 -205.41,-330.06 -35.42,-19.88 -72.58,-37.97 -110.77,-55.13 l 59.29,66.56 c 10.82,5.87 21.41,11.8 31.7,17.83 111.25,65.21 188.21,142.05 189.71,253.21 l -509.54,-572 -78.45,88.06 c 9.45,4.41 18.95,8.75 28.49,13.03 z" /></clipPath><linearGradient
       id="linearGradient42"
       spreadMethod="pad"
       gradientTransform="matrix(10,0,0,10,10,10)"
       gradientUnits="userSpaceOnUse"
       y2="487.08401"
       x2="226.44701"
       y1="350.49399"
       x1="127.761"><stop
         id="stop32"
         offset="0"
         style="stop-opacity:1;stop-color:#6d5437" /><stop
         id="stop34"
         offset="0.273438"
         style="stop-opacity:1;stop-color:#8f785d" /><stop
         id="stop36"
         offset="0.492188"
         style="stop-opacity:1;stop-color:#c2b499" /><stop
         id="stop38"
         offset="0.75"
         style="stop-opacity:1;stop-color:#8f785d" /><stop
         id="stop40"
         offset="1"
         style="stop-opacity:1;stop-color:#6d5437" /></linearGradient></defs><g
     id="g207"
     transform="translate(-163.63488,-488.52402)"><path
       id="path16"
       style="fill:#eae7e2;fill-opacity:1;fill-rule:nonzero;stroke:none;stroke-width:0.133333"
       d="m 364.22799,582.40268 c 0.16533,0.40267 0.31733,0.8 0.45733,1.192 h 1.99334 c 0.10666,-0.392 0.22533,-0.78533 0.35466,-1.17333 0.16134,-0.48267 0.34,-0.964 0.53067,-1.43867 l 1.60933,-3.97867 11.20534,-26.444 h 0.66533 l 1.168,26.79467 c 0.04,0.704 0.0427,1.31467 0.007,1.83333 -0.0373,0.53734 -0.116,0.98134 -0.236,1.33067 -0.128,0.36933 -0.308,0.67733 -0.54,0.92133 -0.236,0.24934 -0.52534,0.428 -0.86134,0.536 -0.3,0.096 -0.65066,0.18 -1.048,0.248 -0.312,0.052 -0.65466,0.0973 -1.024,0.13467 v 0.74933 h 13.41067 v -0.74133 c -0.54267,-0.0387 -1.03867,-0.0853 -1.48667,-0.14133 -0.53333,-0.068 -0.996,-0.14934 -1.38133,-0.24267 -0.424,-0.10267 -0.78533,-0.27467 -1.08133,-0.512 -0.3,-0.24133 -0.53467,-0.552 -0.69734,-0.92533 -0.15066,-0.34667 -0.276,-0.788 -0.37066,-1.32134 -0.0947,-0.52133 -0.16267,-1.132 -0.20267,-1.83066 l -1.276,-28.24267 c -0.02,-0.724 -0.007,-1.348 0.04,-1.872 0.048,-0.54133 0.132,-0.984 0.252,-1.32133 0.12933,-0.36267 0.32267,-0.668 0.57867,-0.91334 0.256,-0.24266 0.57333,-0.42533 0.94533,-0.54133 0.33867,-0.10533 0.744,-0.19067 1.21067,-0.25467 0.36666,-0.0493 0.77466,-0.0867 1.22266,-0.10933 v -0.736 h -9.00133 l -0.38,1.272 c -0.152,0.48533 -0.31867,0.988 -0.49733,1.50533 -0.176,0.50534 -0.36134,1.01467 -0.55867,1.52267 -0.19467,0.504 -0.40533,1.02533 -0.63333,1.564 l -11.38134,27.17067 h -0.56266 l -12.35734,-27.16 c -0.524,-1.12934 -0.98133,-2.168 -1.37066,-3.10934 -0.19734,-0.47866 -0.38534,-0.96666 -0.56,-1.45733 -0.14934,-0.416 -0.296,-0.852 -0.43867,-1.308 h -9.73733 v 0.732 c 0.64533,0.0213 1.216,0.06 1.71466,0.112 0.59467,0.0627 1.09334,0.14667 1.49467,0.25333 0.432,0.11334 0.796,0.28934 1.09067,0.52534 0.30133,0.244 0.53066,0.548 0.684,0.91466 0.144,0.34267 0.24133,0.79067 0.28933,1.33867 0.0467,0.528 0.0493,1.15467 0.009,1.876 l -1.39733,28.23467 c -0.02,0.77733 -0.12,1.464 -0.29333,2.05333 -0.17867,0.60933 -0.44134,1.12533 -0.784,1.544 -0.35067,0.43067 -0.83067,0.76533 -1.43734,0.99867 -0.508,0.196 -1.10666,0.32266 -1.79466,0.38 v 0.74266 h 12.25733 v -0.73466 c -1.11467,-0.052 -2.04933,-0.17734 -2.8,-0.37734 -0.86,-0.228 -1.496,-0.55866 -1.90267,-0.98933 -0.40133,-0.42267 -0.69733,-0.94533 -0.88266,-1.56 -0.18267,-0.60133 -0.264,-1.296 -0.24267,-2.08 l 1.22933,-26.38133 h 0.66134 l 11.688,26.008 1.81866,3.97333 c 0.232,0.49333 0.44267,0.97333 0.63067,1.436 z m 37.92667,-0.0307 v 0.736 h 14.50533 v -0.73066 c -0.664,-0.0227 -1.25867,-0.0613 -1.78133,-0.11334 -0.61734,-0.0627 -1.14267,-0.14666 -1.57334,-0.25066 -0.45866,-0.11334 -0.85066,-0.288 -1.17066,-0.52934 -0.328,-0.24533 -0.58134,-0.55733 -0.75467,-0.932 -0.16667,-0.35466 -0.29067,-0.80133 -0.37067,-1.33733 -0.0787,-0.524 -0.11866,-1.13867 -0.11866,-1.84133 v -28.236 c 0,-0.716 0.036,-1.34134 0.10266,-1.87334 0.0693,-0.54 0.17734,-0.98266 0.32134,-1.324 0.14666,-0.356 0.34933,-0.65466 0.6,-0.896 0.25333,-0.24133 0.55733,-0.42133 0.908,-0.53733 0.32266,-0.10933 0.70933,-0.19467 1.15466,-0.25867 0.34667,-0.0493 0.73467,-0.0867 1.164,-0.10933 v -0.736 h -14.504 v 0.73067 c 0.68134,0.0227 1.28934,0.0613 1.81867,0.11333 0.62533,0.0627 1.14933,0.14667 1.568,0.25067 0.448,0.112 0.83067,0.28666 1.144,0.52 0.32267,0.24 0.572,0.54266 0.748,0.90666 0.16667,0.34267 0.292,0.79067 0.372,1.33467 0.0787,0.52933 0.11733,1.156 0.11733,1.87867 v 28.236 c 0,0.7 -0.032,1.312 -0.0933,1.832 -0.0627,0.53066 -0.16133,0.972 -0.29333,1.32266 -0.13734,0.372 -0.33467,0.68134 -0.588,0.928 -0.256,0.24934 -0.56667,0.43334 -0.93067,0.55067 -0.33067,0.10667 -0.72267,0.192 -1.17333,0.256 -0.35067,0.0493 -0.74267,0.0867 -1.172,0.10933 z m 56.852,0.94 c 0.66533,0.10667 1.40666,0.16134 2.22266,0.16134 0.48,0 0.98,-0.0213 1.49334,-0.06 0.42133,-0.032 0.844,-0.10667 1.26533,-0.22 v -0.81067 c -0.33333,-0.0133 -0.65333,-0.0427 -0.95867,-0.0907 -0.408,-0.064 -0.78533,-0.16266 -1.128,-0.29066 -0.35066,-0.13067 -0.708,-0.32534 -1.07066,-0.57867 -0.35734,-0.252 -0.71867,-0.56133 -1.084,-0.92533 -0.708,-0.70667 -1.63734,-1.73734 -2.78267,-3.088 l -12.64933,-15.52267 v -0.52933 l 0.288,-0.0453 c 1.54933,-0.23866 2.964,-0.63066 4.236,-1.176 1.27066,-0.54266 2.404,-1.24 3.39866,-2.08666 1.964,-1.67067 2.94667,-3.79334 2.94667,-6.36134 0,-1.244 -0.25867,-2.37466 -0.776,-3.39333 -0.51733,-1.02267 -1.3,-1.93867 -2.34133,-2.74667 -1.04534,-0.81066 -2.39467,-1.42266 -4.04134,-1.83066 -1.66533,-0.412 -3.64133,-0.61867 -5.924,-0.61867 -1.376,0 -2.868,0.0507 -4.47333,0.15067 -0.804,0.0493 -1.76533,0.088 -2.88267,0.11466 -1.14133,0.0253 -2.396,0.0387 -3.75733,0.0387 h -5.42933 v 0.73067 c 0.68133,0.0227 1.28933,0.0613 1.81866,0.11333 0.62534,0.0627 1.14934,0.14667 1.568,0.25067 0.448,0.112 0.83067,0.28666 1.144,0.52 0.32134,0.24 0.572,0.54266 0.748,0.90666 0.16667,0.34267 0.29067,0.79067 0.372,1.33467 0.0773,0.52933 0.11734,1.156 0.11734,1.87867 v 28.236 c 0,0.7 -0.032,1.312 -0.0933,1.832 -0.064,0.53066 -0.16133,0.972 -0.29333,1.32266 -0.13867,0.37067 -0.33467,0.68 -0.588,0.92667 -0.25333,0.25067 -0.56533,0.43467 -0.93067,0.552 -0.33066,0.10667 -0.72266,0.192 -1.17333,0.256 -0.35067,0.0493 -0.74133,0.0867 -1.172,0.10933 v 0.736 h 14.444 v -0.73066 c -0.66267,-0.0227 -1.256,-0.0613 -1.77333,-0.11334 -0.616,-0.0627 -1.13467,-0.14666 -1.552,-0.25066 -0.44934,-0.11334 -0.83334,-0.28934 -1.14934,-0.53067 -0.31866,-0.24533 -0.56933,-0.556 -0.744,-0.93067 -0.16666,-0.35333 -0.29066,-0.8 -0.37066,-1.33733 -0.0787,-0.52267 -0.11867,-1.13733 -0.11867,-1.84133 v -28.236 c 0,-0.96267 0.0947,-1.752 0.28133,-2.368 0.20134,-0.66 0.51334,-1.12934 0.93467,-1.40667 0.76667,-0.50133 1.912,-0.75333 3.43467,-0.75333 1.60133,0 3.128,0.18666 4.576,0.55733 0.74133,0.19067 1.416,0.47067 2.01866,0.83467 0.60667,0.36533 1.14534,0.82266 1.61467,1.36666 0.94533,1.096 1.42,2.68 1.42,4.744 0,1.50934 -0.28667,2.832 -0.85867,3.964 -0.572,1.13467 -1.432,2.076 -2.576,2.81734 -1.13066,0.73066 -2.47866,1.24 -4.04133,1.52133 -1.45333,0.26 -3.092,0.328 -4.91333,0.2 v 1.16133 c 0.12933,0.0227 0.25066,0.0507 0.36266,0.0853 0.208,0.0653 0.39334,0.156 0.55334,0.26666 0.15066,0.104 0.33333,0.26934 0.54666,0.49334 0.20134,0.21066 0.43867,0.48533 0.708,0.81733 l 12.50934,15.36267 c 0.33733,0.41466 0.68666,0.82133 1.04933,1.21333 0.36,0.38933 0.73067,0.764 1.108,1.12267 0.368,0.348 0.776,0.66533 1.22133,0.94533 0.44667,0.28133 0.936,0.53067 1.46667,0.74667 0.52533,0.21333 1.12,0.376 1.77867,0.48266 z m 11.99866,-0.94 v 0.736 h 30.85733 l 0.45067,-8.796 h -0.73867 c -0.0667,0.55867 -0.17066,1.10134 -0.31066,1.624 -0.16667,0.62 -0.388,1.22 -0.65867,1.79467 -0.27867,0.588 -0.63733,1.11867 -1.076,1.58933 -0.436,0.468 -0.95333,0.87867 -1.548,1.228 -0.59733,0.35467 -1.304,0.61734 -2.12,0.792 -0.804,0.172 -1.71333,0.25867 -2.72667,0.25867 h -8.44 c -0.92933,0 -1.70933,-0.056 -2.34266,-0.16533 -0.65734,-0.11334 -1.16667,-0.29334 -1.52,-0.53067 -0.72667,-0.492 -1.092,-1.66933 -1.092,-3.52933 v -12.56934 c 0,-0.56 0.0613,-1.03333 0.18266,-1.42133 0.132,-0.41733 0.336,-0.74 0.61067,-0.96533 0.50667,-0.416 1.34933,-0.624 2.52133,-0.624 h 8.44 c 0.73734,0 1.36534,0.0733 1.88267,0.21866 0.544,0.15334 0.97067,0.38934 1.27467,0.70534 0.304,0.316 0.53466,0.77866 0.692,1.388 0.128,0.50133 0.20933,1.108 0.24133,1.81866 h 0.73333 v -9.648 h -0.74133 c -0.10533,1.26 -0.47333,2.228 -1.104,2.9 -0.69467,0.73867 -1.688,1.108 -2.97867,1.108 h -8.56133 c -0.32133,0 -0.61467,0.0107 -0.88,0.0293 -0.26667,0.0187 -0.512,0.048 -0.73333,0.0867 -0.21067,0.0373 -0.40267,0.092 -0.57467,0.16134 -0.168,0.0693 -0.324,0.15733 -0.46267,0.26133 l -0.54266,0.408 v -12.09333 c 0,-0.912 0.0627,-1.65467 0.18266,-2.22667 0.132,-0.62 0.344,-1.056 0.63467,-1.308 0.26667,-0.23333 0.58933,-0.408 0.964,-0.52267 0.36267,-0.112 0.77333,-0.168 1.22933,-0.168 h 6.98267 c 0.97067,0 1.82533,0.0653 2.564,0.196 0.752,0.132 1.388,0.33334 1.904,0.60134 1.048,0.54666 1.77067,1.336 2.164,2.36533 0.18667,0.48933 0.33467,1.03067 0.44133,1.61733 0.0867,0.48267 0.144,0.996 0.17334,1.536 h 0.73466 v -7.82533 h -28.228 v 0.73067 c 0.68267,0.0227 1.28934,0.0613 1.81867,0.11333 0.62533,0.0627 1.14933,0.14667 1.568,0.25067 0.448,0.112 0.83067,0.28666 1.144,0.52 0.32133,0.24 0.572,0.54266 0.748,0.90666 0.16667,0.34267 0.292,0.79067 0.372,1.33467 0.0787,0.52933 0.11733,1.156 0.11733,1.87867 v 28.236 c 0,0.696 -0.0347,1.308 -0.10266,1.83466 -0.0693,0.53734 -0.176,0.98134 -0.316,1.32934 -0.14934,0.36533 -0.35067,0.672 -0.6,0.91733 -0.256,0.25067 -0.56,0.43333 -0.912,0.55067 -0.324,0.108 -0.70934,0.19333 -1.15334,0.25733 -0.34666,0.0493 -0.73733,0.0867 -1.16533,0.10933 z m 40.83067,0 v 0.736 h 27.88266 l 0.45067,-8.796 h -0.73867 c -0.0653,0.556 -0.16666,1.09734 -0.30266,1.62134 -0.16267,0.62266 -0.37467,1.22133 -0.63334,1.792 -0.268,0.58933 -0.616,1.12 -1.04533,1.59066 -0.42667,0.47067 -0.93467,0.88134 -1.51867,1.232 -0.588,0.35334 -1.29466,0.61734 -2.11333,0.792 -0.81067,0.172 -1.73333,0.25867 -2.76667,0.25867 h -5.524 c -0.92933,0 -1.70933,-0.056 -2.34266,-0.16533 -0.65734,-0.11334 -1.16667,-0.29334 -1.52,-0.53067 -0.728,-0.492 -1.092,-1.66933 -1.092,-3.52933 v -28.236 c 0,-0.716 0.0347,-1.34134 0.10266,-1.87334 0.0693,-0.54 0.17734,-0.98266 0.32,-1.324 0.148,-0.356 0.35067,-0.65466 0.60134,-0.896 0.25333,-0.24133 0.55733,-0.42133 0.90666,-0.53733 0.324,-0.10933 0.71067,-0.19467 1.15467,-0.25867 0.348,-0.0493 0.736,-0.0867 1.16533,-0.10933 v -0.736 h -14.504 v 0.73067 c 0.68134,0.0227 1.28934,0.0613 1.81867,0.11333 0.624,0.0627 1.14933,0.14667 1.568,0.25067 0.44667,0.112 0.83067,0.28666 1.14267,0.52 0.32266,0.24 0.57333,0.54266 0.74933,0.90666 0.16667,0.34267 0.29067,0.79067 0.372,1.33467 0.0773,0.52933 0.11733,1.156 0.11733,1.87867 v 28.236 c 0,0.696 -0.0347,1.308 -0.10266,1.83466 -0.0693,0.53734 -0.176,0.98134 -0.31734,1.32934 -0.148,0.36533 -0.34933,0.672 -0.6,0.91733 -0.25466,0.25067 -0.56,0.43333 -0.912,0.55067 -0.32266,0.108 -0.708,0.19333 -1.152,0.25733 -0.348,0.0493 -0.73733,0.0867 -1.16666,0.10933 z m 36.88533,0 v 0.736 h 27.88133 l 0.452,-8.796 h -0.74 c -0.064,0.556 -0.16666,1.09734 -0.30266,1.62134 -0.16267,0.62266 -0.37334,1.22133 -0.63334,1.792 -0.26666,0.58933 -0.61733,1.12 -1.04533,1.59066 -0.42667,0.47067 -0.93333,0.88134 -1.51867,1.232 -0.588,0.35334 -1.29333,0.61734 -2.11466,0.792 -0.80934,0.172 -1.73067,0.25867 -2.764,0.25867 h -5.52667 c -0.928,0 -1.708,-0.056 -2.34133,-0.16533 -0.65734,-0.11334 -1.16534,-0.29334 -1.52,-0.53067 -0.72667,-0.492 -1.092,-1.66933 -1.092,-3.52933 v -28.236 c 0,-0.716 0.0347,-1.34134 0.10266,-1.87334 0.0693,-0.54 0.17734,-0.98266 0.32,-1.324 0.148,-0.356 0.34934,-0.65466 0.60134,-0.896 0.25333,-0.24133 0.55733,-0.42133 0.908,-0.53733 0.324,-0.10933 0.70933,-0.19467 1.15466,-0.25867 0.34667,-0.0493 0.736,-0.0867 1.164,-0.10933 v -0.736 h -14.504 v 0.73067 c 0.68134,0.0227 1.28934,0.0613 1.81867,0.11333 0.62533,0.0627 1.14933,0.14667 1.568,0.25067 0.448,0.112 0.83067,0.28666 1.144,0.52 0.32133,0.24 0.572,0.54266 0.748,0.90666 0.16667,0.34267 0.292,0.79067 0.372,1.33467 0.0773,0.52933 0.11733,1.156 0.11733,1.87867 v 28.236 c 0,0.696 -0.0347,1.308 -0.10266,1.83466 -0.0693,0.53734 -0.176,0.98134 -0.316,1.32934 -0.14934,0.36533 -0.35067,0.672 -0.6,0.91733 -0.256,0.25067 -0.56,0.43333 -0.912,0.55067 -0.324,0.108 -0.70934,0.19333 -1.15334,0.25733 -0.34666,0.0493 -0.736,0.0867 -1.16533,0.10933 z m 36.884,0 v 0.736 h 30.85733 l 0.45067,-8.796 h -0.73867 c -0.0653,0.55867 -0.17067,1.10134 -0.31067,1.624 -0.16666,0.62 -0.388,1.22 -0.65866,1.79467 -0.27734,0.588 -0.63734,1.11867 -1.076,1.58933 -0.436,0.468 -0.952,0.87867 -1.548,1.228 -0.596,0.35467 -1.304,0.61734 -2.12,0.792 -0.80267,0.172 -1.71334,0.25867 -2.72667,0.25867 h -8.44 c -0.928,0 -1.70933,-0.056 -2.34133,-0.16533 -0.65867,-0.11334 -1.168,-0.29334 -1.52133,-0.53067 -0.72667,-0.492 -1.092,-1.66933 -1.092,-3.52933 v -12.56934 c 0,-0.56 0.0613,-1.03333 0.18266,-1.42133 0.132,-0.41733 0.336,-0.74 0.61067,-0.96533 0.508,-0.416 1.34933,-0.624 2.52133,-0.624 h 8.44 c 0.73733,0 1.36533,0.0733 1.88267,0.21866 0.544,0.15334 0.97066,0.38934 1.276,0.70534 0.30266,0.316 0.53333,0.77866 0.69066,1.388 0.128,0.50133 0.20934,1.108 0.24134,1.81866 h 0.73333 v -9.648 h -0.74133 c -0.104,1.26 -0.47334,2.228 -1.104,2.9 -0.69334,0.73867 -1.688,1.108 -2.97867,1.108 h -8.56133 c -0.32133,0 -0.61467,0.0107 -0.88,0.0293 -0.26667,0.0187 -0.512,0.048 -0.73333,0.0867 -0.21067,0.0373 -0.40267,0.092 -0.57467,0.16134 -0.168,0.0693 -0.324,0.15733 -0.46267,0.26133 l -0.54266,0.408 v -12.09333 c 0,-0.912 0.0627,-1.65467 0.18266,-2.22667 0.132,-0.62 0.344,-1.056 0.63467,-1.308 0.268,-0.23333 0.59067,-0.408 0.964,-0.52267 0.36267,-0.112 0.77333,-0.168 1.22933,-0.168 h 6.984 c 0.96933,0 1.824,0.0653 2.56267,0.196 0.752,0.132 1.388,0.33334 1.904,0.60134 1.04933,0.54666 1.77066,1.336 2.164,2.36533 0.188,0.48933 0.336,1.03067 0.44133,1.61733 0.0867,0.48267 0.14533,0.996 0.17333,1.536 h 0.73467 v -7.82533 h -28.228 v 0.73067 c 0.68267,0.0227 1.28934,0.0613 1.81867,0.11333 0.62533,0.0627 1.14933,0.14667 1.568,0.25067 0.448,0.112 0.83067,0.28666 1.144,0.52 0.32267,0.24 0.572,0.54266 0.748,0.90666 0.16667,0.34267 0.292,0.79067 0.37333,1.33467 0.0773,0.52933 0.116,1.156 0.116,1.87867 v 28.236 c 0,0.696 -0.0347,1.308 -0.10266,1.83466 -0.0693,0.53734 -0.176,0.98134 -0.316,1.32934 -0.148,0.36533 -0.35067,0.672 -0.6,0.91733 -0.256,0.25067 -0.56,0.43333 -0.912,0.55067 -0.324,0.108 -0.70934,0.19333 -1.15334,0.25733 -0.34666,0.0493 -0.736,0.0867 -1.16533,0.10933" /><path
       id="path18"
       style="fill:#eae7e2;fill-opacity:1;fill-rule:nonzero;stroke:none;stroke-width:0.133333"
       d="m 668.77598,582.40268 c 0.164,0.40267 0.31734,0.8 0.45734,1.192 h 1.992 c 0.10666,-0.392 0.22666,-0.78533 0.356,-1.17333 0.16133,-0.48267 0.33866,-0.964 0.53066,-1.43867 l 1.60934,-3.97867 11.204,-26.444 h 0.66666 l 1.16667,26.79467 c 0.0413,0.704 0.044,1.31467 0.008,1.83333 -0.0373,0.53734 -0.116,0.98134 -0.23733,1.33067 -0.12667,0.36933 -0.30667,0.67733 -0.53867,0.92133 -0.236,0.24934 -0.52533,0.428 -0.86267,0.536 -0.29866,0.096 -0.64933,0.18 -1.048,0.248 -0.31066,0.052 -0.65333,0.0973 -1.024,0.13467 v 0.74933 h 13.412 v -0.74133 c -0.54266,-0.0387 -1.04,-0.0853 -1.48666,-0.14133 -0.53467,-0.068 -0.996,-0.14934 -1.38134,-0.24267 -0.424,-0.10267 -0.78533,-0.27467 -1.08133,-0.512 -0.3,-0.24133 -0.53467,-0.552 -0.69733,-0.92533 -0.152,-0.34667 -0.276,-0.788 -0.37067,-1.32134 -0.0947,-0.52133 -0.164,-1.132 -0.204,-1.83066 l -1.27467,-28.24267 c -0.02,-0.724 -0.008,-1.348 0.04,-1.872 0.048,-0.54133 0.13067,-0.984 0.25067,-1.32133 0.12933,-0.36267 0.324,-0.668 0.58,-0.91334 0.256,-0.24266 0.57333,-0.42533 0.94533,-0.54133 0.33867,-0.10533 0.74267,-0.19067 1.21067,-0.25467 0.36533,-0.0493 0.77467,-0.0867 1.22267,-0.10933 v -0.736 h -9.00134 l -0.38,1.272 c -0.152,0.48533 -0.31866,0.988 -0.49733,1.50533 -0.176,0.50534 -0.36267,1.01467 -0.55867,1.52267 -0.19466,0.504 -0.40533,1.02533 -0.63333,1.564 l -11.38133,27.17067 h -0.564 l -12.356,-27.16 c -0.524,-1.12934 -0.98267,-2.168 -1.37067,-3.10934 -0.19733,-0.47866 -0.38667,-0.96666 -0.56,-1.45733 -0.14933,-0.416 -0.296,-0.852 -0.44,-1.308 h -9.736 v 0.732 c 0.644,0.0213 1.216,0.06 1.71333,0.112 0.596,0.0627 1.09467,0.14667 1.496,0.25333 0.432,0.11334 0.796,0.28934 1.08934,0.52534 0.30266,0.244 0.532,0.548 0.68533,0.91466 0.14267,0.34267 0.24,0.79067 0.288,1.33867 0.048,0.528 0.0507,1.15467 0.0107,1.876 l -1.39734,28.23467 c -0.0213,0.77733 -0.12,1.464 -0.29333,2.05333 -0.18,0.60933 -0.44133,1.12533 -0.784,1.544 -0.35067,0.43067 -0.832,0.76533 -1.43733,0.99867 -0.508,0.196 -1.108,0.32266 -1.79467,0.38 v 0.74266 h 12.25733 v -0.73466 c -1.11466,-0.052 -2.04933,-0.17734 -2.8,-0.37734 -0.86133,-0.228 -1.49733,-0.55866 -1.904,-0.98933 -0.4,-0.42267 -0.696,-0.94533 -0.88266,-1.56 -0.18267,-0.60133 -0.26267,-1.296 -0.24134,-2.08 l 1.22934,-26.38133 h 0.66133 l 11.68667,26.008 1.82,3.97333 c 0.232,0.49333 0.44266,0.97333 0.63066,1.436 z m 66.41467,-3.05867 c -0.23867,-0.52133 -0.48134,-1.14133 -0.72667,-1.86 l -9.89866,-29.51466 -0.58134,-1.55734 -0.54133,-1.53866 c -0.16933,-0.5 -0.336,-1.01467 -0.49733,-1.544 l -0.38134,-1.32267 h -2.46 c -0.124,0.44933 -0.25466,0.89067 -0.39066,1.32533 -0.16,0.50667 -0.33334,1.02267 -0.52134,1.54667 l -0.564,1.536 -0.592,1.56267 -10.74666,29.512 c -0.288,0.784 -0.604,1.47333 -0.944,2.064 -0.344,0.59866 -0.71467,1.096 -1.10667,1.48933 -0.40933,0.408 -0.88933,0.724 -1.44133,0.948 -0.45867,0.18667 -0.968,0.30933 -1.52667,0.36933 v 0.748 h 11.892 v -0.73333 c -1.17067,-0.0507 -2.12667,-0.17467 -2.86667,-0.37067 -0.86,-0.22666 -1.452,-0.56133 -1.772,-1 -0.31466,-0.43066 -0.47733,-0.972 -0.48266,-1.616 -0.005,-0.60933 0.12933,-1.31866 0.404,-2.12133 l 2.85466,-8.02133 c 0.17334,-0.47467 0.36667,-0.86267 0.57467,-1.15867 0.22667,-0.32267 0.48133,-0.54933 0.75867,-0.676 0.252,-0.11333 0.56133,-0.19867 0.92533,-0.25333 0.35067,-0.0533 0.75867,-0.08 1.21733,-0.08 h 7.956 c 0.21867,0 0.42934,-0.008 0.62934,-0.0227 0.20133,-0.0133 0.40266,-0.036 0.596,-0.064 0.33066,-0.0507 0.57066,-0.15067 0.72133,-0.30133 l 0.388,-0.38667 3.63467,10.96667 c 0.5,1.38133 0.708,2.424 0.62,3.12133 -0.048,0.392 -0.19067,0.72267 -0.42134,0.98667 -0.232,0.26 -0.54533,0.45066 -0.93866,0.57066 -0.352,0.10534 -0.792,0.196 -1.32,0.26934 -0.43867,0.06 -0.94134,0.11066 -1.50667,0.14933 v 0.74133 h 13.83733 v -0.748 c -0.40667,-0.036 -0.78533,-0.0827 -1.13333,-0.136 -0.436,-0.068 -0.82,-0.15066 -1.14267,-0.24533 -0.35333,-0.10267 -0.68133,-0.268 -0.98267,-0.49467 -0.296,-0.22266 -0.56533,-0.50666 -0.808,-0.848 -0.23333,-0.33066 -0.47466,-0.76266 -0.71466,-1.292 z m -10.60533,-13.83733 c -0.204,0.04 -0.44934,0.06 -0.732,0.06 l -8.64267,0.007 -0.44267,0.0227 c -0.128,0.009 -0.24666,0.0253 -0.34933,0.0467 -0.1,0.0213 -0.19333,0.048 -0.27733,0.0813 l -0.69867,0.28 c 2.05333,-5.67466 4.10533,-11.352 6.16667,-17.02266 h 0.6 l 5.052,14.97333 c 0.116,0.28133 0.17466,0.52133 0.17466,0.72 0,0.27333 -0.0987,0.48 -0.296,0.61867 -0.14133,0.0987 -0.32666,0.16933 -0.55466,0.21333 z m 56.17733,16.824 c 0.29733,0.42133 0.58666,0.84267 0.864,1.264 h 1.65733 l -0.0813,-2.96533 c -0.0213,-1.07734 -0.032,-2.164 -0.032,-3.256 v -28.236 c 0,-0.77734 0.08,-1.46534 0.24,-2.06134 0.164,-0.61066 0.41333,-1.128 0.74533,-1.54933 0.34267,-0.43333 0.82267,-0.768 1.43467,-1.00267 0.512,-0.19466 1.12266,-0.32133 1.83066,-0.37866 v -0.74267 h -12.136 v 0.736 c 1.076,0.0507 1.984,0.17733 2.716,0.376 0.844,0.228 1.476,0.55867 1.89334,0.98533 0.412,0.424 0.72,0.944 0.92266,1.55867 0.19867,0.6 0.29734,1.29333 0.29734,2.07867 v 25.17466 h -0.608 l -22.508,-25.19066 c -0.432,-0.47334 -0.844,-0.94934 -1.23467,-1.42534 -0.38267,-0.468 -0.75867,-0.95333 -1.12533,-1.45733 -0.364,-0.5 -0.712,-0.99733 -1.036,-1.488 -0.296,-0.44533 -0.58134,-0.89467 -0.856,-1.348 h -7.73067 v 0.73733 c 0.9,0.0533 1.692,0.17467 2.36933,0.36 0.78,0.21467 1.416,0.52 1.90667,0.912 0.50267,0.40267 0.87867,0.92134 1.128,1.552 0.244,0.616 0.36533,1.34134 0.36533,2.17334 v 28.236 c 0,0.77466 -0.0787,1.46133 -0.23333,2.05866 -0.15733,0.61067 -0.39867,1.128 -0.71867,1.548 -0.33066,0.43467 -0.80933,0.772 -1.43066,1.00667 -0.51867,0.196 -1.14267,0.32267 -1.868,0.38 v 0.74133 h 12.136 v -0.73466 c -1.076,-0.052 -1.98267,-0.17867 -2.71734,-0.37734 -0.844,-0.22666 -1.47466,-0.55733 -1.892,-0.98666 -0.412,-0.42134 -0.72,-0.94267 -0.92266,-1.556 -0.19867,-0.60134 -0.29734,-1.29334 -0.29734,-2.08 v -25.17334 h 0.61067 l 22.26267,25.19067 c 0.61333,0.672 1.17866,1.31067 1.692,1.91333 0.5,0.58534 0.93333,1.12 1.30266,1.6 0.36267,0.47467 0.716,0.952 1.05334,1.42667 z m 16.59066,0.0413 v 0.736 h 14.444 v -0.73066 c -0.664,-0.0227 -1.256,-0.0613 -1.77466,-0.11334 -0.61467,-0.0627 -1.13334,-0.14666 -1.552,-0.25066 -0.44934,-0.11334 -0.83334,-0.28934 -1.148,-0.53067 -0.32,-0.24533 -0.57067,-0.556 -0.744,-0.93067 -0.16667,-0.35333 -0.292,-0.8 -0.372,-1.33733 -0.0787,-0.52267 -0.11867,-1.13733 -0.11867,-1.84133 v -13.35867 c 0,-0.56133 0.0613,-1.036 0.184,-1.42267 0.132,-0.41733 0.33467,-0.74 0.60933,-0.964 0.264,-0.21466 0.61334,-0.376 1.04667,-0.47733 0.41067,-0.0973 0.90267,-0.14667 1.47467,-0.14667 h 16.03066 c 0.3,0 0.58134,-0.009 0.84267,-0.0293 0.26267,-0.0187 0.512,-0.048 0.74267,-0.0867 0.21333,-0.0347 0.40933,-0.0933 0.584,-0.17066 0.172,-0.0787 0.328,-0.17867 0.464,-0.296 l 0.56,-0.49067 v 17.44267 c 0,0.7 -0.032,1.312 -0.0933,1.832 -0.064,0.53066 -0.16266,0.972 -0.29333,1.32266 -0.13867,0.37067 -0.336,0.68 -0.588,0.92667 -0.25467,0.25067 -0.56667,0.43467 -0.93067,0.552 -0.332,0.10667 -0.724,0.192 -1.17333,0.256 -0.35067,0.0493 -0.74267,0.0867 -1.172,0.10933 v 0.736 h 14.444 v -0.73066 c -0.664,-0.0227 -1.26,-0.0613 -1.78133,-0.11334 -0.616,-0.0627 -1.14267,-0.14666 -1.57334,-0.25066 -0.46133,-0.11334 -0.85066,-0.28934 -1.16533,-0.53067 -0.324,-0.24667 -0.56933,-0.56 -0.73467,-0.93733 -0.15333,-0.352 -0.26933,-0.79734 -0.344,-1.33467 -0.0733,-0.52533 -0.11066,-1.13733 -0.11066,-1.83733 v -28.236 c 0,-0.716 0.036,-1.34134 0.104,-1.87334 0.068,-0.54 0.176,-0.98266 0.31866,-1.324 0.14934,-0.35733 0.352,-0.656 0.60267,-0.896 0.252,-0.24133 0.556,-0.42133 0.908,-0.53733 0.32267,-0.10933 0.708,-0.19467 1.15333,-0.25867 0.34667,-0.0493 0.736,-0.0867 1.16534,-0.10933 v -0.736 h -14.50534 v 0.73067 c 0.68267,0.0227 1.28934,0.0613 1.81867,0.11333 0.62533,0.0627 1.14933,0.14667 1.56933,0.25067 0.44667,0.112 0.82934,0.28666 1.14267,0.52 0.324,0.24 0.57333,0.54266 0.748,0.90666 0.16667,0.34267 0.292,0.79067 0.372,1.33467 0.0773,0.52933 0.11867,1.156 0.11867,1.87867 v 7.28666 c 0,0.57734 -0.0613,1.06667 -0.184,1.464 -0.12934,0.43067 -0.33467,0.76 -0.60934,0.984 -0.26133,0.21334 -0.612,0.37334 -1.04666,0.47734 -0.41067,0.0973 -0.90267,0.14533 -1.47334,0.14533 h -16.032 c -0.32,0 -0.61333,0.0107 -0.87866,0.0293 -0.26667,0.0187 -0.512,0.048 -0.73467,0.0867 -0.21067,0.036 -0.40267,0.092 -0.57467,0.16133 -0.168,0.068 -0.324,0.156 -0.46266,0.26134 l -0.54267,0.408 v -11.304 c 0,-0.716 0.036,-1.34134 0.10267,-1.87334 0.0693,-0.54 0.17733,-0.98266 0.32133,-1.324 0.14667,-0.356 0.34933,-0.65466 0.60133,-0.896 0.25334,-0.24133 0.556,-0.42133 0.90667,-0.53733 0.324,-0.10933 0.71067,-0.19467 1.15467,-0.25867 0.34666,-0.0493 0.736,-0.0867 1.16533,-0.10933 v -0.736 h -14.50533 v 0.73067 c 0.68266,0.0227 1.28933,0.0613 1.81866,0.11333 0.62534,0.0627 1.14934,0.14667 1.568,0.25067 0.448,0.112 0.83067,0.28666 1.144,0.52 0.32267,0.24 0.57334,0.54266 0.74934,0.90666 0.16533,0.34267 0.29066,0.79067 0.37066,1.33467 0.0787,0.52933 0.11867,1.156 0.11867,1.87867 v 28.236 c 0,0.7 -0.032,1.312 -0.0933,1.832 -0.064,0.53066 -0.16267,0.972 -0.29334,1.32266 -0.13866,0.37067 -0.336,0.68 -0.588,0.92667 -0.25466,0.25067 -0.56533,0.43467 -0.93066,0.552 -0.332,0.10667 -0.724,0.192 -1.17334,0.256 -0.352,0.0493 -0.74266,0.0867 -1.172,0.10933 z m 51.33734,0 v 0.736 h 30.85733 l 0.45066,-8.796 h -0.73866 c -0.0667,0.55867 -0.17067,1.10134 -0.31067,1.624 -0.16667,0.62 -0.388,1.22 -0.65867,1.79467 -0.27866,0.588 -0.63733,1.11867 -1.076,1.58933 -0.436,0.468 -0.95333,0.87867 -1.548,1.228 -0.59733,0.35467 -1.304,0.61734 -2.12,0.792 -0.804,0.172 -1.71466,0.25867 -2.72666,0.25867 h -8.44133 c -0.928,0 -1.708,-0.056 -2.34134,-0.16533 -0.65733,-0.11334 -1.16533,-0.29334 -1.52,-0.53067 -0.72666,-0.492 -1.092,-1.66933 -1.092,-3.52933 v -12.56934 c 0,-0.56 0.0613,-1.03333 0.18267,-1.42133 0.13067,-0.41733 0.336,-0.74 0.61067,-0.96533 0.50666,-0.416 1.348,-0.624 2.52133,-0.624 h 8.44 c 0.73733,0 1.36533,0.0733 1.88266,0.21866 0.54267,0.15334 0.97067,0.38934 1.276,0.70534 0.30267,0.316 0.53334,0.77866 0.68934,1.388 0.12933,0.50133 0.21066,1.108 0.24266,1.81866 h 0.73334 v -9.648 h -0.74267 c -0.104,1.26 -0.472,2.228 -1.10267,2.9 -0.69466,0.73867 -1.688,1.108 -2.97866,1.108 h -8.56133 c -0.32134,0 -0.61467,0.0107 -0.88,0.0293 -0.26667,0.0187 -0.512,0.048 -0.73334,0.0867 -0.21066,0.0373 -0.40266,0.092 -0.57466,0.16134 -0.168,0.0693 -0.324,0.15733 -0.46267,0.26133 l -0.54267,0.408 v -12.09333 c 0,-0.912 0.0613,-1.65467 0.18267,-2.22667 0.132,-0.62 0.344,-1.056 0.63333,-1.308 0.268,-0.23333 0.59067,-0.408 0.96534,-0.52267 0.36266,-0.112 0.772,-0.168 1.22933,-0.168 h 6.98266 c 0.96934,0 1.82534,0.0653 2.564,0.196 0.752,0.132 1.388,0.33334 1.904,0.60134 1.048,0.54666 1.77067,1.336 2.164,2.36533 0.18667,0.48933 0.33467,1.03067 0.44134,1.61733 0.0867,0.48267 0.144,0.996 0.17333,1.536 h 0.73467 v -7.82533 h -28.228 v 0.73067 c 0.68133,0.0227 1.28933,0.0613 1.81867,0.11333 0.62533,0.0627 1.14933,0.14667 1.568,0.25067 0.44666,0.112 0.82933,0.28666 1.144,0.52 0.32133,0.24 0.572,0.54266 0.748,0.90666 0.16666,0.34267 0.292,0.79067 0.372,1.33467 0.0773,0.52933 0.11733,1.156 0.11733,1.87867 v 28.236 c 0,0.696 -0.0347,1.308 -0.10267,1.83466 -0.0693,0.53734 -0.176,0.98134 -0.316,1.32934 -0.14933,0.36533 -0.34933,0.672 -0.6,0.91733 -0.256,0.25067 -0.56133,0.43333 -0.91333,0.55067 -0.32267,0.108 -0.708,0.19333 -1.152,0.25733 -0.34667,0.0493 -0.73733,0.0867 -1.16533,0.10933 z m 39.06933,-0.20266 v 0.93866 h 29.644 l 0.45066,-8.796 h -0.732 c -0.052,0.496 -0.144,0.98134 -0.27333,1.452 -0.15867,0.57067 -0.37467,1.11867 -0.648,1.644 -0.27867,0.53734 -0.64267,1.02534 -1.08933,1.46 -0.44,0.43067 -0.964,0.81067 -1.56934,1.14 -0.60266,0.328 -1.31866,0.58534 -2.14533,0.76934 -0.816,0.18 -1.74,0.29333 -2.768,0.33466 l -14.744,0.49734 v -0.564 l 20.81867,-33.60267 c 0.316,-0.51733 0.65333,-1.048 1.00666,-1.588 l 0.54534,-0.79733 0.52266,-0.70934 v -0.94533 h -26.832 v 8.79733 h 0.752 c 0.0573,-0.568 0.13067,-1.10266 0.216,-1.60266 0.10267,-0.59467 0.22667,-1.15467 0.37334,-1.67334 0.152,-0.544 0.37866,-1.032 0.676,-1.46 0.3,-0.43066 0.676,-0.80666 1.124,-1.124 0.44666,-0.31466 0.99866,-0.55733 1.652,-0.72533 0.63733,-0.16267 1.37333,-0.256 2.20533,-0.276 l 13.708,-0.436 v 0.564 l -20.75867,33.60267 -0.504,0.80266 -0.53333,0.816 c -0.188,0.28267 -0.37867,0.55334 -0.572,0.81067 z m 40.104,0.20266 v 0.736 h 30.85733 l 0.45067,-8.796 h -0.73867 c -0.0667,0.55867 -0.17067,1.10134 -0.31067,1.624 -0.16666,0.62 -0.388,1.22 -0.65866,1.79467 -0.27867,0.588 -0.63734,1.11867 -1.076,1.58933 -0.436,0.468 -0.952,0.87867 -1.548,1.228 -0.59734,0.35467 -1.304,0.61734 -2.12,0.792 -0.804,0.172 -1.71467,0.25867 -2.72667,0.25867 h -8.44133 c -0.928,0 -1.70934,-0.056 -2.34134,-0.16533 -0.65733,-0.11334 -1.16666,-0.29334 -1.52,-0.53067 -0.72666,-0.492 -1.092,-1.66933 -1.092,-3.52933 v -12.56934 c 0,-0.56 0.0613,-1.03333 0.18267,-1.42133 0.13067,-0.41733 0.336,-0.74 0.61067,-0.96533 0.50666,-0.416 1.348,-0.624 2.52,-0.624 h 8.44133 c 0.73733,0 1.36533,0.0733 1.88267,0.21866 0.54266,0.15334 0.97066,0.38934 1.27466,0.70534 0.304,0.316 0.53467,0.77866 0.692,1.388 0.12667,0.50133 0.20934,1.108 0.24134,1.81866 h 0.732 v -9.648 h -0.74 c -0.10534,1.26 -0.47334,2.228 -1.104,2.9 -0.69467,0.73867 -1.688,1.108 -2.97867,1.108 h -8.56267 c -0.32,0 -0.61333,0.0107 -0.87866,0.0293 -0.26667,0.0187 -0.512,0.048 -0.73334,0.0867 -0.21066,0.0373 -0.404,0.092 -0.57466,0.16134 -0.168,0.0693 -0.32534,0.15733 -0.464,0.26133 l -0.54134,0.408 v -12.09333 c 0,-0.912 0.0613,-1.65467 0.18267,-2.22667 0.132,-0.62 0.344,-1.056 0.63467,-1.308 0.26666,-0.23333 0.58933,-0.408 0.964,-0.52267 0.36266,-0.112 0.77333,-0.168 1.22933,-0.168 h 6.984 c 0.968,0 1.824,0.0653 2.56267,0.196 0.75066,0.132 1.388,0.33334 1.904,0.60134 1.048,0.54666 1.76933,1.336 2.164,2.36533 0.18666,0.48933 0.336,1.03067 0.44,1.61733 0.0867,0.48267 0.14533,0.996 0.17466,1.536 h 0.73467 v -7.82533 h -28.228 v 0.73067 c 0.68133,0.0227 1.28933,0.0613 1.81867,0.11333 0.62533,0.0627 1.14933,0.14667 1.568,0.25067 0.44666,0.112 0.83066,0.28666 1.144,0.52 0.32133,0.24 0.572,0.54266 0.748,0.90666 0.16666,0.34267 0.292,0.79067 0.372,1.33467 0.0773,0.52933 0.11733,1.156 0.11733,1.87867 v 28.236 c 0,0.696 -0.0347,1.308 -0.10267,1.83466 -0.0693,0.53734 -0.176,0.98134 -0.31733,1.32934 -0.148,0.36533 -0.34933,0.672 -0.59867,0.91733 -0.256,0.25067 -0.56133,0.43333 -0.91333,0.55067 -0.32267,0.108 -0.708,0.19333 -1.152,0.25733 -0.348,0.0493 -0.73733,0.0867 -1.16533,0.10933" /><path
       id="path20"
       style="fill:#eae7e2;fill-opacity:1;fill-rule:nonzero;stroke:none;stroke-width:0.133333"
       d="m 344.18666,524.83068 h 4.06666 c 1.044,0 2.01334,-0.17867 2.90534,-0.54133 0.892,-0.36267 1.676,-0.87067 2.344,-1.52533 0.67333,-0.65467 1.19333,-1.42134 1.56,-2.3 0.37333,-0.87334 0.556,-1.828 0.556,-2.85467 0,-1.03733 -0.18267,-1.99067 -0.556,-2.86933 -0.36667,-0.87867 -0.88667,-1.64667 -1.56,-2.3 -0.668,-0.656 -1.452,-1.16667 -2.344,-1.52934 -0.892,-0.36266 -1.86134,-0.54266 -2.90534,-0.54266 h -4.06666 z m -2.416,2.184 v -18.83066 h 6.40533 c 1.43067,0 2.74533,0.23333 3.94667,0.704 1.20133,0.46666 2.24666,1.12666 3.13866,1.96933 0.88667,0.84667 1.58134,1.84133 2.07867,2.98933 0.49467,1.148 0.74,2.40267 0.74,3.76267 0,1.35333 -0.24133,2.604 -0.73067,3.748 -0.488,1.148 -1.17466,2.14267 -2.06533,2.98533 -0.888,0.84267 -1.94267,1.50133 -3.148,1.968 -1.21067,0.47067 -2.52933,0.704 -3.96,0.704 z m 22.34933,0 v -18.83066 h 8.28 c 1.24667,0 2.332,0.22933 3.25467,0.68666 0.92933,0.45734 1.65066,1.09334 2.17066,1.91467 0.52,0.82 0.776,1.784 0.776,2.88667 0,1.22933 -0.35466,2.29066 -1.072,3.188 -0.71733,0.892 -1.672,1.524 -2.86933,1.90133 l 4.20933,8.25333 h -2.68133 l -3.96667,-7.92666 h -5.68533 v 7.92666 z m 2.416,-9.95333 h 5.68933 c 1.19734,0 2.156,-0.304 2.87334,-0.91467 0.71733,-0.61333 1.076,-1.43466 1.076,-2.46533 0,-1.01333 -0.35867,-1.824 -1.076,-2.44 -0.71734,-0.60933 -1.676,-0.91333 -2.87334,-0.91333 h -5.68933 z m 16.332,9.95333 7.79333,-18.83066 h 2.88267 l 7.724,18.83066 h -2.632 l -2.27733,-5.72933 h -8.67067 l -2.304,5.72933 z m 5.64133,-7.76533 h 7.03334 l -3.51467,-8.792 z m 19.34934,7.944 c -0.41734,0 -0.77467,-0.148 -1.076,-0.448 -0.3,-0.3 -0.448,-0.65867 -0.448,-1.076 0,-0.41734 0.148,-0.776 0.448,-1.076 0.296,-0.3 0.65466,-0.45334 1.076,-0.45334 0.41733,0 0.776,0.15334 1.076,0.45334 0.30133,0.296 0.44933,0.65466 0.44933,1.076 0,0.41733 -0.148,0.776 -0.44933,1.076 -0.296,0.3 -0.65467,0.448 -1.076,0.448" /><path
       id="path22"
       style="fill:#a79479;fill-opacity:1;fill-rule:nonzero;stroke:none;stroke-width:0.133333"
       d="m 367.15999,623.02001 7.792,-18.83066 h 2.88267 l 7.72533,18.83066 h -2.632 l -2.27733,-5.72933 h -8.672 l -2.304,5.72933 z m 5.64,-7.76533 h 7.03467 l -3.516,-8.792 z m 20.13867,5.58267 h 4.06666 c 1.04534,0 2.01334,-0.18 2.90667,-0.54267 0.89067,-0.364 1.676,-0.87067 2.344,-1.52533 0.672,-0.65334 1.192,-1.42134 1.56,-2.3 0.372,-0.87467 0.556,-1.82934 0.556,-2.856 0,-1.03467 -0.184,-1.99067 -0.556,-2.86934 -0.368,-0.87866 -0.888,-1.64533 -1.56,-2.29866 -0.668,-0.65467 -1.45333,-1.16667 -2.344,-1.53067 -0.89333,-0.36267 -1.86133,-0.54133 -2.90667,-0.54133 h -4.06666 z m -2.416,2.18266 v -18.83066 h 6.40666 c 1.43067,0 2.744,0.23333 3.94534,0.704 1.20133,0.46666 2.24666,1.12533 3.13866,1.968 0.88667,0.848 1.58267,1.844 2.08,2.99066 0.49334,1.148 0.74,2.40267 0.74,3.76134 0,1.35466 -0.24266,2.60533 -0.73066,3.748 -0.48934,1.148 -1.17467,2.144 -2.06667,2.98666 -0.888,0.84267 -1.94133,1.50134 -3.148,1.968 -1.21067,0.47067 -2.528,0.704 -3.95867,0.704 z m 27.16,0 -7.70667,-18.83066 h 2.60933 l 6.60934,16.504 6.716,-16.504 h 2.46533 l -7.81067,18.83066 z m 23.596,0.296 c -1.372,0 -2.644,-0.24666 -3.828,-0.74 -1.17867,-0.49333 -2.21467,-1.18266 -3.10667,-2.07066 -0.89333,-0.888 -1.58667,-1.92 -2.08133,-3.09334 -0.49734,-1.17466 -0.744,-2.444 -0.744,-3.80666 0,-1.36267 0.24666,-2.632 0.744,-3.80667 0.49466,-1.17467 1.188,-2.20533 2.08133,-3.09333 0.892,-0.888 1.928,-1.57867 3.10667,-2.072 1.184,-0.49334 2.456,-0.74 3.828,-0.74 1.35466,0 2.624,0.24666 3.80266,0.74 1.17867,0.49333 2.21467,1.184 3.10667,2.072 0.89333,0.888 1.588,1.91866 2.08133,3.09333 0.49734,1.17467 0.74267,2.444 0.74267,3.80667 0,1.36266 -0.24533,2.632 -0.74267,3.80666 -0.49333,1.17334 -1.188,2.20534 -2.08133,3.09334 -0.892,0.888 -1.928,1.57733 -3.10667,2.07066 -1.17866,0.49334 -2.448,0.74 -3.80266,0.74 z m 0,-2.228 c 1.03066,0 1.98666,-0.188 2.86533,-0.56933 0.87867,-0.37733 1.64667,-0.90667 2.308,-1.58267 0.66,-0.67733 1.176,-1.476 1.548,-2.38533 0.368,-0.91467 0.55067,-1.896 0.55067,-2.94533 0,-1.06667 -0.18267,-2.05334 -0.55067,-2.95867 -0.372,-0.90133 -0.888,-1.69467 -1.548,-2.37333 -0.66133,-0.676 -1.42933,-1.20534 -2.308,-1.58134 -0.87867,-0.38133 -1.83467,-0.57066 -2.86533,-0.57066 -1.036,0 -1.99067,0.18933 -2.87734,0.57066 -0.888,0.376 -1.66,0.90534 -2.32266,1.58134 -0.66,0.67866 -1.17467,1.472 -1.54267,2.37333 -0.372,0.90533 -0.556,1.892 -0.556,2.95867 0,1.04933 0.184,2.03066 0.556,2.94533 0.368,0.90933 0.88267,1.708 1.54267,2.38533 0.66266,0.676 1.43466,1.20534 2.32266,1.58267 0.88667,0.38133 1.84667,0.56933 2.87734,0.56933 z m 24.72666,2.224 c -1.37733,0 -2.65466,-0.24666 -3.84666,-0.74 -1.18934,-0.49333 -2.23334,-1.184 -3.13467,-2.06666 -0.896,-0.888 -1.596,-1.92 -2.08933,-3.09334 -0.49734,-1.17466 -0.744,-2.444 -0.744,-3.80666 0,-1.368 0.24666,-2.636 0.744,-3.81067 0.49333,-1.176 1.19333,-2.20667 2.09333,-3.08933 0.90133,-0.888 1.94667,-1.57867 3.13467,-2.072 1.188,-0.49334 2.47066,-0.74 3.84266,-0.74 0.99067,0 1.94933,0.12533 2.86933,0.37733 0.91867,0.25067 1.77067,0.60933 2.56,1.08133 0.79334,0.46934 1.488,1.03867 2.09334,1.716 l -1.60934,1.672 c -0.72533,-0.84266 -1.60933,-1.488 -2.64933,-1.94 -1.04,-0.45333 -2.12933,-0.67866 -3.264,-0.67866 -1.04933,0 -2.02266,0.18933 -2.91466,0.57066 -0.896,0.376 -1.672,0.90534 -2.336,1.58134 -0.664,0.67866 -1.17867,1.472 -1.54667,2.37333 -0.372,0.90533 -0.556,1.892 -0.556,2.95867 0,1.04933 0.184,2.03066 0.556,2.94133 0.37333,0.90933 0.892,1.70267 1.56533,2.384 0.668,0.67733 1.45734,1.20667 2.36267,1.58267 0.90533,0.37733 1.88267,0.56533 2.936,0.56533 1.13066,0 2.20533,-0.224 3.22933,-0.672 1.01733,-0.448 1.88267,-1.072 2.58667,-1.87467 l 1.57333,1.61467 c -0.61867,0.65867 -1.32267,1.224 -2.112,1.70267 -0.78933,0.476 -1.63733,0.83866 -2.54667,1.08933 -0.90933,0.24667 -1.84266,0.37333 -2.79733,0.37333 z m 11.40133,-0.292 7.792,-18.83066 h 2.88267 l 7.72533,18.83066 h -2.632 l -2.27733,-5.72933 h -8.67067 l -2.30533,5.72933 z m 5.64,-7.76533 h 7.03467 l -3.51467,-8.792 z m 25.71734,8.05733 c -1.37734,0 -2.65467,-0.24666 -3.84667,-0.74 -1.18933,-0.49333 -2.23333,-1.184 -3.13333,-2.06666 -0.89734,-0.888 -1.59734,-1.92 -2.09067,-3.09334 -0.49733,-1.17466 -0.744,-2.444 -0.744,-3.80666 0,-1.368 0.24667,-2.636 0.744,-3.81067 0.49333,-1.176 1.19333,-2.20667 2.09467,-3.08933 0.9,-0.888 1.94533,-1.57867 3.13333,-2.072 1.188,-0.49334 2.47067,-0.74 3.84267,-0.74 0.99066,0 1.95066,0.12533 2.86933,0.37733 0.91867,0.25067 1.77067,0.60933 2.56,1.08133 0.79333,0.46934 1.488,1.03867 2.09333,1.716 l -1.60933,1.672 c -0.72667,-0.84266 -1.60933,-1.488 -2.65067,-1.94 -1.03866,-0.45333 -2.128,-0.67866 -3.26266,-0.67866 -1.04934,0 -2.02267,0.18933 -2.91467,0.57066 -0.89733,0.376 -1.672,0.90534 -2.336,1.58134 -0.66267,0.67866 -1.17867,1.472 -1.54667,2.37333 -0.372,0.90533 -0.556,1.892 -0.556,2.95867 0,1.04933 0.184,2.03066 0.556,2.94133 0.372,0.90933 0.892,1.70267 1.56534,2.384 0.668,0.67733 1.456,1.20667 2.36266,1.58267 0.90534,0.37733 1.88267,0.56533 2.936,0.56533 1.12934,0 2.20534,-0.224 3.22934,-0.672 1.01733,-0.448 1.88266,-1.072 2.58666,-1.87467 l 1.57334,1.61467 c -0.61867,0.65867 -1.32267,1.224 -2.112,1.70267 -0.78934,0.476 -1.63734,0.83866 -2.54667,1.08933 -0.90933,0.24667 -1.84267,0.37333 -2.79733,0.37333 z m 13.33866,-0.292 v -18.83066 h 2.416 v 18.83066 z m 7.37867,0 7.792,-18.83066 h 2.884 l 7.724,18.83066 h -2.63067 l -2.27866,-5.72933 h -8.67067 l -2.304,5.72933 z m 5.64,-7.76533 h 7.03467 l -3.516,-8.792 z m 26.328,7.76533 v -18.83066 h 13.66 v 2.12533 h -11.244 v 6.156 h 7.35733 v 2.08533 h -7.35733 v 6.33867 h 11.352 v 2.12533 z m 26.276,0 7.79333,-18.83066 h 2.88267 l 7.72533,18.83066 h -2.632 l -2.27733,-5.72933 h -8.672 l -2.304,5.72933 z m 5.64133,-7.76533 h 7.03333 l -3.51466,-8.792 z m 24.344,8.03467 c -1.49333,0 -2.932,-0.296 -4.31333,-0.892 -1.376,-0.59734 -2.596,-1.448 -3.65334,-2.556 l 1.53734,-1.69067 c 0.99066,1.02667 2.03066,1.78933 3.116,2.296 1.08533,0.50267 2.228,0.75333 3.42933,0.75333 0.95067,0 1.79067,-0.144 2.516,-0.43466 0.72667,-0.292 1.296,-0.7 1.704,-1.224 0.408,-0.52534 0.60933,-1.12534 0.60933,-1.79867 0,-0.90533 -0.31333,-1.604 -0.95066,-2.09333 -0.636,-0.484 -1.68134,-0.852 -3.14267,-1.08934 l -2.91467,-0.47066 c -1.77066,-0.30134 -3.084,-0.84267 -3.94,-1.632 -0.856,-0.78934 -1.28266,-1.848 -1.28266,-3.184 0,-1.06667 0.28266,-1.99867 0.84666,-2.79734 0.56,-0.80266 1.35467,-1.42666 2.372,-1.86933 1.01734,-0.44 2.196,-0.66267 3.54667,-0.66267 1.336,0 2.65467,0.21867 3.95333,0.65334 1.30667,0.44 2.48,1.06266 3.53867,1.87466 l -1.35867,1.86 c -2.04533,-1.55066 -4.12533,-2.32666 -6.24533,-2.32666 -0.86133,0 -1.61867,0.13066 -2.26933,0.38533 -0.64934,0.26133 -1.152,0.61867 -1.50934,1.076 -0.36,0.46267 -0.53866,1 -0.53866,1.61867 0,0.82533 0.27733,1.45333 0.83866,1.89333 0.55467,0.43333 1.47867,0.75733 2.76134,0.96267 l 2.856,0.45733 c 2.03066,0.332 3.51066,0.91467 4.44266,1.744 0.93334,0.82933 1.404,1.97733 1.404,3.448 0,1.116 -0.30933,2.10667 -0.928,2.968 -0.61466,0.86133 -1.48,1.53333 -2.584,2.01333 -1.10666,0.47867 -2.384,0.71734 -3.84133,0.71734 z m 19.46267,0 c -1.49334,0 -2.932,-0.296 -4.31334,-0.892 -1.376,-0.59734 -2.596,-1.448 -3.65333,-2.556 l 1.53733,-1.69067 c 0.99067,1.02667 2.032,1.78933 3.116,2.296 1.08534,0.50267 2.228,0.75333 3.42934,0.75333 0.95066,0 1.78933,-0.144 2.516,-0.43466 0.72533,-0.292 1.296,-0.7 1.704,-1.224 0.408,-0.52534 0.60933,-1.12534 0.60933,-1.79867 0,-0.90533 -0.31333,-1.604 -0.95067,-2.09333 -0.63733,-0.484 -1.68133,-0.852 -3.14266,-1.08934 l -2.91467,-0.47066 c -1.77067,-0.30134 -3.084,-0.84267 -3.94,-1.632 -0.856,-0.78934 -1.28267,-1.848 -1.28267,-3.184 0,-1.06667 0.28267,-1.99867 0.84667,-2.79734 0.56,-0.80266 1.35467,-1.42666 2.372,-1.86933 1.01733,-0.44 2.196,-0.66267 3.54667,-0.66267 1.336,0 2.65333,0.21867 3.95333,0.65334 1.30533,0.44 2.48,1.06266 3.53867,1.87466 l -1.35867,1.86 c -2.04533,-1.55066 -4.12533,-2.32666 -6.24533,-2.32666 -0.86134,0 -1.61867,0.13066 -2.26934,0.38533 -0.64933,0.26133 -1.152,0.61867 -1.51066,1.076 -0.35867,0.46267 -0.53734,1 -0.53734,1.61867 0,0.82533 0.27734,1.45333 0.83734,1.89333 0.55733,0.43333 1.48,0.75733 2.76266,0.96267 l 2.856,0.45733 c 2.03067,0.332 3.51067,0.91467 4.44267,1.744 0.93333,0.82933 1.404,1.97733 1.404,3.448 0,1.116 -0.30933,2.10667 -0.92933,2.968 -0.61334,0.86133 -1.47867,1.53333 -2.58134,2.01333 -1.108,0.47867 -2.38533,0.71734 -3.84266,0.71734 z m 12.97466,-0.26934 v -18.83066 h 13.66134 v 2.12533 h -11.244 v 6.156 h 7.356 v 2.08533 h -7.356 v 6.33867 h 11.352 v 2.12533 z m 25.828,0.26934 c -1.492,0 -2.93066,-0.296 -4.312,-0.892 -1.376,-0.59734 -2.596,-1.448 -3.65333,-2.556 l 1.53733,-1.69067 c 0.99067,1.02667 2.03067,1.78933 3.116,2.296 1.08534,0.50267 2.228,0.75333 3.42934,0.75333 0.95066,0 1.78933,-0.144 2.516,-0.43466 0.72666,-0.292 1.296,-0.7 1.704,-1.224 0.408,-0.52534 0.60933,-1.12534 0.60933,-1.79867 0,-0.90533 -0.31333,-1.604 -0.95067,-2.09333 -0.636,-0.484 -1.68133,-0.852 -3.144,-1.08934 l -2.91333,-0.47066 c -1.77067,-0.30134 -3.08533,-0.84267 -3.94133,-1.632 -0.856,-0.78934 -1.28134,-1.848 -1.28134,-3.184 0,-1.06667 0.28267,-1.99867 0.84667,-2.79734 0.56133,-0.80266 1.35467,-1.42666 2.372,-1.86933 1.01733,-0.44 2.196,-0.66267 3.54667,-0.66267 1.336,0 2.65333,0.21867 3.95466,0.65334 1.304,0.44 2.47867,1.06266 3.53734,1.87466 l -1.35867,1.86 c -2.04533,-1.55066 -4.124,-2.32666 -6.24533,-2.32666 -0.86134,0 -1.61867,0.13066 -2.26934,0.38533 -0.64933,0.26133 -1.152,0.61867 -1.51066,1.076 -0.35867,0.46267 -0.53734,1 -0.53734,1.61867 0,0.82533 0.27734,1.45333 0.83867,1.89333 0.55467,0.43333 1.47867,0.75733 2.76133,0.96267 l 2.856,0.45733 c 2.03067,0.332 3.51067,0.91467 4.44267,1.744 0.93333,0.82933 1.404,1.97733 1.404,3.448 0,1.116 -0.30933,2.10667 -0.92933,2.968 -0.61334,0.86133 -1.47867,1.53333 -2.58267,2.01333 -1.10667,0.47867 -2.384,0.71734 -3.84267,0.71734 z m 19.464,0 c -1.49333,0 -2.932,-0.296 -4.31333,-0.892 -1.376,-0.59734 -2.596,-1.448 -3.65333,-2.556 l 1.53733,-1.69067 c 0.99067,1.02667 2.03067,1.78933 3.116,2.296 1.08533,0.50267 2.228,0.75333 3.42933,0.75333 0.95067,0 1.78934,-0.144 2.516,-0.43466 0.72534,-0.292 1.29467,-0.7 1.704,-1.224 0.408,-0.52534 0.60934,-1.12534 0.60934,-1.79867 0,-0.90533 -0.31334,-1.604 -0.95067,-2.09333 -0.63733,-0.484 -1.68133,-0.852 -3.144,-1.08934 l -2.91333,-0.47066 c -1.77067,-0.30134 -3.084,-0.84267 -3.94,-1.632 -0.85734,-0.78934 -1.28267,-1.848 -1.28267,-3.184 0,-1.06667 0.28267,-1.99867 0.84667,-2.79734 0.56,-0.80266 1.35466,-1.42666 2.372,-1.86933 1.01733,-0.44 2.19733,-0.66267 3.54666,-0.66267 1.336,0 2.65334,0.21867 3.95334,0.65334 1.30533,0.44 2.48,1.06266 3.53866,1.87466 l -1.35866,1.86 c -2.04534,-1.55066 -4.12534,-2.32666 -6.24667,-2.32666 -0.86,0 -1.61733,0.13066 -2.268,0.38533 -0.64933,0.26133 -1.152,0.61867 -1.51067,1.076 -0.35866,0.46267 -0.53733,1 -0.53733,1.61867 0,0.82533 0.27733,1.45333 0.83733,1.89333 0.55734,0.43333 1.48,0.75733 2.76267,0.96267 l 2.856,0.45733 c 2.03067,0.332 3.51067,0.91467 4.44267,1.744 0.932,0.82933 1.404,1.97733 1.404,3.448 0,1.116 -0.30934,2.10667 -0.92934,2.968 -0.61333,0.86133 -1.47866,1.53333 -2.58266,2.01333 -1.10667,0.47867 -2.384,0.71734 -3.84134,0.71734 z m 21.87467,0.0267 c -1.372,0 -2.64533,-0.24666 -3.82933,-0.74 -1.17867,-0.49333 -2.21467,-1.18266 -3.10667,-2.07066 -0.89333,-0.888 -1.588,-1.92 -2.08133,-3.09334 -0.49734,-1.17466 -0.74267,-2.444 -0.74267,-3.80666 0,-1.36267 0.24533,-2.632 0.74267,-3.80667 0.49333,-1.17467 1.188,-2.20533 2.08133,-3.09333 0.892,-0.888 1.928,-1.57867 3.10667,-2.072 1.184,-0.49334 2.45733,-0.74 3.82933,-0.74 1.35333,0 2.62267,0.24666 3.80267,0.74 1.17733,0.49333 2.21333,1.184 3.10533,2.072 0.89333,0.888 1.588,1.91866 2.08133,3.09333 0.49734,1.17467 0.744,2.444 0.744,3.80667 0,1.36266 -0.24666,2.632 -0.744,3.80666 -0.49333,1.17334 -1.188,2.20534 -2.08133,3.09334 -0.892,0.888 -1.928,1.57733 -3.10533,2.07066 -1.18,0.49334 -2.44934,0.74 -3.80267,0.74 z m 0,-2.228 c 1.03067,0 1.98533,-0.188 2.864,-0.56933 0.87867,-0.37733 1.64667,-0.90667 2.30933,-1.58267 0.66,-0.67733 1.17467,-1.476 1.54667,-2.38533 0.368,-0.91467 0.552,-1.896 0.552,-2.94533 0,-1.06667 -0.184,-2.05334 -0.552,-2.95867 -0.372,-0.90133 -0.88667,-1.69467 -1.54667,-2.37333 -0.66266,-0.676 -1.43066,-1.20534 -2.30933,-1.58134 -0.87867,-0.38133 -1.83333,-0.57066 -2.864,-0.57066 -1.036,0 -1.99067,0.18933 -2.87867,0.57066 -0.888,0.376 -1.65866,0.90534 -2.32266,1.58134 -0.65867,0.67866 -1.17334,1.472 -1.54134,2.37333 -0.37333,0.90533 -0.55733,1.892 -0.55733,2.95867 0,1.04933 0.184,2.03066 0.55733,2.94533 0.368,0.90933 0.88267,1.708 1.54134,2.38533 0.664,0.676 1.43466,1.20534 2.32266,1.58267 0.888,0.38133 1.848,0.56933 2.87867,0.56933 z m 15.772,1.932 v -18.83066 h 8.28133 c 1.24667,0 2.33067,0.22933 3.25467,0.68666 0.928,0.45734 1.64933,1.09334 2.17066,1.91467 0.51867,0.82 0.77467,1.784 0.77467,2.88667 0,1.228 -0.35333,2.292 -1.07067,3.188 -0.71866,0.892 -1.67333,1.524 -2.86933,1.9 l 4.20933,8.25466 h -2.68133 l -3.968,-7.92666 h -5.684 v 7.92666 z m 2.41733,-9.95333 h 5.68933 c 1.19734,0 2.156,-0.30533 2.87334,-0.91467 0.71733,-0.61333 1.076,-1.43466 1.076,-2.46533 0,-1.01333 -0.35867,-1.82533 -1.076,-2.43867 -0.71734,-0.60933 -1.676,-0.916 -2.87334,-0.916 h -5.68933 z m 18,9.95333 v -18.83066 h 2.41733 v 18.83066 z m 7.38,0 7.792,-18.83066 h 2.88267 l 7.72533,18.83066 h -2.632 l -2.27867,-5.72933 h -8.67066 l -2.304,5.72933 z m 5.64,-7.76533 h 7.03467 l -3.516,-8.792 z m 31.76,8.05733 c -1.668,0 -3.10667,-0.43066 -4.32133,-1.296 -1.21467,-0.86133 -2.09867,-2.08 -2.65867,-3.65466 l 2.21067,-0.892 c 0.46533,1.22 1.09733,2.13066 1.9,2.72533 0.80266,0.59733 1.76666,0.89867 2.896,0.89867 1.46666,0 2.64133,-0.47734 3.516,-1.42667 0.87333,-0.95067 1.31333,-2.228 1.31333,-3.82933 v -11.648 h 2.42133 v 11.68933 c 0,1.51067 -0.3,2.82 -0.892,3.936 -0.59733,1.12 -1.44,1.98133 -2.524,2.58667 -1.08533,0.60533 -2.37333,0.91066 -3.86133,0.91066 z m 21.32267,0 c -1.61334,0 -3.012,-0.336 -4.192,-1.01333 -1.184,-0.67333 -2.09334,-1.632 -2.73067,-2.87467 -0.636,-1.24133 -0.95467,-2.708 -0.95467,-4.39733 v -10.83733 h 2.41734 v 10.83733 c 0,1.228 0.224,2.29467 0.672,3.20533 0.444,0.90534 1.08133,1.60934 1.90533,2.10267 0.82933,0.49733 1.78933,0.744 2.888,0.744 1.116,0 2.084,-0.24667 2.9,-0.744 0.812,-0.49333 1.444,-1.19733 1.89333,-2.10267 0.44667,-0.91066 0.668,-1.97733 0.668,-3.20533 v -10.83733 h 2.42 v 10.83733 c 0,1.68533 -0.32266,3.152 -0.968,4.39333 -0.65066,1.24267 -1.56,2.20134 -2.73066,2.87867 -1.17467,0.67733 -2.568,1.01333 -4.188,1.01333 z m 14.424,-0.292 v -18.83066 h 8.28 c 1.24666,0 2.332,0.22933 3.256,0.68666 0.92666,0.45734 1.64933,1.09334 2.16933,1.91467 0.52,0.82 0.776,1.784 0.776,2.88667 0,1.228 -0.35467,2.292 -1.072,3.188 -0.71733,0.892 -1.672,1.524 -2.86933,1.9 l 4.21066,8.25466 h -2.68133 l -3.968,-7.92666 h -5.68533 v 7.92666 z m 2.416,-9.95333 h 5.68933 c 1.19733,0 2.15733,-0.30533 2.87467,-0.91467 0.71733,-0.61333 1.07466,-1.43466 1.07466,-2.46533 0,-1.01333 -0.35733,-1.82533 -1.07466,-2.43867 -0.71734,-0.60933 -1.67734,-0.916 -2.87467,-0.916 h -5.68933 z m 17.98666,9.95333 v -18.83066 h 2.42134 v 18.83066 z m -0.564,-21.41333 2.50134,-3.2 h 2.87866 l -3.416,3.2 z m 12.31067,19.23067 h 4.06666 c 1.04534,0 2.01334,-0.18 2.90534,-0.54267 0.892,-0.364 1.676,-0.87067 2.34533,-1.52533 0.672,-0.65334 1.192,-1.42134 1.56,-2.3 0.372,-0.87467 0.556,-1.82934 0.556,-2.856 0,-1.03467 -0.184,-1.99067 -0.556,-2.86934 -0.368,-0.87866 -0.888,-1.64533 -1.56,-2.29866 -0.66933,-0.65467 -1.45333,-1.16667 -2.34533,-1.53067 -0.892,-0.36267 -1.86,-0.54133 -2.90534,-0.54133 h -4.06666 z m -2.416,2.18266 v -18.83066 h 6.40666 c 1.43067,0 2.744,0.23333 3.94534,0.704 1.20133,0.46666 2.24666,1.12533 3.13866,1.968 0.88667,0.848 1.58267,1.844 2.08,2.99066 0.49334,1.148 0.74,2.40267 0.74,3.76134 0,1.35466 -0.24266,2.60533 -0.73066,3.748 -0.48934,1.148 -1.17467,2.144 -2.068,2.98666 -0.88667,0.84267 -1.94,1.50134 -3.14667,1.968 -1.21067,0.47067 -2.528,0.704 -3.95867,0.704 z m 22.34933,0 v -18.83066 h 2.41733 v 18.83066 z m 18.27067,0.292 c -1.37734,0 -2.65467,-0.24666 -3.84667,-0.74 -1.18933,-0.49333 -2.23333,-1.184 -3.13467,-2.06666 -0.896,-0.888 -1.596,-1.92 -2.08933,-3.09334 -0.49733,-1.17466 -0.744,-2.444 -0.744,-3.80666 0,-1.368 0.24667,-2.636 0.744,-3.81067 0.49333,-1.176 1.19333,-2.20667 2.09467,-3.08933 0.9,-0.888 1.94533,-1.57867 3.13333,-2.072 1.188,-0.49334 2.47067,-0.74 3.84267,-0.74 0.99066,0 1.94933,0.12533 2.86933,0.37733 0.91867,0.25067 1.77067,0.60933 2.56,1.08133 0.79333,0.46934 1.488,1.03867 2.09333,1.716 l -1.60933,1.672 c -0.72667,-0.84266 -1.60933,-1.488 -2.65067,-1.94 -1.04,-0.45333 -2.128,-0.67866 -3.26266,-0.67866 -1.04934,0 -2.02267,0.18933 -2.91467,0.57066 -0.89733,0.376 -1.672,0.90534 -2.336,1.58134 -0.664,0.67866 -1.17867,1.472 -1.54667,2.37333 -0.372,0.90533 -0.556,1.892 -0.556,2.95867 0,1.04933 0.184,2.03066 0.556,2.94133 0.372,0.90933 0.892,1.70267 1.56534,2.384 0.668,0.67733 1.456,1.20667 2.36266,1.58267 0.90534,0.37733 1.88267,0.56533 2.936,0.56533 1.12934,0 2.20534,-0.224 3.228,-0.672 1.01867,-0.448 1.88267,-1.072 2.588,-1.87467 l 1.57334,1.61467 c -0.61867,0.65867 -1.32267,1.224 -2.112,1.70267 -0.78934,0.476 -1.63734,0.83866 -2.54667,1.08933 -0.90933,0.24667 -1.84267,0.37333 -2.79733,0.37333 z m 11.40133,-0.292 7.792,-18.83066 h 2.88267 l 7.72533,18.83066 h -2.632 l -2.27733,-5.72933 h -8.67067 l -2.30533,5.72933 z m 5.64,-7.76533 h 7.03467 l -3.516,-8.792 z" /><g
       id="g24"
       transform="matrix(0.13333333,0,0,-0.13333333,0,1124)"><g
         clip-path="url(#clipPath30)"
         id="g26"><path
           id="path44"
           style="fill:url(#linearGradient42);fill-opacity:1;fill-rule:nonzero;stroke:none"
           d="m 2316.56,4534.75 v -862.23 h -44.95 v 794.25 l -500.23,-561.55 -498.33,559.41 v 45 l 498.33,-559.42 520.71,584.54 z m -444.12,-208 c -100.56,-40.86 -202.84,-81.61 -295.38,-135.91 l -19.15,21.5 c 114.4,62.8 243.61,114.2 361.13,166.73 z m -346.73,-168.26 c -74.84,-50.72 -141.16,-113.02 -191.98,-195.23 -56.39,-91.24 -67.37,-191.68 12.87,-290.64 l -118.92,0.14 c -0.6,28.39 -0.63,55.56 0.41,81.73 v 1011.58 h 26.78 3.19 v -0.12 l 2.25,-0.09 422.68,-474.49 c -9.47,-4.36 -18.91,-8.76 -28.31,-13.21 l -396.62,445.23 v -803.76 c 9.14,23.97 20.8,47.35 35.62,70.37 49.35,76.71 124.29,138.49 211.33,191.74 z m 196.31,89.08 49.96,-56.09 511.85,574.59 H 2317 c 8.33,-164.68 -77.67,-258.37 -205.41,-330.06 -35.42,-19.88 -72.58,-37.97 -110.77,-55.13 l 59.29,66.56 c 10.82,5.87 21.41,11.8 31.7,17.83 111.25,65.21 188.21,142.05 189.71,253.21 l -509.54,-572 -78.45,88.06 c 9.45,4.41 18.95,8.75 28.49,13.03" /></g></g></g></svg>
