<?xml version="1.0" encoding="UTF-8" standalone="no"?>
<svg
   viewBox="0 0 731.91864 335.70932"
   height="335.70932"
   width="731.91864"
   xml:space="preserve"
   id="svg2"
   version="1.1"
   sodipodi:docname="logo-stacked.svg"
   inkscape:version="1.2.2 (b0a8486541, 2022-12-01)"
   xmlns:inkscape="http://www.inkscape.org/namespaces/inkscape"
   xmlns:sodipodi="http://sodipodi.sourceforge.net/DTD/sodipodi-0.dtd"
   xmlns="http://www.w3.org/2000/svg"
   xmlns:svg="http://www.w3.org/2000/svg"
   xmlns:rdf="http://www.w3.org/1999/02/22-rdf-syntax-ns#"
   xmlns:cc="http://creativecommons.org/ns#"
   xmlns:dc="http://purl.org/dc/elements/1.1/"><sodipodi:namedview
     id="namedview22"
     pagecolor="#ffffff"
     bordercolor="#000000"
     borderopacity="0.25"
     inkscape:showpageshadow="2"
     inkscape:pageopacity="0.0"
     inkscape:pagecheckerboard="0"
     inkscape:deskcolor="#d1d1d1"
     showgrid="false"
     inkscape:zoom="0.69839858"
     inkscape:cx="363.68917"
     inkscape:cy="168.24204"
     inkscape:window-width="1854"
     inkscape:window-height="1011"
     inkscape:window-x="0"
     inkscape:window-y="0"
     inkscape:window-maximized="1"
     inkscape:current-layer="svg2" /><metadata
     id="metadata8"><rdf:RDF><cc:Work
         rdf:about=""><dc:format>image/svg+xml</dc:format><dc:type
           rdf:resource="http://purl.org/dc/dcmitype/StillImage" /></cc:Work></rdf:RDF></metadata><defs
     id="defs6"><clipPath
       id="clipPath28"
       clipPathUnits="userSpaceOnUse"><path
         id="path26"
         d="m 4849.71,5198.99 v -991.54 h -51.69 v 913.35 l -575.24,-645.75 -573.06,643.3 v 51.74 l 573.06,-643.3 598.8,672.2 z M 4339,4959.8 c -115.65,-47 -233.26,-93.85 -339.68,-156.3 l -22.02,24.72 c 131.56,72.23 280.15,131.32 415.29,191.73 z m -398.72,-193.5 c -86.08,-58.32 -162.33,-129.96 -220.78,-224.51 -64.84,-104.92 -77.48,-220.41 14.8,-334.22 l -136.76,0.16 c -0.68,32.65 -0.72,63.9 0.49,93.98 v 1163.28 h 30.78 3.68 v -0.14 l 2.58,-0.1 486.07,-545.64 c -10.89,-5.02 -21.75,-10.09 -32.55,-15.2 l -456.1,512 v -924.29 c 10.51,27.56 23.92,54.45 40.96,80.93 56.75,88.21 142.93,159.25 243.02,220.48 z m 225.73,102.43 57.46,-64.5 588.6,660.76 h 38.15 c 9.58,-189.37 -89.32,-297.11 -236.21,-379.55 -40.73,-22.87 -83.47,-43.67 -127.39,-63.4 l 68.18,76.53 c 12.45,6.75 24.63,13.58 36.46,20.51 127.93,74.99 216.43,163.35 218.16,291.19 l -585.95,-657.78 -90.21,101.27 c 10.87,5.07 21.78,10.06 32.75,14.97 z" /></clipPath><linearGradient
       id="linearGradient40"
       spreadMethod="pad"
       gradientTransform="matrix(10,0,0,10,10,10)"
       gradientUnits="userSpaceOnUse"
       y2="558.69702"
       x2="479.13101"
       y1="401.62399"
       x1="365.647"><stop
         id="stop30"
         offset="0"
         style="stop-opacity:1;stop-color:#6d5437" /><stop
         id="stop32"
         offset="0.273438"
         style="stop-opacity:1;stop-color:#8f785d" /><stop
         id="stop34"
         offset="0.492188"
         style="stop-opacity:1;stop-color:#c2b499" /><stop
         id="stop36"
         offset="0.75"
         style="stop-opacity:1;stop-color:#8f785d" /><stop
         id="stop38"
         offset="1"
         style="stop-opacity:1;stop-color:#6d5437" /></linearGradient></defs><g
     id="g149"
     transform="translate(-196.99733,-395.33468)"><path
       id="path16"
       style="fill:#eae7e2;fill-opacity:1;fill-rule:nonzero;stroke:none;stroke-width:0.133333"
       d="m 223.62133,682.54001 c 0.19466,0.47867 0.376,0.95067 0.54133,1.41467 h 2.36267 c 0.12666,-0.46534 0.268,-0.93067 0.42133,-1.39067 0.192,-0.572 0.40267,-1.14267 0.62933,-1.70533 l 1.908,-4.71734 13.28267,-31.34933 h 0.78933 l 1.384,31.76533 c 0.048,0.83467 0.052,1.55867 0.008,2.17467 -0.0427,0.636 -0.13733,1.16133 -0.28,1.57733 -0.14933,0.43734 -0.364,0.80267 -0.63866,1.09067 -0.28,0.296 -0.62267,0.508 -1.02267,0.636 -0.35467,0.11333 -0.77067,0.21333 -1.24267,0.29333 -0.36933,0.064 -0.77466,0.11734 -1.21333,0.16 v 0.88934 h 15.89867 v -0.88 c -0.64267,-0.0453 -1.232,-0.10134 -1.76267,-0.168 -0.63333,-0.08 -1.18,-0.176 -1.63733,-0.28667 -0.50267,-0.12267 -0.93067,-0.32533 -1.28267,-0.608 -0.35467,-0.28533 -0.63333,-0.65333 -0.82533,-1.09733 -0.18,-0.41067 -0.328,-0.93334 -0.44134,-1.564 -0.11066,-0.62 -0.192,-1.344 -0.24,-2.17067 l -1.51066,-33.48133 c -0.0253,-0.86 -0.009,-1.59867 0.0453,-2.22 0.0573,-0.64267 0.15733,-1.16533 0.29867,-1.56533 0.15333,-0.43067 0.384,-0.79334 0.688,-1.084 0.30266,-0.288 0.67866,-0.504 1.12,-0.64134 0.40133,-0.12533 0.88133,-0.22666 1.43466,-0.30133 0.43467,-0.0587 0.91867,-0.104 1.44934,-0.13067 v -0.872 h -10.67067 l -0.45067,1.508 c -0.18,0.57467 -0.376,1.17067 -0.58933,1.784 -0.208,0.6 -0.42933,1.20267 -0.66133,1.80534 -0.23067,0.59733 -0.48134,1.216 -0.75067,1.85466 l -13.49333,32.20933 h -0.668 l -14.64934,-32.19733 c -0.62,-1.33866 -1.16266,-2.57066 -1.624,-3.68666 -0.23466,-0.56667 -0.45733,-1.14534 -0.664,-1.72667 -0.176,-0.49333 -0.35066,-1.01067 -0.52,-1.55067 H 197.5013 v 0.868 c 0.764,0.0253 1.44133,0.072 2.032,0.13334 0.70533,0.0733 1.296,0.17333 1.772,0.29866 0.512,0.13467 0.944,0.344 1.292,0.62267 0.35733,0.28933 0.63066,0.65067 0.812,1.08533 0.16933,0.40667 0.28533,0.93734 0.34266,1.58667 0.056,0.62667 0.06,1.36933 0.0107,2.22533 l -1.656,33.47067 c -0.0253,0.92133 -0.14267,1.73466 -0.34667,2.43333 -0.21333,0.72267 -0.524,1.33467 -0.93066,1.832 -0.41467,0.50933 -0.98533,0.90533 -1.704,1.18267 -0.60133,0.232 -1.312,0.38266 -2.128,0.45066 v 0.88134 h 14.53066 v -0.87067 c -1.32,-0.0613 -2.428,-0.21067 -3.31733,-0.448 -1.02133,-0.27067 -1.77467,-0.66267 -2.25733,-1.172 -0.476,-0.50267 -0.82534,-1.12133 -1.04667,-1.852 -0.216,-0.71067 -0.312,-1.53467 -0.28667,-2.46533 l 1.45867,-31.27467 h 0.78267 l 13.85466,30.832 2.15734,4.71067 c 0.27466,0.58533 0.52533,1.15466 0.748,1.70133 z m 44.96133,-0.0347 v 0.87334 h 17.196 v -0.86667 c -0.788,-0.0267 -1.49333,-0.0733 -2.112,-0.13467 -0.73067,-0.0747 -1.35467,-0.17333 -1.86533,-0.29733 -0.544,-0.13333 -1.008,-0.34133 -1.388,-0.62667 -0.388,-0.292 -0.68934,-0.66133 -0.896,-1.10533 -0.196,-0.42 -0.344,-0.94933 -0.43867,-1.58533 -0.0933,-0.62267 -0.14,-1.35067 -0.14,-2.18134 v -33.47466 c 0,-0.84933 0.0413,-1.59067 0.12133,-2.22133 0.0827,-0.64 0.20934,-1.16534 0.38,-1.56934 0.17467,-0.42133 0.41467,-0.77733 0.71334,-1.06266 0.3,-0.28534 0.66,-0.49867 1.07466,-0.63734 0.384,-0.128 0.84134,-0.23066 1.36934,-0.30533 0.412,-0.0587 0.872,-0.10267 1.38133,-0.13067 v -0.872 h -17.19467 v 0.86667 c 0.808,0.0253 1.528,0.0707 2.156,0.13467 0.74134,0.0733 1.36267,0.172 1.85867,0.29733 0.52933,0.132 0.984,0.33867 1.35467,0.616 0.38266,0.284 0.68,0.64133 0.888,1.07333 0.19733,0.408 0.34533,0.93734 0.44133,1.58267 0.092,0.62667 0.13867,1.37067 0.13867,2.228 v 33.47466 c 0,0.828 -0.0373,1.552 -0.11067,2.16934 -0.0747,0.62933 -0.192,1.15333 -0.34667,1.568 -0.164,0.44133 -0.39866,0.808 -0.69866,1.10133 -0.30267,0.296 -0.672,0.51333 -1.10267,0.652 -0.392,0.12667 -0.85733,0.228 -1.39067,0.304 -0.416,0.0573 -0.88,0.10267 -1.38933,0.12933 z m 67.396,1.11334 c 0.78933,0.128 1.668,0.192 2.636,0.192 0.56933,0 1.16133,-0.024 1.76933,-0.0707 0.5,-0.0387 1.00133,-0.12533 1.50133,-0.26133 v -0.96134 c -0.396,-0.0147 -0.776,-0.0507 -1.13733,-0.108 -0.484,-0.076 -0.93067,-0.192 -1.33733,-0.34266 -0.416,-0.156 -0.83867,-0.38534 -1.268,-0.688 -0.42534,-0.29734 -0.85467,-0.664 -1.28667,-1.09467 -0.83867,-0.83867 -1.94,-2.06 -3.29733,-3.66133 l -14.99733,-18.40267 v -0.628 l 0.34133,-0.052 c 1.83733,-0.28266 3.51467,-0.74933 5.02267,-1.39466 1.50533,-0.644 2.84933,-1.46934 4.02933,-2.47334 2.32667,-1.98133 3.492,-4.49733 3.492,-7.54266 0,-1.47334 -0.30533,-2.81467 -0.91867,-4.02134 -0.61333,-1.21333 -1.54,-2.29866 -2.776,-3.25733 -1.24,-0.96133 -2.83866,-1.68533 -4.792,-2.16933 -1.97333,-0.48934 -4.31466,-0.73334 -7.02133,-0.73334 -1.632,0 -3.4,0.06 -5.30267,0.17867 -0.95466,0.0587 -2.09466,0.104 -3.41866,0.13467 -1.35334,0.0307 -2.84,0.0467 -4.45334,0.0467 h -6.43733 v 0.86667 c 0.80933,0.0253 1.52933,0.0707 2.156,0.13467 0.74133,0.0733 1.36267,0.172 1.86,0.29733 0.52933,0.132 0.984,0.33867 1.35467,0.616 0.38133,0.284 0.67866,0.64133 0.888,1.07333 0.19733,0.408 0.34533,0.93734 0.44133,1.58267 0.092,0.62667 0.13867,1.37067 0.13867,2.228 v 33.47466 c 0,0.828 -0.0373,1.552 -0.11067,2.16934 -0.076,0.62933 -0.19333,1.15333 -0.348,1.568 -0.164,0.44 -0.39733,0.808 -0.696,1.1 -0.30133,0.296 -0.67067,0.51466 -1.104,0.65333 -0.39333,0.12667 -0.85733,0.228 -1.39067,0.304 -0.416,0.0573 -0.88,0.10267 -1.38933,0.12933 v 0.87334 h 17.12267 v -0.86667 c -0.78534,-0.0267 -1.488,-0.0733 -2.10267,-0.13467 -0.72933,-0.0747 -1.344,-0.17333 -1.84,-0.29733 -0.53333,-0.13333 -0.988,-0.344 -1.36133,-0.628 -0.37867,-0.292 -0.676,-0.66 -0.884,-1.104 -0.19734,-0.42 -0.344,-0.94933 -0.43867,-1.58533 -0.0933,-0.62 -0.14,-1.348 -0.14,-2.18134 v -33.47466 c 0,-1.14133 0.11067,-2.07867 0.33333,-2.808 0.23867,-0.78267 0.608,-1.33867 1.108,-1.668 0.908,-0.59333 2.26667,-0.892 4.07067,-0.892 1.89867,0 3.70933,0.22133 5.42667,0.66133 0.87866,0.22534 1.676,0.556 2.392,0.988 0.71866,0.43334 1.35866,0.976 1.91466,1.62 1.12,1.3 1.68134,3.17734 1.68134,5.62534 0,1.788 -0.33867,3.356 -1.016,4.69733 -0.67867,1.34667 -1.69867,2.46133 -3.05467,3.34133 -1.33867,0.86667 -2.93867,1.46934 -4.79067,1.80267 -1.72133,0.30933 -3.664,0.38933 -5.824,0.23733 v 1.37733 c 0.15334,0.0267 0.29734,0.06 0.42934,0.10267 0.24666,0.0773 0.46666,0.18267 0.65733,0.31467 0.17733,0.124 0.39467,0.32 0.64667,0.584 0.23866,0.25066 0.52133,0.576 0.84,0.96933 l 14.82933,18.212 c 0.4,0.492 0.81467,0.97333 1.244,1.43867 0.42667,0.46133 0.86533,0.90533 1.31333,1.33066 0.436,0.41334 0.92,0.788 1.44934,1.12134 0.528,0.33333 1.10933,0.62933 1.73733,0.88533 0.62266,0.25333 1.32666,0.44533 2.108,0.57067 z m 14.224,-1.11334 v 0.87334 h 36.58133 l 0.53467,-10.428 h -0.876 c -0.0787,0.66266 -0.20267,1.30533 -0.368,1.924 -0.19867,0.736 -0.46,1.448 -0.78134,2.128 -0.32933,0.69733 -0.75466,1.32666 -1.27466,1.88533 -0.51734,0.55467 -1.13067,1.04 -1.83467,1.456 -0.708,0.41867 -1.548,0.732 -2.51333,0.93867 -0.95334,0.20266 -2.032,0.30533 -3.23334,0.30533 h -10.00666 c -1.1,0 -2.02534,-0.0653 -2.776,-0.19467 -0.77867,-0.13466 -1.38267,-0.348 -1.80134,-0.63066 -0.86266,-0.58267 -1.29466,-1.97734 -1.29466,-4.18134 v -14.90266 c 0,-0.664 0.072,-1.22534 0.216,-1.684 0.156,-0.496 0.39866,-0.87734 0.724,-1.14534 0.60133,-0.492 1.59866,-0.73866 2.988,-0.73866 h 10.00666 c 0.87334,0 1.61867,0.0867 2.232,0.25866 0.644,0.18134 1.14934,0.46 1.512,0.836 0.35867,0.37334 0.632,0.92267 0.81867,1.64534 0.15067,0.59466 0.248,1.31333 0.28667,2.15466 h 0.86933 v -11.43599 h -0.87867 c -0.124,1.49333 -0.56133,2.64 -1.30933,3.43733 -0.82267,0.876 -2,1.31467 -3.53067,1.31467 h -10.15066 c -0.38,0 -0.728,0.012 -1.04267,0.0333 -0.31467,0.0227 -0.60667,0.0573 -0.86933,0.104 -0.24934,0.0427 -0.47734,0.108 -0.68,0.19067 -0.2,0.0813 -0.38534,0.18666 -0.55067,0.30933 l -0.64133,0.484 v -14.336 c 0,-1.08133 0.072,-1.96267 0.216,-2.64 0.156,-0.73467 0.408,-1.252 0.752,-1.55067 0.31733,-0.276 0.7,-0.484 1.144,-0.62 0.42933,-0.132 0.916,-0.19866 1.45733,-0.19866 h 8.27733 c 1.14934,0 2.164,0.0773 3.04,0.23066 0.89067,0.15734 1.644,0.396 2.256,0.71467 1.24267,0.648 2.09867,1.584 2.56534,2.804 0.22266,0.58133 0.39866,1.22133 0.524,1.91733 0.10133,0.572 0.17066,1.18 0.20533,1.82 h 0.87067 v -9.276 h -33.464 v 0.86667 c 0.80933,0.0253 1.52933,0.0707 2.156,0.13467 0.74133,0.0733 1.36266,0.172 1.86,0.29733 0.52933,0.132 0.984,0.33867 1.35466,0.616 0.38267,0.284 0.67867,0.64133 0.88667,1.07333 0.19867,0.408 0.34667,0.93734 0.44267,1.58267 0.092,0.62667 0.13866,1.37067 0.13866,2.228 v 33.47466 c 0,0.82267 -0.0413,1.54934 -0.12266,2.17334 -0.0813,0.63733 -0.208,1.164 -0.37467,1.576 -0.176,0.43333 -0.41467,0.79733 -0.71067,1.088 -0.304,0.296 -0.664,0.51333 -1.08133,0.652 -0.384,0.128 -0.84,0.22933 -1.36667,0.30533 -0.412,0.0573 -0.87333,0.10267 -1.38266,0.12933 z m 48.40533,0 v 0.87334 h 33.05333 l 0.53467,-10.428 h -0.876 c -0.0773,0.65866 -0.19733,1.30133 -0.35867,1.92133 -0.192,0.73733 -0.444,1.44933 -0.75066,2.12533 -0.31734,0.69734 -0.73067,1.328 -1.24,1.88534 -0.50534,0.55733 -1.10667,1.04533 -1.79867,1.46 -0.69867,0.41866 -1.53467,0.73333 -2.508,0.94 -0.95867,0.20266 -2.052,0.30533 -3.27733,0.30533 h -6.55067 c -1.1,0 -2.02533,-0.0653 -2.776,-0.19467 -0.77867,-0.13466 -1.38267,-0.348 -1.80267,-0.63066 -0.86133,-0.58267 -1.29333,-1.97734 -1.29333,-4.18134 v -33.47466 c 0,-0.84933 0.0413,-1.59067 0.12133,-2.22133 0.0813,-0.64 0.20934,-1.16534 0.38,-1.56934 0.17467,-0.42133 0.41467,-0.77733 0.712,-1.06266 0.3,-0.28534 0.66134,-0.49867 1.076,-0.63734 0.38267,-0.128 0.84134,-0.23066 1.368,-0.30533 0.412,-0.0587 0.87334,-0.10267 1.38134,-0.13067 v -0.872 h -17.19467 v 0.86667 c 0.80933,0.0253 1.52933,0.0707 2.156,0.13467 0.74133,0.0733 1.36267,0.172 1.86,0.29733 0.52933,0.132 0.98267,0.33867 1.35467,0.616 0.38133,0.284 0.67866,0.64133 0.88666,1.07333 0.19734,0.408 0.34667,0.93734 0.44134,1.58267 0.092,0.62667 0.14,1.37067 0.14,2.228 v 33.47466 c 0,0.82267 -0.0413,1.54934 -0.12267,2.17334 -0.0827,0.63733 -0.208,1.164 -0.37467,1.576 -0.176,0.43333 -0.41466,0.79733 -0.712,1.088 -0.30266,0.296 -0.664,0.51333 -1.08,0.652 -0.384,0.128 -0.84,0.22933 -1.36666,0.30533 -0.412,0.0573 -0.87334,0.10267 -1.38267,0.12933 z m 43.72533,0 v 0.87334 h 33.05333 l 0.53467,-10.428 h -0.87467 c -0.0773,0.65866 -0.19866,1.30133 -0.36,1.92133 -0.192,0.73733 -0.444,1.44933 -0.75066,2.12533 -0.31734,0.69734 -0.73067,1.328 -1.23867,1.88534 -0.50533,0.55733 -1.10667,1.04533 -1.8,1.46 -0.69733,0.41866 -1.53467,0.73333 -2.50667,0.94 -0.96,0.20266 -2.05333,0.30533 -3.27866,0.30533 h -6.55067 c -1.1,0 -2.02533,-0.0653 -2.776,-0.19467 -0.77866,-0.13466 -1.38266,-0.348 -1.80133,-0.63066 -0.86267,-0.58267 -1.29467,-1.97734 -1.29467,-4.18134 v -33.47466 c 0,-0.84933 0.0413,-1.59067 0.12134,-2.22133 0.0827,-0.64 0.20933,-1.16534 0.38,-1.56934 0.17466,-0.42133 0.41466,-0.77733 0.71333,-1.06266 0.3,-0.28534 0.66,-0.49867 1.07467,-0.63734 0.384,-0.128 0.84133,-0.23066 1.36933,-0.30533 0.41067,-0.0587 0.872,-0.10267 1.38,-0.13067 v -0.872 h -17.19467 v 0.86667 c 0.80934,0.0253 1.52934,0.0707 2.156,0.13467 0.74134,0.0733 1.36267,0.172 1.86,0.29733 0.52934,0.132 0.984,0.33867 1.356,0.616 0.38,0.284 0.67734,0.64133 0.88667,1.07333 0.196,0.408 0.34533,0.93734 0.44133,1.58267 0.092,0.62667 0.13867,1.37067 0.13867,2.228 v 33.47466 c 0,0.82267 -0.0413,1.54934 -0.12133,2.17334 -0.0827,0.63733 -0.20934,1.164 -0.376,1.576 -0.176,0.43333 -0.41467,0.79733 -0.71067,1.088 -0.304,0.296 -0.664,0.51333 -1.08133,0.652 -0.384,0.128 -0.84,0.22933 -1.36667,0.30533 -0.412,0.0573 -0.87333,0.10267 -1.38267,0.12933 z m 43.72667,0 v 0.87334 h 36.58 l 0.536,-10.428 h -0.876 c -0.0787,0.66266 -0.20267,1.30533 -0.36934,1.924 -0.19733,0.736 -0.45866,1.448 -0.78,2.128 -0.33066,0.69733 -0.756,1.32666 -1.276,1.88533 -0.51733,0.55467 -1.12933,1.04 -1.83466,1.456 -0.708,0.41867 -1.54667,0.732 -2.51334,0.93867 -0.95333,0.20266 -2.032,0.30533 -3.23333,0.30533 h -10.00533 c -1.10134,0 -2.02667,-0.0653 -2.776,-0.19467 -0.78,-0.13466 -1.384,-0.348 -1.80267,-0.63066 -0.86133,-0.58267 -1.29467,-1.97734 -1.29467,-4.18134 v -14.90266 c 0,-0.664 0.072,-1.22534 0.216,-1.684 0.156,-0.496 0.39867,-0.87734 0.724,-1.14534 0.60134,-0.492 1.6,-0.73866 2.98934,-0.73866 h 10.00666 c 0.87334,0 1.61734,0.0867 2.23067,0.25866 0.644,0.18134 1.14933,0.46 1.512,0.836 0.35867,0.37334 0.63333,0.92267 0.81867,1.64534 0.152,0.59466 0.24933,1.31333 0.288,2.15466 h 0.868 v -11.43599 h -0.87867 c -0.124,1.49333 -0.56133,2.64 -1.308,3.43733 -0.824,0.876 -2.00133,1.31467 -3.53067,1.31467 h -10.15066 c -0.38,0 -0.728,0.012 -1.04267,0.0333 -0.316,0.0227 -0.60667,0.0573 -0.86933,0.104 -0.24934,0.0427 -0.47867,0.108 -0.68134,0.19067 -0.2,0.0813 -0.38533,0.18666 -0.54933,0.30933 l -0.64267,0.484 v -14.336 c 0,-1.08133 0.0733,-1.96267 0.216,-2.64 0.15734,-0.73467 0.408,-1.252 0.75334,-1.55067 0.316,-0.276 0.69866,-0.484 1.14266,-0.62 0.42934,-0.132 0.916,-0.19866 1.45734,-0.19866 h 8.27733 c 1.15067,0 2.164,0.0773 3.04,0.23066 0.89067,0.15734 1.64533,0.396 2.25733,0.71467 1.24134,0.648 2.09867,1.584 2.56534,2.804 0.22133,0.58133 0.39733,1.22133 0.52266,1.91733 0.10267,0.572 0.17067,1.18 0.20534,1.82 h 0.872 v -9.276 h -33.464 v 0.86667 c 0.808,0.0253 1.528,0.0707 2.15466,0.13467 0.74134,0.0733 1.364,0.172 1.86,0.29733 0.53067,0.132 0.984,0.33867 1.356,0.616 0.38134,0.284 0.67734,0.64133 0.88667,1.07333 0.19733,0.408 0.34533,0.93734 0.44133,1.58267 0.092,0.62667 0.13867,1.37067 0.13867,2.228 v 33.47466 c 0,0.82267 -0.0413,1.54934 -0.12133,2.17334 -0.0827,0.63733 -0.20934,1.164 -0.376,1.576 -0.176,0.43333 -0.41467,0.79733 -0.71067,1.088 -0.304,0.296 -0.664,0.51333 -1.08133,0.652 -0.384,0.128 -0.84,0.22933 -1.36667,0.30533 -0.412,0.0573 -0.87333,0.10267 -1.38133,0.12933 z m 98.59733,0.0347 c 0.19333,0.47867 0.376,0.95067 0.54133,1.41467 h 2.36267 c 0.12667,-0.46534 0.26667,-0.93067 0.42133,-1.39067 0.19067,-0.572 0.40134,-1.14267 0.62934,-1.70533 l 1.90666,-4.71734 13.28267,-31.34933 h 0.79066 l 1.384,31.76533 c 0.048,0.83467 0.052,1.55867 0.008,2.17467 -0.044,0.636 -0.13733,1.16133 -0.28,1.57733 -0.15066,0.43734 -0.36533,0.80267 -0.63866,1.09067 -0.28134,0.296 -0.62267,0.508 -1.02267,0.636 -0.35467,0.11333 -0.77067,0.21333 -1.24267,0.29333 -0.36933,0.064 -0.77466,0.11734 -1.21466,0.16 v 0.88934 h 15.9 v -0.88 c -0.644,-0.0453 -1.232,-0.10134 -1.76134,-0.168 -0.63466,-0.08 -1.18266,-0.176 -1.63866,-0.28667 -0.50267,-0.12267 -0.932,-0.32533 -1.28267,-0.608 -0.35467,-0.28533 -0.63333,-0.65333 -0.82667,-1.09733 -0.17866,-0.41067 -0.32666,-0.93334 -0.44,-1.564 -0.112,-0.62 -0.192,-1.344 -0.24133,-2.17067 l -1.51067,-33.48133 c -0.024,-0.86 -0.008,-1.59867 0.0467,-2.22 0.0573,-0.64267 0.15733,-1.16533 0.29867,-1.56533 0.15333,-0.43067 0.38266,-0.79334 0.688,-1.084 0.30266,-0.288 0.67733,-0.504 1.11866,-0.64134 0.40267,-0.12533 0.88134,-0.22666 1.436,-0.30133 0.43467,-0.0587 0.91867,-0.104 1.44934,-0.13067 v -0.872 h -10.67067 l -0.45067,1.508 c -0.18,0.57467 -0.37733,1.17067 -0.58933,1.784 -0.208,0.6 -0.42933,1.20267 -0.66267,1.80534 -0.23066,0.59733 -0.48,1.216 -0.75066,1.85466 l -13.492,32.20933 h -0.668 l -14.64933,-32.19733 c -0.62,-1.33866 -1.164,-2.57066 -1.624,-3.68666 -0.23467,-0.56667 -0.45734,-1.14534 -0.664,-1.72667 -0.17734,-0.49333 -0.352,-1.01067 -0.52,-1.55067 h -11.54267 v 0.868 c 0.76267,0.0253 1.44133,0.072 2.032,0.13334 0.704,0.0733 1.296,0.17333 1.772,0.29866 0.51067,0.13467 0.94267,0.344 1.292,0.62267 0.35733,0.28933 0.62933,0.65067 0.812,1.08533 0.16933,0.40667 0.28533,0.93734 0.34267,1.58667 0.056,0.62667 0.0587,1.36933 0.0107,2.22533 l -1.656,33.47067 c -0.0253,0.92133 -0.14266,1.73466 -0.348,2.43333 -0.212,0.72267 -0.52266,1.33467 -0.92933,1.832 -0.41467,0.50933 -0.98533,0.90533 -1.704,1.18267 -0.60133,0.232 -1.312,0.38266 -2.128,0.45066 v 0.88134 h 14.53067 v -0.87067 c -1.32134,-0.0613 -2.428,-0.21067 -3.31734,-0.448 -1.02133,-0.27067 -1.776,-0.66267 -2.25733,-1.172 -0.476,-0.50267 -0.82533,-1.12133 -1.04667,-1.852 -0.216,-0.71067 -0.312,-1.53467 -0.288,-2.46533 l 1.45867,-31.27467 h 0.784 l 13.85467,30.832 2.15733,4.71067 c 0.27467,0.58533 0.52533,1.15466 0.748,1.70133 z m 78.732,-3.62533 c -0.28134,-0.61734 -0.56934,-1.35334 -0.86134,-2.204 l -11.73333,-34.98933 -0.68933,-1.84534 -0.64267,-1.82533 c -0.20133,-0.59067 -0.39867,-1.20267 -0.58933,-1.82933 l -0.452,-1.56934 h -2.916 c -0.148,0.53334 -0.30267,1.05734 -0.46267,1.572 -0.19067,0.60134 -0.396,1.21334 -0.61867,1.83334 l -0.668,1.82133 -0.70133,1.852 -12.74133,34.98533 c -0.34134,0.92933 -0.716,1.74667 -1.11867,2.448 -0.408,0.70933 -0.84667,1.3 -1.31333,1.76667 -0.484,0.48266 -1.05334,0.85733 -1.708,1.12266 -0.54267,0.22134 -1.14667,0.36667 -1.80934,0.43867 v 0.88667 h 14.09867 v -0.87067 c -1.38933,-0.06 -2.52267,-0.20667 -3.39867,-0.43867 -1.02,-0.26933 -1.72133,-0.66533 -2.1,-1.18533 -0.37466,-0.51067 -0.568,-1.15333 -0.57333,-1.916 -0.007,-0.72267 0.15333,-1.564 0.47867,-2.516 l 3.38533,-9.508 c 0.20533,-0.56267 0.43333,-1.02267 0.68,-1.37467 0.268,-0.38133 0.57067,-0.65066 0.90133,-0.8 0.29734,-0.13466 0.664,-0.236 1.09467,-0.30133 0.41733,-0.0627 0.9,-0.0947 1.44533,-0.0947 h 9.43067 c 0.25867,0 0.508,-0.009 0.74533,-0.0253 0.23867,-0.0173 0.476,-0.044 0.70667,-0.0773 0.392,-0.0587 0.67733,-0.17867 0.856,-0.356 l 0.46,-0.46 4.308,13.00133 c 0.59333,1.63867 0.83867,2.87333 0.736,3.70133 -0.0573,0.464 -0.22533,0.856 -0.50133,1.16934 -0.27334,0.308 -0.64534,0.53466 -1.112,0.67466 -0.416,0.12667 -0.93867,0.23467 -1.56534,0.32 -0.51866,0.072 -1.116,0.132 -1.78533,0.17734 v 0.88 h 16.40267 v -0.88667 c -0.48134,-0.044 -0.92934,-0.0987 -1.34267,-0.16267 -0.51733,-0.08 -0.97067,-0.17866 -1.35467,-0.28933 -0.41866,-0.12133 -0.808,-0.31867 -1.16533,-0.58667 -0.34933,-0.26533 -0.66933,-0.60133 -0.956,-1.00533 -0.27867,-0.392 -0.56267,-0.904 -0.84933,-1.53333 z m -12.57067,-16.40267 c -0.24267,0.048 -0.53333,0.072 -0.868,0.072 l -10.24667,0.007 -0.524,0.028 c -0.15333,0.009 -0.29333,0.0293 -0.41333,0.0547 -0.12,0.024 -0.23067,0.0573 -0.32933,0.096 l -0.82934,0.332 c 2.43467,-6.72799 4.86667,-13.45599 7.31067,-20.17999 h 0.71067 l 5.99066,17.75066 c 0.13734,0.33333 0.20667,0.61867 0.20667,0.85333 0,0.324 -0.11733,0.56934 -0.35067,0.732 -0.168,0.11734 -0.388,0.20267 -0.65733,0.25467 z m 66.596,19.94533 c 0.35333,0.49867 0.696,0.99867 1.024,1.49734 h 1.964 l -0.0947,-3.516 c -0.0253,-1.276 -0.0387,-2.564 -0.0387,-3.85734 v -33.47466 c 0,-0.92133 0.0947,-1.73733 0.28533,-2.444 0.19333,-0.724 0.48933,-1.33733 0.88267,-1.836 0.40666,-0.51333 0.97466,-0.91067 1.70133,-1.18933 0.60533,-0.23067 1.33067,-0.38134 2.17067,-0.44934 v -0.88 h -14.388 v 0.872 c 1.276,0.06 2.352,0.20934 3.22133,0.44534 1,0.27066 1.748,0.66266 2.244,1.16933 0.488,0.50133 0.85333,1.11867 1.09333,1.84667 0.23467,0.712 0.35334,1.53466 0.35334,2.46533 v 29.844 h -0.72134 l -26.68266,-29.864 c -0.512,-0.56 -1.00134,-1.124 -1.464,-1.68933 -0.45334,-0.55467 -0.89867,-1.12934 -1.33467,-1.728 -0.432,-0.59334 -0.84267,-1.18267 -1.228,-1.76267 -0.35067,-0.528 -0.68933,-1.06133 -1.01467,-1.59867 h -9.164 v 0.87467 c 1.06667,0.0613 2.00534,0.20533 2.80934,0.42667 0.924,0.25466 1.67733,0.616 2.25866,1.08133 0.596,0.47733 1.04267,1.092 1.33734,1.83867 0.28933,0.73066 0.43333,1.59066 0.43333,2.57733 v 33.47466 c 0,0.916 -0.0933,1.73067 -0.276,2.43867 -0.18667,0.724 -0.472,1.33733 -0.852,1.83467 -0.392,0.51466 -0.95867,0.91466 -1.696,1.19333 -0.61467,0.232 -1.35333,0.38267 -2.216,0.45067 v 0.88 h 14.388 v -0.872 c -1.276,-0.0613 -2.35067,-0.212 -3.22133,-0.44667 -1,-0.26933 -1.74934,-0.66133 -2.244,-1.16933 -0.48667,-0.5 -0.852,-1.11734 -1.092,-1.84534 -0.236,-0.712 -0.35334,-1.53466 -0.35334,-2.464 v -29.84533 h 0.724 l 26.392,29.864 c 0.728,0.79733 1.39734,1.55333 2.00534,2.268 0.59333,0.69333 1.108,1.32667 1.544,1.89733 0.43066,0.56134 0.84933,1.128 1.24933,1.692 z m 19.668,0.048 v 0.87334 h 17.12266 v -0.86667 c -0.78533,-0.0267 -1.488,-0.0733 -2.10266,-0.13467 -0.72934,-0.0747 -1.344,-0.17333 -1.84,-0.29733 -0.532,-0.13333 -0.988,-0.344 -1.36134,-0.628 -0.37866,-0.292 -0.676,-0.66 -0.88266,-1.104 -0.19734,-0.42 -0.34534,-0.94933 -0.44,-1.58533 -0.0933,-0.62 -0.14,-1.348 -0.14,-2.18134 v -15.83866 c 0,-0.66534 0.072,-1.228 0.216,-1.68534 0.15733,-0.496 0.39866,-0.87866 0.724,-1.144 0.312,-0.25466 0.728,-0.444 1.24,-0.56533 0.488,-0.116 1.07066,-0.17333 1.748,-0.17333 h 19.00533 c 0.35467,0 0.68933,-0.012 0.99733,-0.0347 0.312,-0.0227 0.608,-0.0587 0.88,-0.104 0.25334,-0.04 0.48667,-0.11066 0.69334,-0.20266 0.20533,-0.0933 0.38933,-0.21067 0.54933,-0.35067 l 0.664,-0.58 v 20.67866 c 0,0.828 -0.0373,1.552 -0.11067,2.16934 -0.0747,0.62933 -0.192,1.15333 -0.34666,1.568 -0.16534,0.44 -0.39867,0.808 -0.69734,1.1 -0.30133,0.296 -0.67066,0.51466 -1.104,0.65333 -0.392,0.12667 -0.85733,0.228 -1.39066,0.304 -0.416,0.0573 -0.88,0.10267 -1.38934,0.12933 v 0.87334 h 17.12267 v -0.86667 c -0.78667,-0.0267 -1.492,-0.0733 -2.11067,-0.13467 -0.73066,-0.0747 -1.35333,-0.17333 -1.86533,-0.29733 -0.54667,-0.13333 -1.008,-0.344 -1.38133,-0.628 -0.38267,-0.29333 -0.676,-0.66533 -0.87067,-1.11333 -0.18267,-0.41734 -0.31867,-0.944 -0.408,-1.58 -0.0867,-0.62267 -0.13067,-1.34934 -0.13067,-2.17734 v -33.47466 c 0,-0.84933 0.0413,-1.59067 0.12134,-2.22133 0.0813,-0.64 0.21066,-1.16534 0.38,-1.56934 0.176,-0.42266 0.416,-0.77733 0.71333,-1.06266 0.3,-0.28534 0.65867,-0.49867 1.076,-0.63734 0.384,-0.128 0.84133,-0.23066 1.36667,-0.30533 0.412,-0.0587 0.87333,-0.10267 1.38133,-0.13067 v -0.872 h -17.19467 v 0.86667 c 0.80934,0.0253 1.52934,0.0707 2.156,0.13467 0.74134,0.0733 1.36267,0.172 1.86,0.29733 0.52934,0.132 0.984,0.33867 1.356,0.616 0.38267,0.284 0.67867,0.64267 0.88667,1.07333 0.19733,0.408 0.34533,0.93734 0.44133,1.58267 0.092,0.62667 0.13867,1.37067 0.13867,2.228 v 8.63733 c 0,0.684 -0.072,1.264 -0.216,1.73734 -0.15467,0.50933 -0.39733,0.89866 -0.72267,1.16533 -0.31066,0.25333 -0.72533,0.444 -1.24133,0.56533 -0.488,0.11467 -1.07067,0.17334 -1.748,0.17334 h -19.004 c -0.37867,0 -0.728,0.012 -1.04267,0.0347 -0.31466,0.0213 -0.608,0.056 -0.86933,0.10267 -0.25067,0.0427 -0.47867,0.108 -0.68133,0.19067 -0.2,0.0813 -0.38534,0.18533 -0.54934,0.30933 l -0.64266,0.484 v -13.4 c 0,-0.84933 0.0413,-1.59067 0.12133,-2.22133 0.0827,-0.64 0.20933,-1.16534 0.38,-1.56934 0.17467,-0.42133 0.41467,-0.77733 0.71333,-1.06266 0.29867,-0.28534 0.66,-0.49867 1.07467,-0.63734 0.384,-0.128 0.84133,-0.23066 1.36933,-0.30533 0.41067,-0.0587 0.872,-0.10267 1.38,-0.13067 v -0.872 h -17.19333 v 0.86667 c 0.808,0.0253 1.528,0.0707 2.15467,0.13467 0.74133,0.0733 1.36266,0.172 1.86,0.29733 0.52933,0.132 0.984,0.33867 1.35466,0.616 0.38267,0.284 0.67867,0.64133 0.888,1.07333 0.19734,0.408 0.34534,0.93734 0.44134,1.58267 0.092,0.62667 0.13866,1.37067 0.13866,2.228 v 33.47466 c 0,0.828 -0.0373,1.552 -0.11066,2.16934 -0.0747,0.62933 -0.192,1.15333 -0.34667,1.568 -0.16533,0.44 -0.39867,0.808 -0.69733,1.1 -0.30134,0.296 -0.67067,0.51466 -1.104,0.65333 -0.39334,0.12667 -0.85734,0.228 -1.39067,0.304 -0.416,0.0573 -0.88,0.10267 -1.38933,0.12933 z m 60.85866,0 v 0.87334 h 36.58134 l 0.53466,-10.428 h -0.876 c -0.0787,0.66266 -0.20133,1.30533 -0.368,1.924 -0.19733,0.736 -0.45866,1.448 -0.78133,2.128 -0.32933,0.69733 -0.75467,1.32666 -1.27467,1.88533 -0.51733,0.55467 -1.12933,1.04 -1.836,1.456 -0.70666,0.41867 -1.54533,0.732 -2.512,0.93867 -0.95333,0.20266 -2.03333,0.30533 -3.23333,0.30533 h -10.00667 c -1.1,0 -2.02533,-0.0653 -2.77466,-0.19467 -0.78,-0.13466 -1.38267,-0.348 -1.80267,-0.63066 -0.86267,-0.58267 -1.29467,-1.97734 -1.29467,-4.18134 v -14.90266 c 0,-0.664 0.072,-1.22534 0.21734,-1.684 0.15466,-0.496 0.39733,-0.87734 0.72266,-1.14534 0.60134,-0.492 1.59867,-0.73866 2.988,-0.73866 h 10.00667 c 0.87333,0 1.61867,0.0867 2.232,0.25866 0.644,0.18134 1.15067,0.46 1.512,0.836 0.35867,0.37334 0.63333,0.92267 0.81867,1.64534 0.152,0.59466 0.248,1.31333 0.28666,2.15466 h 0.86934 v -11.43599 h -0.87867 c -0.124,1.49333 -0.56133,2.64 -1.30933,3.43733 -0.82267,0.876 -2.00134,1.31467 -3.53067,1.31467 h -10.14933 c -0.38,0 -0.72934,0.012 -1.04267,0.0333 -0.316,0.0227 -0.608,0.0573 -0.87067,0.104 -0.248,0.0427 -0.47733,0.108 -0.68,0.19067 -0.2,0.0813 -0.38533,0.18666 -0.54933,0.30933 l -0.64267,0.484 v -14.336 c 0,-1.08133 0.0733,-1.96267 0.21734,-2.64 0.156,-0.73467 0.40666,-1.252 0.75066,-1.55067 0.31734,-0.276 0.69867,-0.484 1.144,-0.62 0.42934,-0.132 0.916,-0.19866 1.45734,-0.19866 h 8.27866 c 1.148,0 2.16267,0.0773 3.03867,0.23066 0.89067,0.15734 1.644,0.396 2.256,0.71467 1.244,0.648 2.09867,1.584 2.56533,2.804 0.22267,0.58133 0.39867,1.22133 0.52267,1.91733 0.104,0.572 0.172,1.18 0.20667,1.82 h 0.87066 v -9.276 h -33.46266 v 0.86667 c 0.808,0.0253 1.528,0.0707 2.15466,0.13467 0.74134,0.0733 1.364,0.172 1.86,0.29733 0.52934,0.132 0.984,0.33867 1.35467,0.616 0.38267,0.284 0.67867,0.64133 0.888,1.07333 0.19733,0.408 0.34533,0.93734 0.44,1.58267 0.0933,0.62667 0.14,1.37067 0.14,2.228 v 33.47466 c 0,0.82267 -0.0413,1.54934 -0.12133,2.17334 -0.0827,0.63733 -0.208,1.164 -0.376,1.576 -0.176,0.43333 -0.41467,0.79733 -0.71067,1.088 -0.304,0.296 -0.66533,0.51333 -1.08133,0.652 -0.384,0.128 -0.84,0.22933 -1.36667,0.30533 -0.412,0.0573 -0.87333,0.10267 -1.38267,0.12933 z m 46.31734,-0.24133 v 1.11467 h 35.14133 l 0.536,-10.428 h -0.86934 c -0.0613,0.588 -0.16933,1.16266 -0.324,1.72133 -0.18666,0.676 -0.444,1.32667 -0.76666,1.94933 -0.33067,0.636 -0.76267,1.21467 -1.292,1.73067 -0.52267,0.50933 -1.144,0.96133 -1.86,1.35067 -0.71467,0.38933 -1.564,0.69466 -2.544,0.912 -0.96667,0.21466 -2.06267,0.348 -3.28267,0.396 l -17.47866,0.59066 v -0.66933 l 24.68133,-39.83466 c 0.37466,-0.61467 0.77466,-1.24267 1.19333,-1.88267 l 0.64667,-0.94533 0.61866,-0.84134 v -1.12 h -31.80799 v 10.428 h 0.892 c 0.068,-0.672 0.15466,-1.30533 0.25466,-1.89733 0.12267,-0.70667 0.27067,-1.36933 0.44267,-1.98533 0.18133,-0.64534 0.44933,-1.22267 0.80267,-1.73067 0.356,-0.51067 0.8,-0.95733 1.332,-1.332 0.52933,-0.37333 1.184,-0.66267 1.95866,-0.86 0.75467,-0.19333 1.628,-0.304 2.61467,-0.328 l 16.25066,-0.51733 v 0.66933 l -24.60933,39.836 -0.59733,0.94933 -0.632,0.968 c -0.22267,0.336 -0.45067,0.65733 -0.67867,0.96133 z m 47.54133,0.24133 v 0.87334 h 36.58133 l 0.53467,-10.428 h -0.876 c -0.0787,0.66266 -0.20134,1.30533 -0.368,1.924 -0.19867,0.736 -0.46,1.448 -0.78134,2.128 -0.32933,0.69733 -0.75466,1.32666 -1.276,1.88533 -0.516,0.55467 -1.12933,1.04 -1.83466,1.456 -0.70667,0.41867 -1.54667,0.732 -2.51334,0.93867 -0.952,0.20266 -2.032,0.30533 -3.232,0.30533 h -10.00666 c -1.1,0 -2.02534,-0.0653 -2.776,-0.19467 -0.77867,-0.13466 -1.38267,-0.348 -1.80134,-0.63066 -0.86266,-0.58267 -1.29466,-1.97734 -1.29466,-4.18134 v -14.90266 c 0,-0.664 0.072,-1.22534 0.216,-1.684 0.156,-0.496 0.39733,-0.87734 0.724,-1.14534 0.60133,-0.492 1.59866,-0.73866 2.988,-0.73866 h 10.00666 c 0.87334,0 1.61734,0.0867 2.232,0.25866 0.644,0.18134 1.14934,0.46 1.512,0.836 0.35867,0.37334 0.632,0.92267 0.81867,1.64534 0.152,0.59466 0.248,1.31333 0.28667,2.15466 h 0.86933 v -11.43599 h -0.88 c -0.12267,1.49333 -0.56,2.64 -1.308,3.43733 -0.82267,0.876 -2.00133,1.31467 -3.53067,1.31467 h -10.15066 c -0.38,0 -0.728,0.012 -1.04267,0.0333 -0.316,0.0227 -0.60667,0.0573 -0.86933,0.104 -0.24934,0.0427 -0.47734,0.108 -0.68,0.19067 -0.2,0.0813 -0.38534,0.18666 -0.54934,0.30933 l -0.64266,0.484 v -14.336 c 0,-1.08133 0.072,-1.96267 0.216,-2.64 0.156,-0.73467 0.408,-1.252 0.752,-1.55067 0.31733,-0.276 0.7,-0.484 1.144,-0.62 0.42933,-0.132 0.916,-0.19866 1.45733,-0.19866 h 8.27733 c 1.14934,0 2.164,0.0773 3.04,0.23066 0.89067,0.15734 1.644,0.396 2.256,0.71467 1.24267,0.648 2.09867,1.584 2.56534,2.804 0.22266,0.58133 0.39733,1.22133 0.524,1.91733 0.10133,0.572 0.17066,1.18 0.20533,1.82 h 0.87067 v -9.276 h -33.464 v 0.86667 c 0.80933,0.0253 1.52933,0.0707 2.156,0.13467 0.74133,0.0733 1.36266,0.172 1.86,0.29733 0.52933,0.132 0.984,0.33867 1.35466,0.616 0.38267,0.284 0.67867,0.64133 0.888,1.07333 0.19734,0.408 0.34534,0.93734 0.44134,1.58267 0.092,0.62667 0.13866,1.37067 0.13866,2.228 v 33.47466 c 0,0.82267 -0.0413,1.54934 -0.12133,2.17334 -0.0827,0.63733 -0.20933,1.164 -0.376,1.576 -0.17733,0.43333 -0.41467,0.79733 -0.71067,1.088 -0.304,0.296 -0.664,0.51333 -1.08133,0.652 -0.384,0.128 -0.84,0.22933 -1.36667,0.30533 -0.412,0.0573 -0.87333,0.10267 -1.38266,0.12933" /><path
       id="path18"
       style="fill:#eae7e2;fill-opacity:1;fill-rule:nonzero;stroke:none;stroke-width:0.133333"
       d="m 199.86266,614.29201 h 4.82 c 1.23867,0 2.38667,-0.212 3.444,-0.644 1.05733,-0.42933 1.988,-1.03066 2.78,-1.80666 0.79733,-0.776 1.41333,-1.684 1.84933,-2.72667 0.44134,-1.036 0.65867,-2.168 0.65867,-3.38533 0,-1.228 -0.21733,-2.36 -0.65867,-3.40134 -0.436,-1.04133 -1.052,-1.95066 -1.84933,-2.72666 -0.792,-0.776 -1.72267,-1.38134 -2.78,-1.812 -1.05733,-0.43067 -2.20533,-0.644 -3.444,-0.644 h -4.82 z m -2.86533,2.588 v -22.32266 h 7.59466 c 1.696,0 3.25334,0.276 4.67734,0.83466 1.424,0.552 2.664,1.33467 3.72133,2.33334 1.052,1.00533 1.876,2.184 2.46533,3.544 0.58534,1.36133 0.87734,2.84933 0.87734,4.46 0,1.60533 -0.28667,3.088 -0.86667,4.444 -0.57867,1.36 -1.392,2.54 -2.44933,3.53866 -1.05334,1 -2.30267,1.78134 -3.732,2.33334 -1.43467,0.55866 -2.99734,0.83466 -4.69334,0.83466 z m 26.49466,0 v -22.32266 h 9.816 c 1.47734,0 2.764,0.27066 3.85867,0.81333 1.10133,0.54133 1.95733,1.296 2.57333,2.26933 0.616,0.97334 0.92,2.116 0.92,3.42267 0,1.456 -0.42133,2.716 -1.272,3.77867 -0.84933,1.05866 -1.98133,1.808 -3.40133,2.25466 l 4.99067,9.784 h -3.17734 l -4.704,-9.39733 h -6.73866 v 9.39733 z m 2.86534,-11.79866 h 6.744 c 1.42,0 2.556,-0.36134 3.40666,-1.08534 0.85067,-0.728 1.276,-1.7 1.276,-2.92266 0,-1.20134 -0.42533,-2.16267 -1.276,-2.892 -0.85066,-0.72134 -1.98666,-1.084 -3.40666,-1.084 h -6.744 z m 19.36133,11.79866 9.23867,-22.32266 h 3.416 l 9.15733,22.32266 h -3.11867 l -2.7,-6.792 h -10.27866 l -2.73334,6.792 z m 6.68667,-9.20533 h 8.34 l -4.168,-10.42267 z m 22.93866,9.41867 c -0.49333,0 -0.91866,-0.176 -1.27466,-0.532 -0.356,-0.356 -0.532,-0.78134 -0.532,-1.276 0,-0.49334 0.176,-0.91867 0.532,-1.276 0.35066,-0.356 0.776,-0.536 1.27466,-0.536 0.49467,0 0.92,0.18 1.276,0.536 0.356,0.35066 0.532,0.776 0.532,1.276 0,0.49466 -0.176,0.92 -0.532,1.276 -0.35066,0.356 -0.776,0.532 -1.276,0.532" /><path
       id="path20"
       style="fill:#a79479;fill-opacity:1;fill-rule:nonzero;stroke:none;stroke-width:0.133333"
       d="m 227.09466,730.69334 9.23867,-22.324 h 3.41733 l 9.15867,22.324 h -3.12 l -2.7,-6.79333 h -10.28 l -2.732,6.79333 z m 6.688,-9.20533 h 8.33867 l -4.16667,-10.424 z m 23.87467,6.61733 h 4.82133 c 1.23867,0 2.38533,-0.21333 3.444,-0.644 1.05733,-0.43066 1.98667,-1.03066 2.78,-1.80666 0.79733,-0.776 1.41333,-1.68534 1.84933,-2.72667 0.44134,-1.03733 0.65867,-2.16933 0.65867,-3.38667 0,-1.22666 -0.21733,-2.36 -0.65867,-3.40133 -0.436,-1.04133 -1.052,-1.94933 -1.84933,-2.72667 -0.79333,-0.77466 -1.72267,-1.38133 -2.78,-1.812 -1.05867,-0.43066 -2.20533,-0.64266 -3.444,-0.64266 h -4.82133 z m -2.864,2.588 v -22.324 h 7.59466 c 1.696,0 3.252,0.27734 4.676,0.83467 1.42534,0.55333 2.664,1.33467 3.72134,2.33333 1.052,1.00534 1.876,2.18534 2.46666,3.54534 0.584,1.36 0.876,2.84933 0.876,4.45866 0,1.60667 -0.28666,3.088 -0.86533,4.444 -0.58,1.36 -1.39333,2.54 -2.45067,3.54 -1.052,0.99867 -2.30133,1.78 -3.73066,2.33334 -1.436,0.55733 -2.99734,0.83466 -4.69334,0.83466 z m 32.19733,0 -9.13733,-22.324 h 3.09466 l 7.83334,19.56534 7.96266,-19.56534 h 2.92267 l -9.25867,22.324 z m 27.97333,0.35067 c -1.62666,0 -3.136,-0.29333 -4.54,-0.87733 -1.39733,-0.58534 -2.62533,-1.40267 -3.68266,-2.456 -1.05734,-1.052 -1.88134,-2.27467 -2.46667,-3.66667 -0.58933,-1.392 -0.88133,-2.896 -0.88133,-4.51333 0,-1.61467 0.292,-3.11867 0.88133,-4.512 0.58533,-1.392 1.40933,-2.61467 2.46667,-3.66667 1.05733,-1.052 2.28533,-1.87067 3.68266,-2.456 1.404,-0.584 2.91334,-0.87733 4.54,-0.87733 1.60534,0 3.10934,0.29333 4.50667,0.87733 1.39867,0.58533 2.62533,1.404 3.68267,2.456 1.05866,1.052 1.88266,2.27467 2.46666,3.66667 0.59067,1.39333 0.88267,2.89733 0.88267,4.512 0,1.61733 -0.292,3.12133 -0.88267,4.51333 -0.584,1.392 -1.408,2.61467 -2.46666,3.66667 -1.05734,1.05333 -2.284,1.87066 -3.68267,2.456 -1.39733,0.584 -2.90133,0.87733 -4.50667,0.87733 z m 0,-2.64133 c 1.22134,0 2.35467,-0.224 3.396,-0.67467 1.04134,-0.44667 1.95067,-1.07467 2.73734,-1.87733 0.78133,-0.80267 1.39333,-1.748 1.83333,-2.82667 0.436,-1.08533 0.65333,-2.248 0.65333,-3.49333 0,-1.264 -0.21733,-2.43334 -0.65333,-3.50667 -0.44,-1.06933 -1.052,-2.00933 -1.83333,-2.812 -0.78667,-0.80267 -1.696,-1.42933 -2.73734,-1.876 -1.04133,-0.452 -2.17466,-0.67467 -3.396,-0.67467 -1.228,0 -2.36,0.22267 -3.412,0.67467 -1.05333,0.44667 -1.968,1.07333 -2.75333,1.876 -0.78133,0.80267 -1.39333,1.74267 -1.82933,2.812 -0.44134,1.07333 -0.65867,2.24267 -0.65867,3.50667 0,1.24533 0.21733,2.408 0.65867,3.49333 0.436,1.07867 1.048,2.024 1.82933,2.82667 0.78533,0.80266 1.7,1.43066 2.75333,1.87733 1.052,0.45067 2.18934,0.67467 3.412,0.67467 z m 29.312,2.636 c -1.632,0 -3.14667,-0.29334 -4.56,-0.87734 -1.40933,-0.58533 -2.648,-1.40266 -3.716,-2.45066 -1.06267,-1.052 -1.892,-2.27467 -2.476,-3.66667 -0.59066,-1.392 -0.88266,-2.896 -0.88266,-4.51333 0,-1.62 0.292,-3.124 0.88266,-4.516 0.584,-1.39334 1.41333,-2.616 2.48133,-3.66267 1.068,-1.052 2.30667,-1.87067 3.716,-2.456 1.408,-0.584 2.928,-0.87733 4.55467,-0.87733 1.17467,0 2.312,0.14933 3.40133,0.44666 1.08934,0.29867 2.09867,0.72267 3.03467,1.28134 0.94,0.55866 1.764,1.23333 2.48267,2.036 l -1.908,1.98133 c -0.86134,-0.99867 -1.908,-1.764 -3.14134,-2.3 -1.23333,-0.53733 -2.524,-0.80267 -3.86933,-0.80267 -1.244,0 -2.39733,0.22267 -3.45467,0.67467 -1.064,0.44667 -1.98266,1.07333 -2.76933,1.876 -0.78667,0.80267 -1.39733,1.74267 -1.83333,2.812 -0.44267,1.07333 -0.66,2.24267 -0.66,3.50667 0,1.24533 0.21733,2.408 0.66,3.488 0.44133,1.07866 1.05733,2.02 1.85466,2.82666 0.792,0.80267 1.72667,1.43067 2.80134,1.876 1.07333,0.44667 2.232,0.66934 3.48,0.66934 1.34,0 2.61466,-0.264 3.828,-0.796 1.20666,-0.532 2.232,-1.27067 3.06666,-2.22134 l 1.86534,1.912 c -0.73334,0.78267 -1.568,1.45067 -2.50267,2.02 -0.936,0.564 -1.94133,0.99467 -3.02,1.292 -1.07867,0.292 -2.184,0.44134 -3.316,0.44134 z m 13.516,-0.34534 9.23733,-22.324 h 3.41734 l 9.15866,22.324 h -3.12 l -2.7,-6.79333 h -10.28 l -2.732,6.79333 z m 6.68667,-9.20533 h 8.33866 l -4.16666,-10.424 z m 30.48666,9.55067 c -1.632,0 -3.14666,-0.29334 -4.56,-0.87734 -1.40933,-0.58533 -2.648,-1.40266 -3.716,-2.45066 -1.06266,-1.052 -1.892,-2.27467 -2.47733,-3.66667 -0.58933,-1.392 -0.88133,-2.896 -0.88133,-4.51333 0,-1.62 0.292,-3.124 0.88133,-4.516 0.58533,-1.39334 1.41467,-2.616 2.48267,-3.66267 1.068,-1.052 2.30666,-1.87067 3.716,-2.456 1.408,-0.584 2.928,-0.87733 4.55466,-0.87733 1.17467,0 2.312,0.14933 3.40134,0.44666 1.08933,0.29867 2.1,0.72267 3.036,1.28134 0.94,0.55866 1.764,1.23333 2.48133,2.036 l -1.908,1.98133 c -0.86133,-0.99867 -1.908,-1.764 -3.14133,-2.3 -1.23334,-0.53733 -2.524,-0.80267 -3.86934,-0.80267 -1.244,0 -2.39733,0.22267 -3.45466,0.67467 -1.06267,0.44667 -1.98267,1.07333 -2.76934,1.876 -0.78666,0.80267 -1.39733,1.74267 -1.83466,2.812 -0.44,1.07333 -0.65867,2.24267 -0.65867,3.50667 0,1.24533 0.21867,2.408 0.65867,3.488 0.44266,1.07866 1.05866,2.02 1.856,2.82666 0.792,0.80267 1.72666,1.43067 2.80133,1.876 1.07333,0.44667 2.232,0.66934 3.48133,0.66934 1.33867,0 2.61467,-0.264 3.82667,-0.796 1.20667,-0.532 2.232,-1.27067 3.06667,-2.22134 l 1.86533,1.912 c -0.73333,0.78267 -1.568,1.45067 -2.504,2.02 -0.93467,0.564 -1.94,0.99467 -3.01867,1.292 -1.07866,0.292 -2.184,0.44134 -3.316,0.44134 z m 15.812,-0.34534 v -22.324 h 2.86534 v 22.324 z m 8.748,0 9.23867,-22.324 h 3.41733 l 9.15734,22.324 h -3.12 l -2.7,-6.79333 h -10.27867 l -2.732,6.79333 z m 6.68667,-9.20533 h 8.34 l -4.168,-10.424 z m 31.21067,9.20533 v -22.324 h 16.19466 v 2.52 h -13.33066 v 7.29734 h 8.72266 v 2.472 h -8.72266 v 7.51466 h 13.45733 v 2.52 z m 31.15066,0 9.23733,-22.324 h 3.41734 l 9.15866,22.324 h -3.12 l -2.7,-6.79333 h -10.28 l -2.732,6.79333 z m 6.68667,-9.20533 h 8.33866 l -4.16666,-10.424 z m 28.85866,9.524 c -1.768,0 -3.47466,-0.35067 -5.112,-1.05733 -1.63066,-0.708 -3.07733,-1.716 -4.332,-3.02934 l 1.824,-2.004 c 1.17334,1.21734 2.408,2.12 3.69334,2.72134 1.28666,0.596 2.64133,0.892 4.06533,0.892 1.128,0 2.12133,-0.17067 2.98267,-0.516 0.86133,-0.34534 1.536,-0.828 2.02,-1.44934 0.48266,-0.62266 0.72266,-1.33466 0.72266,-2.132 0,-1.07333 -0.372,-1.90266 -1.128,-2.48266 -0.75333,-0.57334 -1.992,-1.00934 -3.72533,-1.29067 l -3.45467,-0.55867 c -2.09866,-0.356 -3.65733,-0.99866 -4.67066,-1.93466 -1.016,-0.93467 -1.52,-2.18934 -1.52,-3.77334 0,-1.26533 0.33466,-2.37066 1.00266,-3.31733 0.66534,-0.95067 1.60667,-1.68933 2.812,-2.216 1.20667,-0.52133 2.604,-0.78667 4.20534,-0.78667 1.58266,0 3.14533,0.26134 4.68666,0.776 1.548,0.52 2.94,1.26 4.19334,2.22134 l -1.60934,2.20666 c -2.424,-1.83866 -4.89066,-2.75866 -7.404,-2.75866 -1.02,0 -1.91866,0.15333 -2.68933,0.45733 -0.77067,0.308 -1.36667,0.73333 -1.79067,1.27467 -0.42666,0.548 -0.63866,1.18533 -0.63866,1.91866 0,0.97867 0.32933,1.72267 0.99466,2.244 0.65867,0.51467 1.75334,0.89734 3.27334,1.14267 l 3.38533,0.54267 c 2.408,0.392 4.16267,1.08266 5.268,2.06666 1.10533,0.98267 1.66267,2.344 1.66267,4.08667 0,1.324 -0.36667,2.49867 -1.1,3.51867 -0.728,1.02133 -1.75334,1.81866 -3.06134,2.38666 -1.312,0.56934 -2.82666,0.85067 -4.556,0.85067 z m 23.07334,0 c -1.76934,0 -3.476,-0.35067 -5.11334,-1.05733 -1.63066,-0.708 -3.07733,-1.716 -4.33066,-3.02934 l 1.82266,-2.004 c 1.17467,1.21734 2.408,2.12 3.69334,2.72134 1.28666,0.596 2.64266,0.892 4.06666,0.892 1.12667,0 2.12134,-0.17067 2.98134,-0.516 0.86133,-0.34534 1.536,-0.828 2.02,-1.44934 0.484,-0.62266 0.72266,-1.33466 0.72266,-2.132 0,-1.07333 -0.372,-1.90266 -1.12666,-2.48266 -0.75467,-0.57334 -1.992,-1.00934 -3.72534,-1.29067 l -3.45466,-0.55867 c -2.1,-0.356 -3.65734,-0.99866 -4.672,-1.93466 -1.01467,-0.93467 -1.52,-2.18934 -1.52,-3.77334 0,-1.26533 0.33466,-2.37066 1.004,-3.31733 0.664,-0.95067 1.60533,-1.68933 2.812,-2.216 1.20666,-0.52133 2.604,-0.78667 4.204,-0.78667 1.584,0 3.14533,0.26134 4.688,0.776 1.54666,0.52 2.93866,1.26 4.19333,2.22134 l -1.61067,2.20666 c -2.424,-1.83866 -4.88933,-2.75866 -7.404,-2.75866 -1.02,0 -1.91866,0.15333 -2.68933,0.45733 -0.76933,0.308 -1.36533,0.73333 -1.79067,1.27467 -0.42533,0.548 -0.63866,1.18533 -0.63866,1.91866 0,0.97867 0.33066,1.72267 0.99466,2.244 0.65867,0.51467 1.75334,0.89734 3.27467,1.14267 l 3.38533,0.54267 c 2.40667,0.392 4.16134,1.08266 5.26667,2.06666 1.10533,0.98267 1.664,2.344 1.664,4.08667 0,1.324 -0.36667,2.49867 -1.10133,3.51867 -0.72667,1.02133 -1.75334,1.81866 -3.06134,2.38666 -1.312,0.56934 -2.82666,0.85067 -4.55466,0.85067 z m 15.38133,-0.31867 v -22.324 h 16.19467 v 2.52 h -13.32934 v 7.29734 h 8.72134 v 2.472 h -8.72134 v 7.51466 h 13.45734 v 2.52 z m 30.62,0.31867 c -1.76933,0 -3.476,-0.35067 -5.11333,-1.05733 -1.63067,-0.708 -3.07734,-1.716 -4.33067,-3.02934 l 1.82267,-2.004 c 1.17466,1.21734 2.408,2.12 3.69333,2.72134 1.28667,0.596 2.64267,0.892 4.06667,0.892 1.12666,0 2.12,-0.17067 2.98133,-0.516 0.86133,-0.34534 1.53733,-0.828 2.02,-1.44934 0.484,-0.62266 0.72267,-1.33466 0.72267,-2.132 0,-1.07333 -0.372,-1.90266 -1.12667,-2.48266 -0.75467,-0.57334 -1.99333,-1.00934 -3.72667,-1.29067 l -3.45333,-0.55867 c -2.1,-0.356 -3.65733,-0.99866 -4.672,-1.93466 -1.016,-0.93467 -1.52,-2.18934 -1.52,-3.77334 0,-1.26533 0.33467,-2.37066 1.004,-3.31733 0.664,-0.95067 1.60533,-1.68933 2.812,-2.216 1.20533,-0.52133 2.604,-0.78667 4.204,-0.78667 1.584,0 3.14667,0.26134 4.68667,0.776 1.548,0.52 2.93999,1.26 4.19466,2.22134 l -1.61066,2.20666 c -2.424,-1.83866 -4.88934,-2.75866 -7.404,-2.75866 -1.02,0 -1.91734,0.15333 -2.68934,0.45733 -0.77066,0.308 -1.36533,0.73333 -1.79066,1.27467 -0.42534,0.548 -0.63734,1.18533 -0.63734,1.91866 0,0.97867 0.32934,1.72267 0.99334,2.244 0.65866,0.51467 1.75333,0.89734 3.27333,1.14267 l 3.38667,0.54267 c 2.40666,0.392 4.16133,1.08266 5.26666,2.06666 1.10533,0.98267 1.664,2.344 1.664,4.08667 0,1.324 -0.36667,2.49867 -1.10133,3.51867 -0.728,1.02133 -1.75333,1.81866 -3.06133,2.38666 -1.312,0.56934 -2.82667,0.85067 -4.55467,0.85067 z m 23.07333,0 c -1.77067,0 -3.476,-0.35067 -5.11333,-1.05733 -1.632,-0.708 -3.07734,-1.716 -4.332,-3.02934 l 1.824,-2.004 c 1.17333,1.21734 2.40666,2.12 3.69333,2.72134 1.28667,0.596 2.64133,0.892 4.06533,0.892 1.12667,0 2.12134,-0.17067 2.98267,-0.516 0.86133,-0.34534 1.536,-0.828 2.02,-1.44934 0.484,-0.62266 0.72133,-1.33466 0.72133,-2.132 0,-1.07333 -0.37066,-1.90266 -1.12666,-2.48266 -0.75334,-0.57334 -1.992,-1.00934 -3.72534,-1.29067 l -3.45466,-0.55867 c -2.09867,-0.356 -3.65734,-0.99866 -4.67067,-1.93466 -1.016,-0.93467 -1.52133,-2.18934 -1.52133,-3.77334 0,-1.26533 0.33466,-2.37066 1.004,-3.31733 0.664,-0.95067 1.60533,-1.68933 2.812,-2.216 1.20666,-0.52133 2.604,-0.78667 4.20533,-0.78667 1.58267,0 3.14533,0.26134 4.68667,0.776 1.54666,0.52 2.94,1.26 4.19333,2.22134 l -1.60933,2.20666 c -2.424,-1.83866 -4.89067,-2.75866 -7.404,-2.75866 -1.02134,0 -1.91867,0.15333 -2.69067,0.45733 -0.76933,0.308 -1.36533,0.73333 -1.79067,1.27467 -0.42533,0.548 -0.63733,1.18533 -0.63733,1.91866 0,0.97867 0.32933,1.72267 0.99467,2.244 0.65866,0.51467 1.75333,0.89734 3.27333,1.14267 l 3.38533,0.54267 c 2.408,0.392 4.16267,1.08266 5.26667,2.06666 1.10667,0.98267 1.664,2.344 1.664,4.08667 0,1.324 -0.36533,2.49867 -1.1,3.51867 -0.728,1.02133 -1.75467,1.81866 -3.06133,2.38666 -1.312,0.56934 -2.828,0.85067 -4.55467,0.85067 z m 25.93067,0.032 c -1.62534,0 -3.13467,-0.29333 -4.53867,-0.87733 -1.39733,-0.58534 -2.62533,-1.40267 -3.68267,-2.456 -1.05866,-1.052 -1.88133,-2.27467 -2.46666,-3.66667 -0.58934,-1.392 -0.88134,-2.896 -0.88134,-4.51333 0,-1.61467 0.292,-3.11867 0.88134,-4.512 0.58533,-1.392 1.408,-2.61467 2.46666,-3.66667 1.05734,-1.052 2.28534,-1.87067 3.68267,-2.456 1.404,-0.584 2.91333,-0.87733 4.53867,-0.87733 1.60666,0 3.11066,0.29333 4.508,0.87733 1.39733,0.58533 2.62533,1.404 3.68266,2.456 1.05867,1.052 1.88267,2.27467 2.46667,3.66667 0.59067,1.39333 0.88267,2.89733 0.88267,4.512 0,1.61733 -0.292,3.12133 -0.88267,4.51333 -0.584,1.392 -1.408,2.61467 -2.46667,3.66667 -1.05733,1.05333 -2.28533,1.87066 -3.68266,2.456 -1.39734,0.584 -2.90134,0.87733 -4.508,0.87733 z m 0,-2.64133 c 1.22266,0 2.35466,-0.224 3.39733,-0.67467 1.04133,-0.44667 1.95067,-1.07467 2.736,-1.87733 0.78267,-0.80267 1.39333,-1.748 1.83467,-2.82667 0.436,-1.08533 0.65333,-2.248 0.65333,-3.49333 0,-1.264 -0.21733,-2.43334 -0.65333,-3.50667 -0.44134,-1.06933 -1.052,-2.00933 -1.83467,-2.812 -0.78533,-0.80267 -1.69467,-1.42933 -2.736,-1.876 -1.04267,-0.452 -2.17467,-0.67467 -3.39733,-0.67467 -1.22667,0 -2.35867,0.22267 -3.412,0.67467 -1.052,0.44667 -1.96667,1.07333 -2.752,1.876 -0.78267,0.80267 -1.39334,1.74267 -1.82934,2.812 -0.44133,1.07333 -0.65866,2.24267 -0.65866,3.50667 0,1.24533 0.21733,2.408 0.65866,3.49333 0.436,1.07867 1.04667,2.024 1.82934,2.82667 0.78533,0.80266 1.7,1.43066 2.752,1.87733 1.05333,0.45067 2.19066,0.67467 3.412,0.67467 z m 18.69866,2.29066 v -22.324 h 9.81734 c 1.47733,0 2.76266,0.272 3.85866,0.81334 1.1,0.54266 1.956,1.29733 2.572,2.27066 0.616,0.972 0.92,2.11467 0.92,3.42267 0,1.456 -0.42,2.716 -1.27066,3.77867 -0.85067,1.05733 -1.98267,1.80666 -3.40134,2.25333 l 4.99067,9.78533 h -3.17867 l -4.704,-9.39733 h -6.73866 v 9.39733 z m 2.86534,-11.8 h 6.744 c 1.42,0 2.55733,-0.36133 3.40666,-1.084 0.85067,-0.728 1.276,-1.70133 1.276,-2.92266 0,-1.20134 -0.42533,-2.164 -1.276,-2.892 -0.84933,-0.72267 -1.98666,-1.084 -3.40666,-1.084 h -6.744 z m 21.33866,11.8 v -22.324 h 2.86534 v 22.324 z m 8.748,0 9.23867,-22.324 h 3.41733 l 9.15734,22.324 h -3.12 l -2.7,-6.79333 h -10.28 l -2.73067,6.79333 z m 6.68667,-9.20533 h 8.33867 l -4.16667,-10.424 z m 37.652,9.55067 c -1.97734,0 -3.684,-0.51067 -5.124,-1.536 -1.44,-1.02134 -2.48667,-2.46667 -3.152,-4.332 l 2.62133,-1.05734 c 0.552,1.44534 1.30133,2.524 2.25333,3.23067 0.952,0.70667 2.09334,1.064 3.43334,1.064 1.73733,0 3.13066,-0.564 4.16666,-1.69067 1.036,-1.12666 1.55734,-2.64133 1.55734,-4.53866 v -13.80934 h 2.87066 v 13.85734 c 0,1.79066 -0.356,3.34266 -1.05733,4.66666 -0.708,1.328 -1.70667,2.348 -2.99333,3.06667 -1.28667,0.71733 -2.812,1.07867 -4.576,1.07867 z m 25.27866,0 c -1.91466,0 -3.572,-0.39867 -4.97066,-1.20134 -1.40267,-0.79733 -2.48134,-1.93466 -3.23734,-3.40666 -0.75333,-1.47334 -1.132,-3.21067 -1.132,-5.21467 v -12.84667 h 2.86534 v 12.84667 c 0,1.45733 0.26666,2.72133 0.79733,3.8 0.52667,1.07467 1.28133,1.90933 2.25867,2.49333 0.984,0.59067 2.12133,0.88134 3.424,0.88134 1.32266,0 2.47066,-0.29067 3.43866,-0.88134 0.96134,-0.584 1.71067,-1.41866 2.24267,-2.49333 0.53067,-1.07867 0.792,-2.34267 0.792,-3.8 v -12.84667 h 2.87067 v 12.84667 c 0,1.99867 -0.384,3.736 -1.14934,5.20933 -0.77066,1.472 -1.84933,2.60934 -3.236,3.412 -1.39333,0.80267 -3.04533,1.20134 -4.964,1.20134 z m 17.09734,-0.34534 v -22.324 h 9.81733 c 1.47733,0 2.76267,0.272 3.85867,0.81334 1.1,0.54266 1.956,1.29733 2.572,2.27066 0.616,0.972 0.92,2.11467 0.92,3.42267 0,1.456 -0.42,2.716 -1.27067,3.77867 -0.85067,1.05733 -1.98267,1.80666 -3.40133,2.25333 l 4.99066,9.78533 h -3.17866 l -4.704,-9.39733 h -6.73867 v 9.39733 z m 2.86533,-11.8 h 6.744 c 1.41867,0 2.55733,-0.36133 3.408,-1.084 0.84933,-0.728 1.27467,-1.70133 1.27467,-2.92266 0,-1.20134 -0.42534,-2.164 -1.27467,-2.892 -0.85067,-0.72267 -1.98933,-1.084 -3.408,-1.084 h -6.744 z m 21.32267,11.8 v -22.324 h 2.87066 v 22.324 z m -0.66934,-25.38533 2.96534,-3.79467 h 3.41333 l -4.05067,3.79467 z m 14.59467,22.79733 h 4.82133 c 1.23867,0 2.38534,-0.21333 3.444,-0.644 1.05734,-0.43066 1.98667,-1.03066 2.78,-1.80666 0.79734,-0.776 1.41334,-1.68534 1.84934,-2.72667 0.44133,-1.03733 0.65866,-2.16933 0.65866,-3.38667 0,-1.22666 -0.21733,-2.36 -0.65866,-3.40133 -0.436,-1.04133 -1.052,-1.94933 -1.84934,-2.72667 -0.79333,-0.77466 -1.72266,-1.38133 -2.78,-1.812 -1.05866,-0.43066 -2.20533,-0.64266 -3.444,-0.64266 h -4.82133 z m -2.864,2.588 v -22.324 h 7.59467 c 1.696,0 3.25333,0.27734 4.67733,0.83467 1.424,0.55333 2.66267,1.33467 3.72,2.33333 1.052,1.00534 1.876,2.18534 2.46667,3.54534 0.584,1.36 0.87733,2.84933 0.87733,4.45866 0,1.60667 -0.288,3.088 -0.86667,4.444 -0.58,1.36 -1.39333,2.54 -2.45066,3.54 -1.052,0.99867 -2.30134,1.78 -3.73067,2.33334 -1.436,0.55733 -2.99733,0.83466 -4.69333,0.83466 z m 26.49467,0 v -22.324 h 2.86533 v 22.324 z m 21.65866,0.34534 c -1.632,0 -3.14666,-0.29334 -4.56,-0.87734 -1.40933,-0.58533 -2.648,-1.40266 -3.71466,-2.45066 -1.064,-1.052 -1.89334,-2.27467 -2.47734,-3.66667 -0.59066,-1.392 -0.88266,-2.896 -0.88266,-4.51333 0,-1.62 0.292,-3.124 0.88266,-4.516 0.584,-1.39334 1.41334,-2.616 2.48134,-3.66267 1.06933,-1.052 2.30666,-1.87067 3.716,-2.456 1.408,-0.584 2.928,-0.87733 4.55466,-0.87733 1.17467,0 2.312,0.14933 3.40133,0.44666 1.08934,0.29867 2.1,0.72267 3.036,1.28134 0.94,0.55866 1.764,1.23333 2.48134,2.036 l -1.908,1.98133 c -0.86134,-0.99867 -1.908,-1.764 -3.14134,-2.3 -1.23333,-0.53733 -2.52399,-0.80267 -3.86933,-0.80267 -1.244,0 -2.39733,0.22267 -3.45466,0.67467 -1.06267,0.44667 -1.98267,1.07333 -2.76934,1.876 -0.78666,0.80267 -1.39733,1.74267 -1.83333,2.812 -0.44133,1.07333 -0.66,2.24267 -0.66,3.50667 0,1.24533 0.21867,2.408 0.66,3.488 0.44133,1.07866 1.05733,2.02 1.85467,2.82666 0.792,0.80267 1.728,1.43067 2.80133,1.876 1.07333,0.44667 2.232,0.66934 3.48133,0.66934 1.33867,0 2.61467,-0.264 3.82667,-0.796 1.20666,-0.532 2.232,-1.27067 3.06666,-2.22134 l 1.86534,1.912 c -0.73334,0.78267 -1.568,1.45067 -2.50267,2.02 -0.936,0.564 -1.94133,0.99467 -3.02,1.292 -1.07866,0.292 -2.184,0.44134 -3.316,0.44134 z m 13.516,-0.34534 9.23733,-22.324 h 3.41734 l 9.15866,22.324 h -3.12 l -2.7,-6.79333 h -10.28 l -2.732,6.79333 z m 6.68667,-9.20533 h 8.33866 l -4.16666,-10.424 z" /><g
       id="g22"
       transform="matrix(0.13333333,0,0,-0.13333333,0,1124)"><g
         clip-path="url(#clipPath28)"
         id="g24"><path
           id="path42"
           style="fill:url(#linearGradient40);fill-opacity:1;fill-rule:nonzero;stroke:none"
           d="m 4849.71,5198.99 v -991.54 h -51.69 v 913.35 l -575.24,-645.75 -573.06,643.3 v 51.74 l 573.06,-643.3 598.8,672.2 z M 4339,4959.8 c -115.65,-47 -233.26,-93.85 -339.68,-156.3 l -22.02,24.72 c 131.56,72.23 280.15,131.32 415.29,191.73 z m -398.72,-193.5 c -86.08,-58.32 -162.33,-129.96 -220.78,-224.51 -64.84,-104.92 -77.48,-220.41 14.8,-334.22 l -136.76,0.16 c -0.68,32.65 -0.72,63.9 0.49,93.98 v 1163.28 h 30.78 3.68 v -0.14 l 2.58,-0.1 486.07,-545.64 c -10.89,-5.02 -21.75,-10.09 -32.55,-15.2 l -456.1,512 v -924.29 c 10.51,27.56 23.92,54.45 40.96,80.93 56.75,88.21 142.93,159.25 243.02,220.48 z m 225.73,102.43 57.46,-64.5 588.6,660.76 h 38.15 c 9.58,-189.37 -89.32,-297.11 -236.21,-379.55 -40.73,-22.87 -83.47,-43.67 -127.39,-63.4 l 68.18,76.53 c 12.45,6.75 24.63,13.58 36.46,20.51 127.93,74.99 216.43,163.35 218.16,291.19 l -585.95,-657.78 -90.21,101.27 c 10.87,5.07 21.78,10.06 32.75,14.97" /></g></g></g></svg>
